<?xml version="1.0" encoding="utf-8"?>
<!-- Generator: Adobe Illustrator 16.0.0, SVG Export Plug-In . SVG Version: 6.00 Build 0)  -->
<!DOCTYPE svg PUBLIC "-//W3C//DTD SVG 1.1//EN" "http://www.w3.org/Graphics/SVG/1.1/DTD/svg11.dtd">
<svg version="1.1" id="Layer_1" xmlns="http://www.w3.org/2000/svg" xmlns:xlink="http://www.w3.org/1999/xlink" x="0px" y="0px"
	 width="24px" height="24px" viewBox="0 0 24 24" enable-background="new 0 0 24 24" xml:space="preserve">
<g>
	<path d="M10.5,21.2c0,0.2,0.1,0.3,0.2,0.4c0.1,0.2,0.4,0.3,0.7,0.3c0.2,0,0.4-0.1,0.6-0.2c0.2-0.1,0.3-0.3,0.3-0.6
		c0-0.3-0.1-0.5-0.3-0.6c-0.2-0.1-0.5-0.3-0.8-0.4c-0.3-0.1-0.7-0.2-1.1-0.4s-0.7-0.3-1.1-0.5c-0.3-0.2-0.6-0.5-0.8-0.9
		c-0.2-0.4-0.3-0.8-0.3-1.4c0-0.4,0.1-0.8,0.2-1.1c0.1-0.3,0.4-0.7,0.7-0.9c0.3-0.3,0.7-0.5,1.2-0.6c0.5-0.1,1-0.2,1.6-0.2
		c2.3,0,3.5,1,3.5,2.9h-2.7c0-0.4-0.1-0.7-0.2-0.8c-0.1-0.1-0.3-0.2-0.6-0.2c-0.2,0-0.4,0.1-0.6,0.2c-0.1,0.1-0.2,0.3-0.2,0.5
		c0,0.3,0.1,0.5,0.3,0.6c0.2,0.1,0.5,0.2,0.8,0.4c0.3,0.1,0.7,0.2,1.1,0.3c0.4,0.1,0.7,0.3,1.1,0.5c0.3,0.2,0.6,0.5,0.8,0.9
		c0.2,0.4,0.3,0.8,0.3,1.4c0,0.5-0.1,0.9-0.3,1.3c-0.2,0.4-0.4,0.7-0.7,1s-0.7,0.5-1.2,0.6c-0.5,0.1-1,0.2-1.6,0.2
		c-1.3,0-2.2-0.3-2.8-0.8c-0.6-0.5-0.9-1.3-0.9-2.3h2.7C10.5,20.9,10.5,21,10.5,21.2z"/>
	<path d="M16.9,12.3c0.6-0.6,1.6-0.9,2.8-0.9c0.7,0,1.4,0.1,1.9,0.2s0.9,0.4,1.2,0.7c0.3,0.3,0.5,0.6,0.6,1.1
		c0.1,0.4,0.2,0.9,0.2,1.4c0,0.2,0,0.5-0.1,0.7s-0.2,0.5-0.3,0.7c-0.1,0.2-0.3,0.4-0.5,0.6c-0.2,0.2-0.5,0.3-0.8,0.4v0
		c0.7,0.1,1.2,0.5,1.5,0.9c0.3,0.5,0.4,1.1,0.4,1.7c0,1.4-0.3,2.4-1,3c-0.7,0.6-1.7,0.9-3,0.9c-0.7,0-1.3-0.1-1.8-0.2
		c-0.5-0.1-0.9-0.3-1.3-0.6c-0.3-0.3-0.6-0.7-0.7-1.2c-0.2-0.5-0.2-1.1-0.2-1.8h3c0,0.3,0,0.6,0.1,0.9c0,0.2,0.1,0.4,0.2,0.6
		c0.1,0.3,0.4,0.4,0.7,0.4c0.2,0,0.3,0,0.4-0.1c0.1-0.1,0.2-0.1,0.3-0.3c0.1-0.1,0.1-0.3,0.1-0.6c0-0.2,0-0.6,0-0.9
		c0-0.6-0.1-1-0.3-1.2c-0.2-0.2-0.5-0.3-0.9-0.3h-0.8v-2H19c0.2,0,0.4,0,0.6-0.1c0.2,0,0.3-0.1,0.4-0.3s0.2-0.3,0.3-0.5
		c0.1-0.2,0.1-0.5,0.1-0.9c0-0.5-0.1-0.9-0.2-1c-0.1-0.2-0.3-0.3-0.6-0.3c-0.3,0-0.5,0.1-0.7,0.4c-0.1,0.2-0.2,0.7-0.2,1.3h-2.9
		C15.9,13.8,16.2,12.9,16.9,12.3z"/>
</g>
<path id="polygon287" fill="#F7A80D" d="M7,12L4.8,13l2,0.9L9.2,13L7,12z M3.7,13.2l-0.1,4.2l3.2,1.4v-4.4L3.7,13.2z M10.3,13.2
	l-2.9,1.1v4.2l2.9-1.2V13.2z"/>
<path id="polygon311" fill="#F7A80D" d="M13.8,0l-2.2,0.9l2.1,0.9L16,0.9L13.8,0z M10.7,1.3v4.2l2.7,0.8l0.1-3.9L10.7,1.3z
	 M16.8,1.5l-2.6,1.1v4.2l2.6-1.2V1.5z"/>
<path id="use3387" fill="#F7A80D" d="M3.4,6L1.2,6.9l2,0.9l2.4-0.9L3.4,6z M0.1,7.2L0,11.4l3.2,1.4V8.4L0.1,7.2z M6.7,7.2L3.8,8.3
	v4.2l2.9-1.2V7.2z"/>
<path id="use3389" fill="#F7A80D" d="M10.5,5.8L8.3,6.8l2,0.9l2.4-0.9L10.5,5.8z M7.2,7l-0.1,4.2l3.2,1.4V8.3L7.2,7z M13.8,7
	l-2.9,1.1v4.2l2.9-1.2V7z"/>
<path id="use3391" fill="#F7A80D" d="M20.7,0l-2.2,0.9l2,0.9l2.4-0.9L20.7,0z M17.4,1.2l-0.1,4.3l3.2,1.4V2.4L17.4,1.2z M24,1.2
	l-2.9,1.1v4.2L24,5.3V1.2z"/>
</svg>
