<?xml version="1.0" encoding="utf-8"?>
<!-- Generator: Adobe Illustrator 16.0.0, SVG Export Plug-In . SVG Version: 6.00 Build 0)  -->
<!DOCTYPE svg PUBLIC "-//W3C//DTD SVG 1.1//EN" "http://www.w3.org/Graphics/SVG/1.1/DTD/svg11.dtd">
<svg version="1.1" id="Layer_1" xmlns="http://www.w3.org/2000/svg" xmlns:xlink="http://www.w3.org/1999/xlink" x="0px" y="0px"
	 width="24px" height="24px" viewBox="0 0 24 24" enable-background="new 0 0 24 24" xml:space="preserve">
<path id="path4653" fill="#006398" d="M11.7,23.6c-2.4-0.1-4.6-1.2-6.2-3c-1.3-1.5-2-3.5-2-5.5c0-2.1,0.7-4,2.1-5.6
	c0.2-0.2,0.6-0.7,0.7-0.7c0,0,0.5,0.5,1.1,1.1l1.1,1.1l0.3-0.3c0.2-0.2,0.3-0.3,0.3-0.3c0,0,0.2,0.7,0.6,2.3c0,0,0,0,0,0
	s-2.2-0.6-2.3-0.6c0,0,0,0,0,0c0,0,0.1-0.2,0.3-0.3C7.9,11.7,8,11.6,8,11.6c0,0-0.6-0.6-0.6-0.6c0,0-0.2,0.2-0.3,0.3
	c-0.7,0.9-1.1,2-1.2,3.1c0,0.3,0,0.3,0,0.4c0,0,0.8,0,0.8,0c0,0,0-0.1,0-0.5c0-0.4,0-0.4,0-0.4c0,0,2.1,1.2,2.1,1.2c0,0,0,0,0,0
	c-0.1,0-2.1,1.2-2.1,1.2c0,0,0-0.2,0-0.4l0-0.4H6.3H5.9l0,0.1c0,0.2,0.1,0.6,0.1,0.9c0.2,0.9,0.6,1.7,1.1,2.4
	c0.1,0.1,0.3,0.3,0.3,0.4c0,0,0.6-0.5,0.6-0.6c0,0-0.1-0.2-0.3-0.3C7.5,18.1,7.4,18,7.4,18c0,0,2.3-0.6,2.3-0.6c0,0-0.6,2.3-0.6,2.4
	c0,0-0.1-0.1-0.3-0.3c-0.2-0.2-0.3-0.3-0.3-0.3c0,0-0.6,0.6-0.6,0.6c0,0,0.2,0.2,0.4,0.3c0.7,0.5,1.5,0.9,2.4,1.1
	c0.3,0.1,0.7,0.1,0.9,0.1l0.1,0v-0.4v-0.4l-0.4,0c-0.3,0-0.4,0-0.4,0c0,0,1.2-2.1,1.2-2.1s1.2,2.1,1.2,2.1c0,0-0.1,0-0.4,0l-0.4,0
	v0.4v0.4l0.1,0c0.2,0,0.6-0.1,0.9-0.1c0.9-0.2,1.7-0.6,2.4-1.1c0.2-0.1,0.4-0.3,0.4-0.3c0,0-0.5-0.6-0.6-0.6c0,0-0.2,0.1-0.3,0.3
	c-0.2,0.2-0.3,0.3-0.3,0.3c0,0-0.6-2.3-0.6-2.4c0,0,2.3,0.6,2.3,0.6c0,0-0.1,0.1-0.3,0.3c-0.2,0.2-0.3,0.3-0.3,0.3
	c0,0,0.6,0.6,0.6,0.6c0,0,0.2-0.2,0.3-0.4c0.5-0.7,0.9-1.5,1.1-2.4c0.1-0.3,0.1-0.7,0.1-0.9l0-0.1h-0.4h-0.4l0,0.4
	c0,0.2,0,0.4,0,0.4c0,0-2-1.2-2.1-1.2c0,0,0,0,0,0c0,0,2.1-1.2,2.1-1.2c0,0,0,0,0,0.4c0,0.3,0,0.4,0,0.5c0,0,0.8,0,0.8,0
	c0,0,0-0.1,0-0.4c-0.1-1.1-0.6-2.2-1.2-3.1c-0.1-0.2-0.3-0.3-0.3-0.3S16,11.6,16,11.6c0,0,0.1,0.1,0.3,0.3c0.2,0.2,0.3,0.3,0.3,0.3
	c0,0,0,0,0,0c-0.1,0-2.3,0.6-2.3,0.6c0,0,0,0,0,0c0.4-1.6,0.6-2.3,0.6-2.3c0,0,0.1,0.1,0.3,0.3l0.3,0.3l0.3-0.3
	c0.2-0.2,0.3-0.3,0.3-0.3c0,0-0.2-0.2-0.3-0.3c-0.3-0.2-0.5-0.3-1.6-0.7c-0.7-0.3-1.1-0.5-1.5-0.8c-1-0.6-1.6-1.5-2-2.7
	c-0.1-0.2-0.2-0.6-0.2-0.6c0,0-0.1,0-0.6,0.2C9.3,5.9,9,6,8.9,6C8.8,6,8.8,6,8.9,5.9c0-0.1,0.1-0.1,0.2-0.3C9.3,5.3,9.5,5,9.8,4.5
	c0.4-0.8,0.9-1.9,1.3-3.1c0.1-0.3,0.3-0.8,0.3-1c0,0,0-0.1,0-0.1c0,0,1.1,1.8,1.6,2.7c1,1.8,1.4,2.7,1.3,2.7c0,0-0.1,0-0.3-0.2
	c-0.3-0.3-0.4-0.3-0.7-0.4c-0.1,0-0.3-0.1-0.4-0.1c-0.1,0-0.1,0-0.1,0.1c0.2,0.6,0.4,1,0.7,1.3c0.3,0.3,0.7,0.5,1.8,0.9
	c0.8,0.3,1.3,0.6,1.8,0.9c0.4,0.2,0.7,0.5,1,0.8c1.8,1.9,2.7,4.4,2.4,7c-0.3,2.3-1.4,4.3-3.3,5.7c-1,0.8-2.2,1.3-3.4,1.6
	C13.1,23.6,12.4,23.7,11.7,23.6z"/>
<path id="path4697" fill="#970000" d="M11.8,18c-0.4,0-0.7-0.1-1.1-0.3c-0.3-0.2-0.5-0.3-0.8-0.6c-0.4-0.4-0.7-1-0.8-1.6
	c0-0.2,0-0.6,0-0.8c0-0.3,0.1-0.5,0.2-0.8c0.4-0.9,1.2-1.5,2.2-1.7c0.1,0,0.2,0,0.4,0s0.3,0,0.4,0c1,0.2,1.8,0.8,2.2,1.7
	c0.1,0.2,0.2,0.5,0.2,0.8c0,0.2,0,0.6,0,0.8c0,0.3-0.1,0.6-0.3,0.8c-0.1,0.3-0.3,0.5-0.5,0.8c-0.2,0.3-0.5,0.4-0.8,0.6
	c-0.4,0.2-0.8,0.3-1.2,0.3C12,18,11.8,18,11.8,18z"/>
</svg>
