<?xml version="1.0" encoding="utf-8"?>
<!-- Generator: Adobe Illustrator 16.0.0, SVG Export Plug-In . SVG Version: 6.00 Build 0)  -->
<!DOCTYPE svg PUBLIC "-//W3C//DTD SVG 1.1//EN" "http://www.w3.org/Graphics/SVG/1.1/DTD/svg11.dtd">
<svg version="1.1" id="Layer_1" xmlns="http://www.w3.org/2000/svg" xmlns:xlink="http://www.w3.org/1999/xlink" x="0px" y="0px"
	 width="24px" height="24px" viewBox="0 0 24 24" enable-background="new 0 0 24 24" xml:space="preserve">
<path fill="#F7AE00" d="M19.1,3.2c-0.3-0.1-0.7-0.1-1-0.1c0,0-0.1,0-0.1,0c0.2,0,0.4,0,0.7,0C18.8,3.2,19,3.2,19.1,3.2z"/>
<path fill="#F7AE00" d="M23.8,16v-3.7C23.8,13.8,23.8,16,23.8,16L23.8,16z"/>
<path fill="#F7AE00" d="M4.4,9.3c0-0.3,0-0.6,0-0.9c0,0,0,0.1,0,0.1V16h0C4.4,16,4.4,11.5,4.4,9.3z"/>
<path fill="none" d="M8.8,6.9C9.4,7.5,9.6,8,9.6,8c-0.1-0.6,0-1.2,0.2-1.7C9.3,6.4,9,6.6,8.8,6.9z"/>
<path fill="none" d="M12.8,1.7l-2.1,1.5c0.2,0,0.4,0.1,0.7,0.1C12.1,2.3,12.8,1.7,12.8,1.7z"/>
<path fill="#E9B200" d="M5.3,5.6C4.8,6.4,4.4,7.4,4.4,8.4c0,0.3,0,0.6,0,0.9c0,2.2,0,6.8,0,6.8h3.9V8.2c0-0.3,0.1-0.6,0.2-0.8
	C7.9,6.8,7,6.1,5.3,5.6z"/>
<path fill="#E9B200" d="M23.8,8.3c-0.1-1.4-0.7-2.6-1.7-3.6c-0.8-0.8-1.9-1.3-3.1-1.5c-0.1,0-0.3,0-0.4,0c-0.2,0-0.4,0-0.7,0
	c-1.5,0-2.9,0.6-3.9,1.5c-0.6-0.6-1.3-1-2.1-1.2c-0.6,0.7-1.3,1.7-1.6,2.8c1.1,0,1.9,0.9,1.9,2V16h0.1h3.5h0.1V8.2c0-1.1,0.9-2,2-2
	s2,0.9,2,2V16h3.9c0,0,0-2.3,0-3.7V8.6C23.8,8.5,23.8,8.4,23.8,8.3z"/>
<g>
	<path fill="#461D7C" d="M1.6,5.4c-0.2,0-0.3,0.1-0.3,0.3v4.6c0,0.2,0.1,0.3,0.3,0.3s0.3-0.1,0.3-0.3V5.7C1.9,5.6,1.8,5.4,1.6,5.4z"
		/>
	<circle fill="#461D7C" cx="1.6" cy="4.8" r="0.3"/>
	<path fill="#461D7C" d="M6.2,4.6H3c1.1,0.1,2,0.3,2.7,0.5c0.8,0.2,1.4,0.5,1.9,0.8c0,0,0,0,0,0C7.7,6,7.8,6.1,7.9,6.2c0,0,0,0,0,0
		c0.1,0.1,0.2,0.2,0.3,0.2c0,0,0,0,0,0c0.1,0.1,0.2,0.1,0.3,0.2c0,0,0,0,0,0c0.1,0.1,0.1,0.1,0.2,0.2C9.4,7.5,9.6,8,9.6,8
		c-0.1-0.6,0-1.2,0.2-1.7c0-0.1,0.1-0.3,0.1-0.4c0,0,0,0,0-0.1c0.1-0.3,0.2-0.5,0.3-0.8c0,0,0,0,0-0.1c0.1-0.2,0.3-0.5,0.4-0.7
		c0,0,0,0,0-0.1c0.1-0.1,0.1-0.2,0.2-0.3c0,0,0,0,0,0C11,3.8,11,3.7,11.1,3.6c0,0,0,0,0-0.1c0.1-0.1,0.1-0.2,0.2-0.3
		c0.8-1,1.5-1.6,1.5-1.6L8.6,4.6H6.2z"/>
	<path fill="#461D7C" d="M8.8,3.8l0.9-0.6c0,0,0,0,0,0L14.2,0H6.4L0.1,4.1h8.2L8.8,3.8z"/>
</g>
<g>
	<path fill="#461D7C" d="M5.8,21.3c0,0.2,0,0.3,0,0.5c0,0.1,0.1,0.3,0.1,0.4c0.1,0.1,0.1,0.2,0.2,0.2c0.1,0.1,0.2,0.1,0.4,0.1
		c0.2,0,0.3,0,0.4-0.1s0.2-0.1,0.2-0.2c0.1-0.1,0.1-0.2,0.1-0.4c0-0.1,0-0.3,0-0.5v-4.8h1.4v4.8c0,0.4-0.1,0.8-0.2,1.1
		c-0.1,0.3-0.3,0.5-0.5,0.7c-0.2,0.2-0.4,0.3-0.7,0.3s-0.5,0.1-0.8,0.1c-0.3,0-0.6,0-0.8-0.1c-0.3-0.1-0.5-0.2-0.7-0.3
		c-0.2-0.2-0.4-0.4-0.5-0.7c-0.1-0.3-0.2-0.7-0.2-1.1v-4.8h1.4V21.3z"/>
	<path fill="#461D7C" d="M10.8,21.4c0,0.2,0,0.3,0,0.4c0,0.1,0.1,0.2,0.1,0.3c0.1,0.1,0.2,0.2,0.3,0.2c0.1,0.1,0.3,0.1,0.4,0.1
		c0.2,0,0.4-0.1,0.6-0.2s0.3-0.4,0.3-0.6c0-0.2,0-0.3-0.1-0.4c0-0.1-0.1-0.2-0.2-0.3c-0.1-0.1-0.2-0.2-0.4-0.2s-0.4-0.1-0.6-0.2
		c-0.3-0.1-0.6-0.2-0.8-0.3c-0.2-0.1-0.4-0.3-0.6-0.4s-0.3-0.4-0.3-0.6c-0.1-0.2-0.1-0.5-0.1-0.7c0-0.7,0.2-1.2,0.6-1.5
		c0.4-0.3,0.9-0.5,1.6-0.5c0.3,0,0.6,0,0.8,0.1c0.3,0.1,0.5,0.2,0.7,0.3c0.2,0.2,0.3,0.3,0.4,0.6s0.2,0.5,0.2,0.8v0.2h-1.3
		c0-0.3-0.1-0.6-0.2-0.8s-0.3-0.3-0.6-0.3c-0.2,0-0.3,0-0.4,0.1c-0.1,0-0.2,0.1-0.2,0.2c-0.1,0.1-0.1,0.2-0.1,0.3c0,0.1,0,0.2,0,0.3
		c0,0.2,0,0.4,0.1,0.5c0.1,0.1,0.3,0.3,0.6,0.4l1.1,0.5c0.3,0.1,0.5,0.2,0.6,0.4c0.2,0.1,0.3,0.3,0.4,0.4c0.1,0.1,0.2,0.3,0.2,0.5
		c0,0.2,0.1,0.4,0.1,0.6c0,0.7-0.2,1.2-0.6,1.6c-0.4,0.3-1,0.5-1.8,0.5c-0.8,0-1.3-0.2-1.7-0.5c-0.3-0.3-0.5-0.8-0.5-1.5v-0.3h1.4
		V21.4z"/>
	<path fill="#461D7C" d="M18.4,17.7H16v1.6h2.3v1.1H16v1.8h2.5v1.1h-3.9v-6.9h3.8V17.7z"/>
	<path fill="#461D7C" d="M21.8,16.5c0.6,0,1,0.1,1.3,0.4c0.3,0.3,0.5,0.7,0.5,1.3c0,0.5-0.1,0.8-0.3,1.1c-0.2,0.3-0.5,0.5-0.9,0.6v0
		c0.3,0.1,0.6,0.2,0.8,0.3c0.2,0.2,0.3,0.5,0.3,0.8c0,0.1,0,0.3,0,0.4c0,0.2,0,0.3,0,0.5c0,0.4,0,0.6,0.1,0.8c0,0.2,0.1,0.3,0.2,0.4
		v0.1h-1.5c-0.1-0.1-0.1-0.2-0.1-0.3c0-0.1,0-0.3,0-0.4l0-1.3c0-0.3-0.1-0.5-0.2-0.6c-0.1-0.2-0.3-0.2-0.6-0.2h-0.7v2.9h-1.4v-6.9
		H21.8z M21.2,19.5c0.3,0,0.6-0.1,0.8-0.2c0.2-0.2,0.3-0.4,0.3-0.8c0-0.6-0.3-1-1-1h-0.7v2H21.2z"/>
</g>
</svg>
