<?xml version="1.0" encoding="utf-8"?>
<!-- Generator: Adobe Illustrator 16.0.0, SVG Export Plug-In . SVG Version: 6.00 Build 0)  -->
<!DOCTYPE svg PUBLIC "-//W3C//DTD SVG 1.1//EN" "http://www.w3.org/Graphics/SVG/1.1/DTD/svg11.dtd">
<svg version="1.1" id="Layer_1" xmlns="http://www.w3.org/2000/svg" xmlns:xlink="http://www.w3.org/1999/xlink" x="0px" y="0px"
	 width="16px" height="16px" viewBox="0 0 16 16" enable-background="new 0 0 16 16" xml:space="preserve">
<path fill="#CC9966" stroke="#000000" stroke-miterlimit="10" d="M5.516,2.56c0,1.156-1.077,2.094-2.406,2.094
	c-0.538,0-1.034-0.154-1.437-0.415C1.086,3.858,0.704,3.248,0.703,2.56c0-1.156,1.077-2.094,2.406-2.094S5.516,1.404,5.516,2.56z"/>
<polygon fill="#AFAFAF" stroke="#000000" stroke-miterlimit="10" points="0.484,6.102 0.484,10.227 5.734,10.227 5.734,6.102 
	4.537,4.852 1.651,4.852 "/>
<path fill="#CC9966" stroke="#000000" stroke-miterlimit="10" d="M8.891,4.31c0,1.156-1.077,2.094-2.406,2.094
	c-0.538,0-1.034-0.154-1.437-0.415C4.461,5.608,4.079,4.998,4.078,4.31c0-1.156,1.077-2.094,2.406-2.094S8.891,3.154,8.891,4.31z"/>
<polygon fill="#D6D6D6" stroke="#000000" stroke-miterlimit="10" points="3.859,7.852 3.859,11.977 9.109,11.977 9.109,7.852 
	7.912,6.602 5.026,6.602 "/>
<path fill="#CC9966" stroke="#000000" stroke-miterlimit="10" d="M12.188,6.073c0,1.155-1.077,2.094-2.406,2.094
	c-0.538,0-1.034-0.154-1.437-0.415c-0.587-0.381-0.969-0.991-0.97-1.679c0-1.157,1.077-2.094,2.406-2.094S12.188,4.917,12.188,6.073
	z"/>
<polygon fill="#7C7C7C" stroke="#000000" stroke-miterlimit="10" points="7.156,9.614 7.156,13.739 12.406,13.739 12.406,9.614 
	11.209,8.364 8.323,8.364 "/>
<g>
	<path fill="#CC9966" stroke="#000000" stroke-miterlimit="10" d="M15.281,7.818c0,1.156-1.077,2.094-2.406,2.094
		c-0.538,0-1.034-0.154-1.437-0.415c-0.587-0.381-0.969-0.991-0.97-1.679c0-1.156,1.077-2.094,2.406-2.094
		S15.281,6.662,15.281,7.818z"/>
	<polygon fill="#FFFFFF" stroke="#000000" stroke-miterlimit="10" points="10.25,11.359 10.25,15.484 15.5,15.484 15.5,11.359 
		14.303,10.109 11.417,10.109 	"/>
</g>
</svg>
