<?xml version="1.0" encoding="utf-8"?>
<!-- Generator: Adobe Illustrator 16.0.0, SVG Export Plug-In . SVG Version: 6.00 Build 0)  -->
<!DOCTYPE svg PUBLIC "-//W3C//DTD SVG 1.1//EN" "http://www.w3.org/Graphics/SVG/1.1/DTD/svg11.dtd">
<svg version="1.1" id="Layer_1" xmlns="http://www.w3.org/2000/svg" xmlns:xlink="http://www.w3.org/1999/xlink" x="0px" y="0px"
	 width="32px" height="32px" viewBox="0 0 32 32" style="enable-background:new 0 0 32 32;" xml:space="preserve">
<style type="text/css">
<![CDATA[
	.st0{fill:#FFFFFF;stroke:#3F86FF;stroke-width:2;stroke-miterlimit:10;}
	.st1{fill:#D40017;stroke:#D40017;stroke-width:2;stroke-miterlimit:10;}
	.st2{fill:#FFFFFF;}
	.st3{fill:#D40017;}
]]>
</style>
<path class="st0" d="M1.31,14.5C6.86,9.17,4.53,0.73,4.53,0.73l14.59,0.74c0,0,2.32,11.72-4.58,22.53C11.05,24,9,24,9,24"/>
<g>
	<path class="st3" d="M20.44,3.9c0,0,1.02-0.19,2.84-0.15c0.91,0.03,2.02,0.14,3.26,0.53c1.21,0.39,2.67,1.17,3.5,2.73
		c0.41,0.76,0.6,1.66,0.63,2.56c0,0.23,0.01,0.44-0.01,0.69l-0.04,0.63c-0.03,0.42-0.1,0.91-0.17,1.35
		c-0.32,1.81-0.95,3.65-1.86,5.43c-1.82,3.56-4.72,6.79-8.18,9.29c-1.74,1.24-3.61,2.32-5.63,3.1c-1.01,0.38-2.05,0.69-3.12,0.87
		c-0.28,0.04-0.51,0.09-0.83,0.12l-0.73,0.06c-0.51,0.02-1.11,0.06-1.63,0.02c-1.07-0.05-2.16-0.22-3.2-0.64
		c-1.03-0.41-2.04-1.05-2.76-1.94c-0.71-0.9-1.09-1.96-1.22-2.94c-0.08-0.5-0.05-0.95-0.04-1.44c0.01-0.2,0.02-0.4,0.03-0.6
		c0.03-0.23,0.05-0.45,0.08-0.68c0.25-1.7,1.01-3.2,1.95-4.22c0.93-1.04,1.96-1.67,2.8-2.1c0.06-0.03,0.08-0.05,0.18-0.09l0.19-0.06
		c0.18-0.06,0.35-0.08,0.58-0.07c0.22,0.01,0.53,0.14,0.68,0.34c0.16,0.2,0.2,0.37,0.21,0.51c0.05,0.53-0.11,0.81-0.19,1.06
		c-0.2,0.48-0.35,0.71-0.35,0.71l-0.29-0.09c0,0,0.01-0.26-0.04-0.72c-0.02-0.21-0.07-0.54-0.18-0.68
		c-0.02-0.03-0.06-0.03-0.03,0.03c0.03,0.06,0.14,0.12,0.16,0.14c0.03,0.02,0,0.04-0.02,0.07c0.01,0-0.07,0.05-0.1,0.08
		c0.01,0-0.07,0.05-0.1,0.07c-0.7,0.44-1.51,1.04-2.17,1.92c-0.66,0.87-1.15,2-1.26,3.35l-0.02,0.48c0,0.19,0.01,0.39,0.01,0.58
		c0.03,0.3,0.1,0.66,0.18,0.97c0.18,0.64,0.49,1.2,0.93,1.62c0.87,0.87,2.36,1.25,4.05,1.24c0.43,0.01,0.8-0.01,1.25-0.04l0.73-0.07
		c0.16-0.01,0.42-0.05,0.62-0.08c0.87-0.13,1.76-0.33,2.65-0.61c1.78-0.52,3.55-1.35,5.19-2.38c3.29-2.06,6.14-4.92,7.99-8.07
		c0.92-1.58,1.6-3.23,1.98-4.86c0.1-0.41,0.18-0.78,0.24-1.2l0.09-0.63c0.02-0.16,0.03-0.37,0.05-0.55
		c0.03-0.74-0.07-1.46-0.33-2.07c-0.53-1.24-1.67-2.02-2.76-2.46c-1.1-0.45-2.16-0.63-3.02-0.74c-0.87-0.1-1.57-0.12-2.04-0.12
		c-0.47,0-0.72,0.02-0.72,0.02L20.44,3.9z"/>
</g>
<polygon class="st2" points="8.66,22.62 11.06,25.06 8.28,26 "/>
<polygon class="st1" points="2.74,14.88 10.12,15.12 9.88,22.42 "/>
</svg>
