<?xml version="1.0" encoding="utf-8"?>
<!-- Generator: Adobe Illustrator 16.0.0, SVG Export Plug-In . SVG Version: 6.00 Build 0)  -->
<!DOCTYPE svg PUBLIC "-//W3C//DTD SVG 1.1//EN" "http://www.w3.org/Graphics/SVG/1.1/DTD/svg11.dtd">
<svg version="1.1" id="Layer_1" xmlns="http://www.w3.org/2000/svg" xmlns:xlink="http://www.w3.org/1999/xlink" x="0px" y="0px"
	 width="24px" height="24px" viewBox="0 0 24 24" enable-background="new 0 0 24 24" xml:space="preserve">
<path fill="#F7AE00" d="M19.1,4.2c-0.3-0.1-0.7-0.1-1-0.1c0,0-0.1,0-0.1,0c0.2,0,0.4,0,0.7,0C18.8,4.2,19,4.2,19.1,4.2z"/>
<path fill="#F7AE00" d="M23.8,17.1v-3.7C23.8,14.8,23.8,17.1,23.8,17.1L23.8,17.1z"/>
<path fill="#F7AE00" d="M4.4,10.3c0-0.3,0-0.6,0-0.9c0,0,0,0.1,0,0.1v7.5h0C4.4,17.1,4.4,12.5,4.4,10.3z"/>
<path fill="none" d="M8.8,7.9C9.4,8.5,9.6,9,9.6,9c-0.1-0.6,0-1.2,0.2-1.7C9.3,7.4,9,7.6,8.8,7.9z"/>
<path fill="none" d="M12.8,2.7l-2.1,1.5c0.2,0,0.4,0.1,0.7,0.1C12.1,3.3,12.8,2.7,12.8,2.7z"/>
<path fill="#E9B200" d="M5.3,6.6C4.8,7.4,4.4,8.4,4.4,9.4c0,0.3,0,0.6,0,0.9c0,2.2,0,6.8,0,6.8h3.9V9.2c0-0.3,0.1-0.6,0.2-0.8
	C7.9,7.8,7,7.1,5.3,6.6z"/>
<path fill="#E9B200" d="M23.8,9.3c-0.1-1.4-0.7-2.6-1.7-3.6c-0.8-0.8-1.9-1.3-3.1-1.5c-0.1,0-0.3,0-0.4,0c-0.2,0-0.4,0-0.7,0
	c-1.5,0-2.9,0.6-3.9,1.5c-0.6-0.6-1.3-1-2.1-1.2c-0.6,0.7-1.3,1.7-1.6,2.8c1.1,0,1.9,0.9,1.9,2v7.8h0.1h3.5h0.1V9.2c0-1.1,0.9-2,2-2
	s2,0.9,2,2v7.8h3.9c0,0,0-2.3,0-3.7V9.7C23.8,9.5,23.8,9.4,23.8,9.3z"/>
<g>
	<path fill="#461D7C" d="M1.6,6.4c-0.2,0-0.3,0.1-0.3,0.3v4.6c0,0.2,0.1,0.3,0.3,0.3s0.3-0.1,0.3-0.3V6.7C1.9,6.6,1.8,6.4,1.6,6.4z"
		/>
	<circle fill="#461D7C" cx="1.6" cy="5.8" r="0.3"/>
	<path fill="#461D7C" d="M6.2,5.6H3c1.1,0.1,2,0.3,2.7,0.5C6.5,6.3,7.1,6.6,7.6,7c0,0,0,0,0,0C7.7,7,7.8,7.1,7.9,7.2c0,0,0,0,0,0
		c0.1,0.1,0.2,0.2,0.3,0.2c0,0,0,0,0,0c0.1,0.1,0.2,0.1,0.3,0.2c0,0,0,0,0,0c0.1,0.1,0.1,0.1,0.2,0.2C9.4,8.5,9.6,9,9.6,9
		c-0.1-0.6,0-1.2,0.2-1.7c0-0.1,0.1-0.3,0.1-0.4c0,0,0,0,0-0.1c0.1-0.3,0.2-0.5,0.3-0.8c0,0,0,0,0-0.1c0.1-0.2,0.3-0.5,0.4-0.7
		c0,0,0,0,0-0.1c0.1-0.1,0.1-0.2,0.2-0.3c0,0,0,0,0,0C11,4.8,11,4.7,11.1,4.6c0,0,0,0,0-0.1c0.1-0.1,0.1-0.2,0.2-0.3
		c0.8-1,1.5-1.6,1.5-1.6L8.6,5.6H6.2z"/>
	<path fill="#461D7C" d="M8.8,4.8l0.9-0.6c0,0,0,0,0,0L14.2,1H6.4L0.1,5.1h8.2L8.8,4.8z"/>
</g>
<g>
	<path fill="#461D7C" d="M6,18c0.4,0,0.7,0.1,0.9,0.3s0.3,0.5,0.3,0.9c0,0.3-0.1,0.6-0.2,0.8s-0.3,0.3-0.6,0.4v0
		c0.2,0,0.4,0.1,0.5,0.2s0.2,0.3,0.2,0.6c0,0.1,0,0.2,0,0.3c0,0.1,0,0.2,0,0.3c0,0.2,0,0.4,0,0.6c0,0.1,0.1,0.2,0.2,0.3v0h-1
		c0-0.1-0.1-0.1-0.1-0.2c0-0.1,0-0.2,0-0.3l0-0.9c0-0.2-0.1-0.3-0.1-0.4c-0.1-0.1-0.2-0.2-0.4-0.2H5.3v1.9H4.3V18H6z M5.6,20
		c0.2,0,0.4-0.1,0.5-0.2c0.1-0.1,0.2-0.3,0.2-0.5c0-0.4-0.2-0.6-0.6-0.6H5.3V20H5.6z"/>
	<path fill="#461D7C" d="M10.5,18.7H8.8v1.1h1.5v0.8H8.8v1.2h1.7v0.8H7.9V18h2.6V18.7z"/>
	<path fill="#461D7C" d="M12.9,18.8c-0.1-0.2-0.2-0.2-0.4-0.2c-0.1,0-0.2,0-0.3,0.1c-0.1,0.1-0.1,0.2-0.2,0.3s-0.1,0.3-0.1,0.5
		s0,0.5,0,0.8c0,0.3,0,0.6,0,0.8c0,0.2,0.1,0.4,0.1,0.5s0.1,0.2,0.2,0.2s0.2,0.1,0.3,0.1c0.1,0,0.2,0,0.2,0s0.1-0.1,0.2-0.2
		c0.1-0.1,0.1-0.2,0.1-0.4c0-0.2,0-0.4,0-0.6h0.9c0,0.2,0,0.5-0.1,0.7c0,0.2-0.1,0.4-0.2,0.6c-0.1,0.2-0.3,0.3-0.4,0.4
		c-0.2,0.1-0.4,0.1-0.7,0.1c-0.3,0-0.6-0.1-0.8-0.2c-0.2-0.1-0.4-0.3-0.5-0.5c-0.1-0.2-0.2-0.5-0.2-0.8s0-0.6,0-1c0-0.3,0-0.7,0-1
		c0-0.3,0.1-0.5,0.2-0.8c0.1-0.2,0.3-0.4,0.5-0.5c0.2-0.1,0.5-0.2,0.8-0.2c0.3,0,0.6,0.1,0.8,0.2s0.3,0.2,0.4,0.4
		c0.1,0.2,0.2,0.3,0.2,0.5s0,0.4,0,0.5H13C13,19.2,12.9,18.9,12.9,18.8z"/>
	<path fill="#461D7C" d="M17,18.7h-1.6v1.1h1.5v0.8h-1.5v1.2h1.7v0.8h-2.6V18H17V18.7z"/>
	<path fill="#461D7C" d="M19.8,21.1L19.8,21.1l0-3.2h0.9v4.6h-1.1l-1.1-3.2h0v3.2h-0.9V18h1.1L19.8,21.1z"/>
	<path fill="#461D7C" d="M24,18.7h-1v3.8H22v-3.8h-1V18H24V18.7z"/>
</g>
</svg>
