<?xml version="1.0" encoding="utf-8"?>
<!-- Generator: Adobe Illustrator 16.0.0, SVG Export Plug-In . SVG Version: 6.00 Build 0)  -->
<!DOCTYPE svg PUBLIC "-//W3C//DTD SVG 1.0//EN" "http://www.w3.org/TR/2001/REC-SVG-20010904/DTD/svg10.dtd">
<svg version="1.0" id="Layer_1" xmlns="http://www.w3.org/2000/svg" xmlns:xlink="http://www.w3.org/1999/xlink" x="0px" y="0px"
	 width="24px" height="24px" viewBox="0 0 24 24" enable-background="new 0 0 24 24" xml:space="preserve">
<g id="rect2889">
	<path fill="#FFFFFF" d="M1.597,22.908c-0.069,0-0.125-0.056-0.125-0.125V0.695c0-0.069,0.056-0.125,0.125-0.125h20.135
		c0.069,0,0.125,0.056,0.125,0.125v22.088c0,0.069-0.056,0.125-0.125,0.125H1.597z"/>
	<path fill="#150000" d="M21.732,0.695v22.088H1.597V0.695H21.732 M21.732,0.445H1.597c-0.138,0-0.25,0.112-0.25,0.25v22.088
		c0,0.138,0.112,0.25,0.25,0.25h20.135c0.138,0,0.25-0.112,0.25-0.25V0.695C21.982,0.557,21.87,0.445,21.732,0.445L21.732,0.445z"/>
</g>
<rect id="rect2916" x="2.319" y="1.314" opacity="0.5556" fill="#CCCCCC" enable-background="new    " width="18.691" height="18.822"/>
<rect id="rect2310" x="2.507" y="1.493" stroke="#000000" stroke-width="0.7824" stroke-linejoin="round" width="18.315" height="18.317"/>
<path id="rect3250" sodipodi:nodetypes="cczcc" opacity="0.1991" fill="#FFFFFF" enable-background="new    " d="M2.483,1.47h18.316
	c0,0-2.888,3.745-7.467,6.279c-4.578,2.536-10.849,3.862-10.849,3.862V1.47z"/>
</svg>
