<?xml version="1.0" encoding="utf-8"?>
<!-- Generator: Adobe Illustrator 16.0.0, SVG Export Plug-In . SVG Version: 6.00 Build 0)  -->
<!DOCTYPE svg PUBLIC "-//W3C//DTD SVG 1.1//EN" "http://www.w3.org/Graphics/SVG/1.1/DTD/svg11.dtd">
<svg version="1.1" id="Layer_1" xmlns="http://www.w3.org/2000/svg" xmlns:xlink="http://www.w3.org/1999/xlink" x="0px" y="0px"
	 width="24px" height="24px" viewBox="0 0 24 24" enable-background="new 0 0 24 24" xml:space="preserve">
<g>
	
		<radialGradient id="SVGID_1_" cx="183.5088" cy="-258.4077" r="7.5438" gradientTransform="matrix(2.203 0.1997 0.067 -0.8175 -383.4297 -235.7876)" gradientUnits="userSpaceOnUse">
		<stop  offset="0" style="stop-color:#FFFFFF"/>
		<stop  offset="1" style="stop-color:#FFFFFF;stop-opacity:0"/>
	</radialGradient>
	<path fill="url(#SVGID_1_)" enable-background="new    " d="M3.5,12.086l15.542,1.409l-0.292,3.565
		c-8.065-2.305-13.315-0.323-15.834,2.154L3.5,12.086z"/>
	<path fill="#EEEEEC" stroke="#888A85" d="M2.335,9.959L20.418,11.6c0.266,0.024,0.468,0.241,0.448,0.482L20.02,22.409
		c-0.021,0.242-0.252,0.418-0.521,0.396L1.416,21.163c-0.267-0.026-0.467-0.241-0.448-0.482l0.848-10.327
		C1.835,10.112,2.067,9.936,2.335,9.959z"/>
	<polygon fill="none" stroke="#FFFFFF" points="2.31,10.471 20.357,12.106 19.524,22.293 1.476,20.657 	"/>
	
		<linearGradient id="SVGID_2_" gradientUnits="userSpaceOnUse" x1="389.2061" y1="-186.3301" x2="389.2061" y2="-191.6382" gradientTransform="matrix(0.9963 0.086 0.086 -0.9963 -360.5283 -206.2148)">
		<stop  offset="0" style="stop-color:#729FCF"/>
		<stop  offset="1" style="stop-color:#FFFFFF"/>
	</linearGradient>
	<polygon fill="url(#SVGID_2_)" stroke="#729FCF" points="3.229,11.579 19.272,13.035 18.604,21.183 2.561,19.728 	"/>
	
		<linearGradient id="SVGID_3_" gradientUnits="userSpaceOnUse" x1="429.2598" y1="-192.501" x2="429.0026" y2="-189.0932" gradientTransform="matrix(0.9963 0.086 0.086 -0.9963 -400.3799 -209.6562)">
		<stop  offset="0" style="stop-color:#73D216"/>
		<stop  offset="1" style="stop-color:#73D216;stop-opacity:0"/>
	</linearGradient>
	
		<linearGradient id="SVGID_4_" gradientUnits="userSpaceOnUse" x1="429.5566" y1="-194.1836" x2="429.0658" y2="-190.8878" gradientTransform="matrix(0.9963 0.086 0.086 -0.9963 -400.3799 -209.6562)">
		<stop  offset="0" style="stop-color:#4E9A06"/>
		<stop  offset="1" style="stop-color:#4E9A06;stop-opacity:0"/>
	</linearGradient>
	<path fill="url(#SVGID_3_)" stroke="url(#SVGID_4_)" d="M2.768,17.217c4.161-0.795,10.123-0.461,16.167-0.076l-0.331,4.042
		L2.561,19.728L2.768,17.217z"/>
</g>
<g>
	<path fill="#EEEEEC" stroke="#888A85" d="M3.941,1.173l17.717,3.973c0.264,0.059,0.43,0.297,0.375,0.533l-2.357,10.091
		c-0.055,0.237-0.311,0.38-0.572,0.322L1.384,12.119c-0.261-0.059-0.429-0.298-0.374-0.534L3.367,1.494
		C3.422,1.258,3.679,1.114,3.941,1.173z"/>
	<polygon fill="none" stroke="#FFFFFF" points="3.842,1.674 21.525,5.64 19.201,15.59 1.519,11.625 	"/>
	
		<linearGradient id="SVGID_5_" gradientUnits="userSpaceOnUse" x1="196.8203" y1="-341.9438" x2="196.8203" y2="-347.0974" gradientTransform="matrix(0.9748 0.2231 0.2231 -0.9748 -103.291 -371.875)">
		<stop  offset="0" style="stop-color:#729FCF"/>
		<stop  offset="1" style="stop-color:#FFFFFF"/>
	</linearGradient>
	<polygon fill="url(#SVGID_5_)" stroke="#729FCF" points="4.591,2.89 20.311,6.415 18.451,14.376 2.732,10.851 	"/>
	
		<linearGradient id="SVGID_6_" gradientUnits="userSpaceOnUse" x1="196.9316" y1="-351.9365" x2="196.9316" y2="-345.939" gradientTransform="matrix(0.9748 0.2231 0.2231 -0.9748 -103.291 -371.875)">
		<stop  offset="0" style="stop-color:#E9B96E"/>
		<stop  offset="1" style="stop-color:#653F01"/>
	</linearGradient>
	
		<linearGradient id="SVGID_7_" gradientUnits="userSpaceOnUse" x1="196.8789" y1="-349.2173" x2="196.8789" y2="-348.5516" gradientTransform="matrix(0.9748 0.2231 0.2231 -0.9748 -103.291 -371.875)">
		<stop  offset="0" style="stop-color:#8F5902"/>
		<stop  offset="1" style="stop-color:#8F5902;stop-opacity:0"/>
	</linearGradient>
	<path fill="url(#SVGID_6_)" stroke="url(#SVGID_7_)" d="M2.979,10.904c1.578-3.572,2.497-1.952,4.34-4.884
		c0.555,0.529,0.853,0.332,1.25,0.87c0.35,0.733,0.347,1.77,0.388,2.769c1.956-1.95,1.581,1.108,3.254,1.974
		c2.036-0.282,3.272-4.47,4.139-3.751c0.49-0.29,1.416-2.604,1.461-0.72c0.025,2.1,0.84,4.511,0.814,6.466l-0.174,0.747
		L2.979,10.904z"/>
	
		<radialGradient id="SVGID_8_" cx="93.6211" cy="-457.2935" r="7.5433" gradientTransform="matrix(2.1585 0.4841 0.1865 -0.7987 -112.0098 -407.334)" gradientUnits="userSpaceOnUse">
		<stop  offset="0" style="stop-color:#FFFFFF"/>
		<stop  offset="1" style="stop-color:#FFFFFF;stop-opacity:0"/>
	</radialGradient>
	<path fill="url(#SVGID_8_)" enable-background="new    " d="M4.78,3.193l15.226,3.415l-0.812,3.483
		c-7.67-3.327-13.176-2.055-16.041,0.067L4.78,3.193z"/>
</g>
<g>
	
		<linearGradient id="SVGID_9_" gradientUnits="userSpaceOnUse" x1="264.7617" y1="-290.5557" x2="254.2786" y2="-266.7419" gradientTransform="matrix(0.9946 -0.1039 -0.1039 -0.9946 -274.2554 -236.6719)">
		<stop  offset="0" style="stop-color:#D3D7CF"/>
		<stop  offset="1" style="stop-color:#EEEEEC"/>
	</linearGradient>
	<path fill="url(#SVGID_9_)" stroke="#888A85" d="M2,6.7l18.033-1.917c0.268-0.029,0.504,0.144,0.529,0.385l1.061,10.319
		c0.024,0.24-0.174,0.46-0.441,0.488L3.15,17.893c-0.269,0.029-0.505-0.144-0.53-0.386L1.56,7.189C1.535,6.948,1.732,6.729,2,6.7z"
		/>
	<polygon fill="none" stroke="#FFFFFF" points="2.067,7.208 20.07,5.293 21.114,15.469 3.113,17.382 	"/>
	
		<linearGradient id="SVGID_10_" gradientUnits="userSpaceOnUse" x1="258.5205" y1="-272.4521" x2="258.5205" y2="-277.4768" gradientTransform="matrix(0.9946 -0.1039 -0.1039 -0.9946 -274.2554 -236.6719)">
		<stop  offset="0" style="stop-color:#F57900"/>
		<stop  offset="1" style="stop-color:#FCE94F"/>
	</linearGradient>
	<polygon fill="url(#SVGID_10_)" stroke="#F57900" points="3.171,8.118 19.175,6.417 20.01,14.558 4.008,16.259 	"/>
	
		<radialGradient id="SVGID_11_" cx="261.5059" cy="-275.0103" r="1.9475" gradientTransform="matrix(1.0274 -0.1092 -0.1074 -1.0453 -288.2295 -246.0947)" gradientUnits="userSpaceOnUse">
		<stop  offset="0" style="stop-color:#FFFFFF"/>
		<stop  offset="0.81" style="stop-color:#FFFFFF"/>
		<stop  offset="0.84" style="stop-color:#FDF4A7"/>
		<stop  offset="1" style="stop-color:#FCE94F;stop-opacity:0"/>
	</radialGradient>
	<polygon fill="url(#SVGID_11_)" points="7.762,10.974 11.763,10.548 12.181,14.619 8.18,15.044 	"/>
	<path stroke="#000000" d="M3.981,16.005c0.784-1.058,1.257-1.226,3.458-2.328c1.368,0.932,2.986,1.354,4.364,0.339
		c1.7-1.419,2.979-0.218,4.582-1.838c0.846,0.371,1.475,0.797,3.494,1.107l0.13,1.272L4.008,16.259L3.981,16.005z"/>
	
		<radialGradient id="SVGID_12_" cx="102.5615" cy="-321.3931" r="7.5438" gradientTransform="matrix(2.654 -0.2822 -0.1013 -0.9863 -301.5938 -278.0664)" gradientUnits="userSpaceOnUse">
		<stop  offset="0" style="stop-color:#FFFFFF"/>
		<stop  offset="1" style="stop-color:#FFFFFF;stop-opacity:0"/>
	</radialGradient>
	<path fill="url(#SVGID_12_)" enable-background="new    " d="M3.448,8.346L18.95,6.698l0.365,3.562
		c-8.332-0.693-13.12,2.28-15.136,5.209L3.448,8.346z"/>
</g>
</svg>
