<?xml version="1.0" encoding="utf-8"?>
<!-- Generator: Adobe Illustrator 16.0.0, SVG Export Plug-In . SVG Version: 6.00 Build 0)  -->
<!DOCTYPE svg PUBLIC "-//W3C//DTD SVG 1.1//EN" "http://www.w3.org/Graphics/SVG/1.1/DTD/svg11.dtd">
<svg version="1.1" id="Layer_1" xmlns="http://www.w3.org/2000/svg" xmlns:xlink="http://www.w3.org/1999/xlink" x="0px" y="0px"
	 width="24px" height="24px" viewBox="0 0 24 24" enable-background="new 0 0 24 24" xml:space="preserve">
<g>
	<g>
		<path id="_43077240" fill="#FFFFFF" stroke="#666666" stroke-width="0.1101" d="M2.1,5c0.6,4.9,1.5,10.5-0.8,18.6
			c7.5-1.4,12.2-1.1,19.4-0.2c1.2-7.2,1.4-14.6,0.2-22.3C17,0.3,10.9,0.2,5.1,0.9L2.1,5L2.1,5z"/>
		<path id="_43075032" fill="#EEEEEE" stroke="#FFFFFF" stroke-width="0.1064" d="M4.7,1.3c5.8-0.7,12-0.7,15.9,0.2
			c1.1,7.4,0.9,14.6-0.2,21.5c-7-0.8-11.2-1.3-18.4,0C4.3,14.7,3,9.2,2.3,4.4L4.7,1.3L4.7,1.3z"/>
		<path id="_201469304" fill="#EEEEEE" stroke="#FFFFFF" stroke-width="0.1411" d="M4.9,0.8C5,1.9,5.3,3.3,5.4,4.3
			C4.3,4.5,3.1,4.7,1.9,4.9L4.9,0.8L4.9,0.8z"/>
	</g>
	<path id="_43075416" fill="none" stroke="#666666" stroke-width="0.1101" d="M5.1,0.9c0.1,1.3,0.3,2.5,0.6,3.6
		C4.5,4.6,3.3,4.8,2.1,5"/>
</g>
<g>
	<path id="path2193" fill="#FCF9EA" d="M6.1,10.1c0-2.3,0.1-4.6,0.1-6.9c4.2,0,8.4,0,12.6,0c-0.1,4.6-0.2,9.2-0.2,13.8
		c-4.2,0-8.4,0-12.6,0C6,14.7,6.1,12.4,6.1,10.1L6.1,10.1z"/>
	<path id="path2185" fill="#F4A256" d="M6.1,10.1c0-2.3,0.1-4.6,0.1-6.9c2.9,0,5.9,0,8.8,0c0.6,0.1,1.3-0.1,1.9,0c0.6,0,1.3,0,1.9,0
		c-0.1,4.6-0.2,9.2-0.2,13.8c-1.1,0-2.3,0-3.4,0c-0.3,0-0.6,0-0.8-0.1c0,0.4-0.5-0.1-0.7-0.1c0.3-0.4-0.3-0.7-0.5-0.4
		c-0.2,0.1-0.9,0.3-0.5-0.1c-0.2-0.1-0.6,0.2-0.4-0.3c-0.3-0.3-1.1,0.2-0.6,0.3c0.6-0.5,0.8,0.7,1.4,0.6c0.4,0.2-0.6,0-0.7-0.1
		c-0.5,0.3-1.3,0.1-1.9,0.2c-1.5,0-2.9,0-4.3,0C6,14.7,6.1,12.4,6.1,10.1L6.1,10.1z M11.7,16.6C11.5,16.4,11.6,16.8,11.7,16.6z
		 M14.4,16.5C14.5,16,13.9,16.7,14.4,16.5z M13.7,16c0.3,0,0.7-0.2,0.1-0.3c-0.4-0.2-1,0.4-1.2-0.1c0.4-0.2,1.1-0.1,1.2-0.6
		c0.3-0.1-1.1,0-0.5-0.3c0.5,0-0.1-0.7,0.5-0.5c0.5-0.1-0.5-0.6,0.2-0.9c-0.1-0.2-0.8,0-0.3-0.3c0.3-0.1,0.7-0.2,0.1-0.4
		c-0.3-0.2-0.9-0.2-1.4,0c-0.3,0.1-0.9,0.5-0.2,0.4c0.5,0-0.4,0.2,0,0.5c-0.5,0.6,0.5,0.7,0.6,0.8c-0.2,0-1.2,0.1-0.6,0.3
		c0.6,0.1,0.2,0.4-0.2,0.3c-0.6,0.1,0.5,0.4,0.6,0.3c0.5,0.3-0.9,0-0.3,0.3c0.5-0.1-0.3,0.5,0.3,0.3C12.9,16.1,13.3,16.1,13.7,16
		L13.7,16z M13.2,15.3c-0.1-0.3,0.8-0.1,0.1,0.1L13.2,15.3L13.2,15.3L13.2,15.3L13.2,15.3z M14.3,14.6
		C14.1,14.5,14.3,14.9,14.3,14.6z M11.7,14.1C11.4,13.9,11.6,14.3,11.7,14.1z M11.9,13.8C11.7,13.6,11.7,14.1,11.9,13.8z M11.9,13.4
		C11.7,13.2,11.7,13.6,11.9,13.4z M14.2,13.4C14.1,13.2,14,13.6,14.2,13.4z M12.2,12.4C12,12.1,12.1,12.5,12.2,12.4z M13.3,12.2
		c0.3-0.3-0.3-0.2-0.4-0.3c0,0.6-0.5-0.3-0.6,0.1C12.5,12.3,13,12.3,13.3,12.2z M13.6,12.1C13.4,11.9,13.3,12.3,13.6,12.1z M13,11.6
		c0.4,0.1,0.8-0.2,0.2-0.2c-0.2-0.1-1.1,0.1-0.7,0.2C12.7,11.6,12.8,11.6,13,11.6z M13.3,7.5c0.2-0.8,0.2,0.6,0.6,0.1
		c0.5-0.4,1-1,1.2-1.6c0-0.8-0.2-1.7-0.9-2.2c-0.2-0.1-0.4-0.4-0.7-0.4c-0.6,0-1.2,0-1.6,0.3c-0.6,0.3-1.1,0.8-1.4,1.4
		c0,0.6,0,1.2,0.4,1.8c0.1,0.5,1,1.2,1.1,0.5c0.1,0.3,0.8-0.1,1,0.4C13.2,7.8,13.3,7.6,13.3,7.5L13.3,7.5z M13.3,16.7
		C13.5,16.5,13.3,16.9,13.3,16.7z"/>
	<path id="path2167" fill="#6E0702" d="M6.1,12.5c0-1.5,0.1-3,0.1-4.5c0.6,0.2,1.3,0,2,0c0.2,0,0.5-0.1,0.7,0C9.1,8.3,9.3,8.6,9.4,9
		c0.4,0.4,1.1,0.1,1.4,0.5c0.4,0.4,1.1,0.5,1.6,0.5c0.5,0.1,1.2,0.1,1.5-0.4c0.4-0.2,0.7-0.6,1.2-0.8c0.6-0.3,1.2-0.4,1.8-0.6
		c0.5-0.1,1.1,0.2,1.6-0.1c0.4,0.4,0.1,1,0.2,1.5c0,2.4-0.1,4.9-0.1,7.3c-1.1,0-2.1,0-3.2,0c0.4,0,0.4-0.2,0-0.3
		c-0.4-0.1-0.3-0.1,0.1-0.1c0.2-0.1-0.2-0.4,0.1-0.6c0.2-0.2-0.3-0.4,0.1-0.5c0.3-0.1-0.7,0-0.3-0.3c0.3-0.1,0.6-0.1,0.6-0.5
		c0.2-0.1,0.7-0.1,0.3-0.3c-0.3-0.2-1.3,0.2-1.1-0.4c0-0.2,0.4-0.4,0.3-0.5c0.4,0.1,0.3-0.5,0.8-0.5c0.2-0.5-1-0.1-0.5-0.5
		c-0.2,0-0.7-0.1-0.5-0.3c0.3,0.1,0.3-0.3,0.1-0.4c0.2-0.2,0.5-0.7-0.1-0.5c-0.3,0-0.5-0.1-0.3-0.3c-0.8-0.1-1.6-0.1-2.4,0
		c-0.6,0.1-1.3,0.2-1.9,0.2c-0.4,0.1-0.7,0.5-1,0.7c0.2,0,0.6,0.3,0.1,0.2c-0.2-0.1-0.5,0.2-0.1,0.1c0.2,0,0.7,0.2,0.3,0.3
		c0,0.4-0.4-0.1-0.3,0.3c-0.2,0.3-0.7,0.5-1.1,0.4c-0.3,0,0.7,0.3,0.4,0.4c-0.2,0.1-0.4,0.6,0,0.5c0.4,0.1,0.8,0.3,1.1,0.3
		c-0.2,0.1-1.1-0.1-0.6,0.3c0.2,0.1,1,0.2,0.5,0.4c0.2,0,0.8,0.1,0.3,0.2c-0.5,0.2,0.6,0.2,0.1,0.4c-0.1,0.4-0.7,0-0.5,0.5
		c0.2,0.2,0.5,0.5,0.1,0.5c-1.4,0-2.8,0-4.1,0C6,15.5,6,14,6.1,12.5L6.1,12.5z M10.1,16.9C9.7,16.9,10,17,10.1,16.9z M9.9,16.3
		c0-0.6-0.5,0.5,0,0.1L9.9,16.3L9.9,16.3z M9.3,16.3C9.1,16.1,9,16.5,9.3,16.3z M16,16.2C15.5,16,15.8,16.4,16,16.2z M10.3,15.7
		C9.8,15.3,10.7,16.2,10.3,15.7z M9.8,15.5C9.8,14.8,9.2,15.9,9.8,15.5z M9.5,12.9c0.4-0.4-0.6,0.1-0.1,0.1L9.5,12.9L9.5,12.9
		L9.5,12.9z M10.8,16.8C11,16.6,11,17.1,10.8,16.8z M14.5,15.6C14.8,15.6,14.5,15.7,14.5,15.6L14.5,15.6z M15,15.6
		C15.8,15.5,14.6,15.7,15,15.6z M15.5,14.8C15.8,14.5,15.9,15.1,15.5,14.8z M9.9,14.3C10,14,10.1,14.4,9.9,14.3z M15,14
		C15.2,13.6,15.1,14.1,15,14z M9.4,13.9C9.6,13.7,9.5,14.1,9.4,13.9z M14.9,13.6C15.1,13.5,14.8,13.7,14.9,13.6L14.9,13.6z"/>
</g>
</svg>
