<?xml version="1.0" encoding="utf-8"?>
<!-- Generator: Adobe Illustrator 16.0.0, SVG Export Plug-In . SVG Version: 6.00 Build 0)  -->
<!DOCTYPE svg PUBLIC "-//W3C//DTD SVG 1.1//EN" "http://www.w3.org/Graphics/SVG/1.1/DTD/svg11.dtd">
<svg version="1.1" id="Layer_1" xmlns="http://www.w3.org/2000/svg" xmlns:xlink="http://www.w3.org/1999/xlink" x="0px" y="0px"
	 width="16px" height="16px" viewBox="0 0 16 16" enable-background="new 0 0 16 16" xml:space="preserve">
<g>
	<rect x="1.5" y="1.5" fill="#D89E42" width="13" height="14"/>
	<path fill="#714C16" d="M14,2v13H2V2H14 M15,1H1v15h14V1L15,1z"/>
</g>
<rect x="6" fill="#717171" width="4" height="2"/>
<rect x="3" y="2" fill="#888A85" width="10" height="12"/>
<polygon fill="#5C5C5C" points="8.948,1 8.948,0 7,0 7,1 5,1 5,2 11,2 11,1 "/>
<rect x="4" y="2" fill="#F0F0EF" width="8" height="12"/>
<rect x="4" y="2" fill="#5C5C5C" width="8" height="1"/>
<rect x="4" y="3" fill="#A3A3A1" width="8" height="1"/>
<rect x="5" y="2" fill="#B8B8AF" width="6" height="1"/>
<rect x="5" y="4.978" fill="#C7C7C6" width="6" height="1"/>
<rect x="5" y="6.974" fill="#C7C7C6" width="6" height="1"/>
<rect x="5" y="9" fill="#C7C7C6" width="6" height="1"/>
<rect x="5" y="11" fill="#C7C7C6" width="3.948" height="1"/>
<rect x="5" y="3" fill="#5C5C5C" width="6" height="1"/>
</svg>
