<?xml version="1.0" encoding="utf-8"?>
<!-- Generator: Adobe Illustrator 16.0.0, SVG Export Plug-In . SVG Version: 6.00 Build 0)  -->
<!DOCTYPE svg PUBLIC "-//W3C//DTD SVG 1.1//EN" "http://www.w3.org/Graphics/SVG/1.1/DTD/svg11.dtd">
<svg version="1.1" id="Layer_1" xmlns="http://www.w3.org/2000/svg" xmlns:xlink="http://www.w3.org/1999/xlink" x="0px" y="0px"
	 width="24px" height="24px" viewBox="0 0 24 24" enable-background="new 0 0 24 24" xml:space="preserve">
<g>
	<g>
		<polygon fill="#E7B25E" points="0.717,17.918 0.717,2.15 2.15,2.15 2.15,0.717 15.051,0.717 15.051,2.15 16.484,2.15 
			16.484,17.918 		"/>
		<g>
			<path fill="#94610D" d="M14.334,1.433v1.434h1.434v14.334H1.434V2.867h1.433V1.433H14.334 M15.768,0H1.434v1.433H0v17.202h17.201
				V1.433h-1.434V0L15.768,0z"/>
		</g>
	</g>
	<g>
		<rect x="5.017" y="5.017" fill="#E7B25E" width="7.168" height="2.807"/>
		<path fill="#94610D" d="M11.468,5.733v1.374H5.733V5.733H11.468 M12.901,4.3H4.3v4.24h8.601V4.3L12.901,4.3z"/>
	</g>
	<g>
		<rect x="5.017" y="10.75" fill="#E7B25E" width="7.168" height="2.808"/>
		<path fill="#94610D" d="M11.468,11.467v1.374H5.733v-1.374H11.468 M12.901,10.034H4.3v4.24h8.601V10.034L12.901,10.034z"/>
	</g>
</g>
<g>
	<g>
		<rect x="13.25" y="9.379" fill="#FDFDFD" width="10.033" height="12.901"/>
		<g>
			<path fill="#919191" d="M22.566,10.095v11.468h-8.602V10.095H22.566 M24,8.662H12.532v14.334H24V8.662L24,8.662z"/>
		</g>
	</g>
	<rect x="15.43" y="11.529" fill="#F0F0F0" width="5.676" height="8.541"/>
	<rect x="16.832" y="12.962" fill="#B5B6B3" width="2.867" height="1.375"/>
	<rect x="16.832" y="15.829" fill="#B5B6B3" width="2.867" height="1.375"/>
	<rect x="16.832" y="18.696" fill="#B5B6B3" width="2.867" height="1.374"/>
</g>
<g>
	<g>
		<g>
			<g>
				<g>
					<rect x="5.017" y="14.559" fill="#FDFDFD" width="10.034" height="12.9"/>
					<g>
						<path fill="#919191" d="M14.334,15.275v11.467H5.733V15.275H14.334 M15.768,13.842H4.3v14.334h11.467V13.842L15.768,13.842z"
							/>
					</g>
				</g>
				<rect x="7.198" y="16.709" fill="#F0F0F0" width="5.674" height="8.541"/>
				<rect x="8.601" y="18.143" fill="#B5B6B3" width="2.867" height="1.375"/>
				<rect x="8.601" y="21.01" fill="#B5B6B3" width="2.867" height="1.373"/>
			</g>
		</g>
	</g>
</g>
</svg>
