<?xml version="1.0" encoding="utf-8"?>
<!-- Generator: Adobe Illustrator 16.0.0, SVG Export Plug-In . SVG Version: 6.00 Build 0)  -->
<!DOCTYPE svg PUBLIC "-//W3C//DTD SVG 1.1//EN" "http://www.w3.org/Graphics/SVG/1.1/DTD/svg11.dtd">
<svg version="1.1" id="Layer_1" xmlns="http://www.w3.org/2000/svg" xmlns:xlink="http://www.w3.org/1999/xlink" x="0px" y="0px"
	 width="24px" height="24px" viewBox="0 0 24 24" enable-background="new 0 0 24 24" xml:space="preserve">
<path id="rect1942" fill="#E6E6E6" d="M20,0.2H3.8c-1.9,0-3.5,1.6-3.5,3.5v16.4c0,2,1.6,3.5,3.5,3.5H20c1.9,0,3.5-1.6,3.7-3.5V3.9
	C23.6,1.8,22,0.2,20,0.2z"/>
<path id="path4776" fill="#0059D4" d="M10.9,12c0,2.2-1.6,4-3.7,4s-3.7-1.8-3.7-4c0-2.2,1.6-4,3.7-4C9.3,8,10.9,9.8,10.9,12z"/>
<path id="path4778" fill="#DA1593" d="M20.4,11.9c0,2.2-1.7,4-3.8,4c-2.1,0-3.8-1.8-3.8-4s1.7-4,3.8-4C18.7,8,20.4,9.7,20.4,11.9z"
	/>
<g>
	
		<linearGradient id="SVGID_1_" gradientUnits="userSpaceOnUse" x1="280.5" y1="774" x2="280.5" y2="784.7519" gradientTransform="matrix(1 0 0 1 -268.5 -761)">
		<stop  offset="0" style="stop-color:#000000;stop-opacity:0.15"/>
		<stop  offset="0.6626" style="stop-color:#000000;stop-opacity:0"/>
	</linearGradient>
	<path fill="url(#SVGID_1_)" d="M0.2,10.7v9.5c0,2,1.6,3.5,3.5,3.5H20c1.9,0,3.5-1.6,3.7-3.5v-9.6c-3.6,1.5-7.6,2.4-11.8,2.4
		C7.8,13,3.9,12.2,0.2,10.7z"/>
</g>
<linearGradient id="SVGID_2_" gradientUnits="userSpaceOnUse" x1="280.5" y1="761.3164" x2="280.5" y2="774.0792" gradientTransform="matrix(1 0 0 1 -268.5 -761)">
	<stop  offset="0" style="stop-color:#FFFFFF;stop-opacity:0.85"/>
	<stop  offset="0.66" style="stop-color:#FFFFFF;stop-opacity:0"/>
</linearGradient>
<path fill="url(#SVGID_2_)" d="M20,0.2H3.8c-1.9,0-3.5,1.6-3.5,3.5v6.9C3.9,12.2,7.8,13,11.9,13c4.2,0,8.2-0.8,11.8-2.4V3.9
	C23.6,1.8,22,0.2,20,0.2z"/>
<path fill="none" stroke="#E6E6E6" stroke-width="0.1992" stroke-miterlimit="10" d="M23.8,10.7V3.9c-0.2-2-1.8-3.6-3.7-3.6H3.8
	c-1.9,0-3.5,1.6-3.5,3.5v6.9"/>
<g>
	<g>
		<g>
			<path fill="none" stroke="#B8B8B8" stroke-width="0.1992" stroke-miterlimit="10" d="M0.2,10.7v9.5c0,2,1.6,3.5,3.5,3.5H20
				c1.9,0,3.5-1.6,3.7-3.5v-9.6"/>
		</g>
	</g>
</g>
</svg>
