<?xml version="1.0" encoding="utf-8"?>
<!-- Generator: Adobe Illustrator 16.0.0, SVG Export Plug-In . SVG Version: 6.00 Build 0)  -->
<!DOCTYPE svg PUBLIC "-//W3C//DTD SVG 1.1//EN" "http://www.w3.org/Graphics/SVG/1.1/DTD/svg11.dtd">
<svg version="1.1" id="Layer_1" xmlns="http://www.w3.org/2000/svg" xmlns:xlink="http://www.w3.org/1999/xlink" x="0px" y="0px"
	 width="16px" height="16px" viewBox="0 0 16 16" enable-background="new 0 0 16 16" xml:space="preserve">
<title>Layer 1</title>
<g id="svg_1">
</g>
<g id="svg_2">
	<g id="path15995">
		<path fill="#FFD700" d="M5.733,4.231c0.199-0.208,0.315-0.438,0.414-0.6c0.154-0.254,0.25-0.446,0.245-0.645
			c-0.006-0.222-0.106-0.428-0.163-0.68C6.08,2.164,6.088,1.988,6.157,1.717c0.04-0.159,0.095-0.354,0.166-0.596
			c0.051-0.176,0.107-0.355,0.16-0.588C6.328,0.729,6.16,0.863,6.005,1.019c-0.17,0.172-0.338,0.333-0.464,0.518
			c-0.124,0.18-0.227,0.391-0.265,0.645C5.248,2.376,5.314,2.6,5.357,2.869C5.39,3.066,5.435,3.285,5.515,3.536
			C5.579,3.734,5.634,3.993,5.733,4.231z"/>
		<path opacity="0.5038" fill="none" stroke="#FFFF00" stroke-width="0.1" stroke-linecap="round" stroke-linejoin="round" d="
			M5.733,4.231c0.199-0.208,0.315-0.438,0.414-0.6c0.154-0.254,0.25-0.446,0.245-0.645c-0.006-0.222-0.106-0.428-0.163-0.68
			C6.08,2.164,6.088,1.988,6.157,1.717c0.04-0.159,0.095-0.354,0.166-0.596c0.051-0.176,0.107-0.355,0.16-0.588
			C6.328,0.729,6.16,0.863,6.005,1.019c-0.17,0.172-0.338,0.333-0.464,0.518c-0.124,0.18-0.227,0.391-0.265,0.645
			C5.248,2.376,5.314,2.6,5.357,2.869C5.39,3.066,5.435,3.285,5.515,3.536C5.579,3.734,5.634,3.993,5.733,4.231z"/>
	</g>
	
		<linearGradient id="path28564_1_" gradientUnits="userSpaceOnUse" x1="4.1226" y1="14.251" x2="4.1503" y2="14.251" gradientTransform="matrix(43.2187 0 0 -135.1424 -173.0312 1928.125)">
		<stop  offset="0" style="stop-color:#FFFFFF;stop-opacity:0.4493"/>
		<stop  offset="1" style="stop-color:#FFFFFF;stop-opacity:0"/>
	</linearGradient>
	<path id="path28564" fill="url(#path28564_1_)" d="M6.282,0.322C5.78,0.919,5.02,1.47,5.059,2.296
		C5.055,2.983,5.353,3.625,5.575,4.271C6.03,3.798,6.513,3.198,6.31,2.533c0.001-0.263-0.2-0.467-0.206-0.717
		c0.11-0.586,0.338-1.154,0.43-1.746C6.45,0.154,6.366,0.238,6.282,0.322z"/>
	<g id="path15991">
		
			<linearGradient id="SVGID_1_" gradientUnits="userSpaceOnUse" x1="1.6738" y1="16.25" x2="1.6812" y2="16.2709" gradientTransform="matrix(328.1232 0 0 -505.132 -541.75 8224.75)">
			<stop  offset="0" style="stop-color:#DC0000"/>
			<stop  offset="1" style="stop-color:#FFB200"/>
		</linearGradient>
		<path fill="url(#SVGID_1_)" d="M2.167,11.158c0.084,0.226,0.076,0.615,0.168,0.824c0.097,0.22,0.349,0.362,0.456,0.563
			c0.113,0.211,0.331,0.344,0.456,0.535c0.131,0.199,0.24,0.39,0.385,0.566c0.151,0.184,0.265,0.378,0.433,0.536
			c0.17,0.161,0.318,0.337,0.507,0.473c0.188,0.135,0.311,0.391,0.519,0.5c0.203,0.106,0.495,0.034,0.718,0.116
			c0.213,0.078,0.388,0.308,0.62,0.364c0.22,0.054,0.464,0.061,0.703,0.094c0.225,0.032,0.448,0.098,0.69,0.111
			c0.229,0.066,0.467,0.052,0.692,0.09c0.235,0.041,0.479-0.075,0.708-0.063c0.239,0.012,0.457-0.026,0.685-0.045
			c0.238-0.019,0.503,0.188,0.726,0.139c0.233-0.053,0.442-0.203,0.654-0.287c0.222-0.088,0.438-0.187,0.633-0.307
			c0.201-0.125,0.375-0.29,0.542-0.447c0.172-0.161,0.345-0.326,0.473-0.519c0.129-0.192,0.221-0.415,0.301-0.636
			c0.078-0.214,0.064-0.451,0.092-0.688c0.025-0.223-0.002-0.441-0.025-0.684c-0.021-0.221,0.028-0.508-0.038-0.743
			c-0.118,0.197-0.142,0.484-0.249,0.63c-0.129,0.175-0.325,0.289-0.488,0.401c-0.151,0.104-0.414,0.203-0.639,0.265
			c0.039-0.249,0.245-0.551,0.213-0.748c-0.039-0.235-0.259-0.421-0.354-0.611c-0.101-0.203-0.141-0.436-0.247-0.626
			c-0.107-0.193-0.243-0.353-0.296-0.573c-0.048-0.195-0.087-0.395-0.046-0.642c0.032-0.189,0.111-0.384,0.218-0.618
			c0.117-0.227,0.227-0.468,0.315-0.712s0.162-0.501,0.203-0.754c0.041-0.256,0.04-0.524,0.013-0.78
			c-0.026-0.251-0.119-0.498-0.231-0.741c-0.101-0.22-0.256-0.53-0.442-0.736c-0.081,0.245-0.082,0.599-0.173,0.816
			c-0.097,0.233-0.234,0.444-0.35,0.653c-0.118,0.214-0.36,0.344-0.506,0.543c-0.141,0.192-0.248,0.408-0.421,0.595
			C9.623,8.185,9.538,8.241,9.347,8.416c0.018-0.248,0.115-0.321,0.164-0.557c0.05-0.241,0.022-0.493,0.086-0.725
			c0.065-0.237,0.247-0.443,0.306-0.676c0.06-0.239,0.049-0.502,0.079-0.741c0.03-0.24-0.151-0.482-0.174-0.728
			c-0.021-0.232,0.054-0.48-0.036-0.721c0.021-0.271-0.014-0.557-0.198-0.76C9.429,3.348,9.101,3.312,8.91,3.102
			C8.76,2.935,8.758,2.643,8.622,2.399C8.512,2.204,8.304,2.038,8.225,1.769c-0.064-0.216,0.009-0.474-0.025-0.75
			C8.171,0.791,8.078,0.476,8.077,0.2C7.922,0.377,7.828,0.703,7.697,0.872C7.555,1.057,7.306,1.15,7.193,1.333
			c-0.12,0.194-0.187,0.41-0.274,0.612c-0.088,0.203-0.094,0.426-0.15,0.646C6.717,2.799,6.486,2.983,6.463,3.214
			c-0.022,0.21,0.201,0.444,0.203,0.681c0.002,0.211-0.017,0.443,0.003,0.681c-0.063,0.24-0.144,0.485-0.228,0.688
			C6.347,5.488,6.037,5.595,5.933,5.792c-0.112,0.21,0.008,0.531-0.095,0.733c-0.105,0.206-0.426,0.318-0.5,0.541
			C5.27,7.274,5.212,7.522,5.19,7.768C5.17,7.979,5.245,8.209,5.272,8.463c-0.035-0.215,0.022-0.42-0.005-0.623
			C5.239,7.623,5.235,7.414,5.223,7.211c-0.014-0.218,0.06-0.414,0.075-0.615c0.016-0.216-0.121-0.434-0.061-0.63
			C5.205,5.739,5.117,5.543,5.07,5.333C5.021,5.113,5.024,4.895,4.927,4.694C4.835,4.505,4.759,4.293,4.596,4.121
			C4.458,3.974,4.3,3.917,4.091,3.783c0.056,0.206,0.228,0.336,0.278,0.569c0.047,0.223,0.004,0.477,0.029,0.703
			c0.026,0.237,0.076,0.485,0.06,0.702C4.438,6.003,4.274,6.215,4.174,6.403c-0.106,0.2-0.255,0.366-0.485,0.459
			C3.622,6.988,3.622,7.251,3.482,7.518C3.39,7.695,3.133,7.823,3.049,8.06c-0.07,0.197-0.251,0.398-0.294,0.636
			c-0.039,0.21-0.019,0.461-0.022,0.702c-0.003,0.214-0.024,0.461,0.009,0.698c0.03,0.211,0.098,0.445,0.163,0.675
			c0.059,0.207,0.116,0.444,0.209,0.666c0.084,0.2,0.395,0.46,0.51,0.671c-0.237-0.127-0.512-0.403-0.75-0.51
			C2.66,11.503,2.38,11.354,2.167,11.158z"/>
		<path opacity="0.5038" fill="none" stroke="#FFFF00" stroke-width="0.1" stroke-linecap="round" stroke-linejoin="round" d="
			M2.167,11.158c0.084,0.226,0.076,0.615,0.168,0.824c0.097,0.22,0.349,0.362,0.456,0.563c0.113,0.211,0.331,0.344,0.456,0.535
			c0.131,0.199,0.24,0.39,0.385,0.566c0.151,0.184,0.265,0.378,0.433,0.536c0.17,0.161,0.318,0.337,0.507,0.473
			c0.188,0.135,0.311,0.391,0.519,0.5c0.203,0.106,0.495,0.034,0.718,0.116c0.213,0.078,0.388,0.308,0.62,0.364
			c0.22,0.054,0.464,0.061,0.703,0.094c0.225,0.032,0.448,0.098,0.69,0.111c0.229,0.066,0.467,0.052,0.692,0.09
			c0.235,0.041,0.479-0.075,0.708-0.063c0.239,0.012,0.457-0.026,0.685-0.045c0.238-0.019,0.503,0.188,0.726,0.139
			c0.233-0.053,0.442-0.203,0.654-0.287c0.222-0.088,0.438-0.187,0.633-0.307c0.201-0.125,0.375-0.29,0.542-0.447
			c0.172-0.161,0.345-0.326,0.473-0.519c0.129-0.192,0.221-0.415,0.301-0.636c0.078-0.214,0.064-0.451,0.092-0.688
			c0.025-0.223-0.002-0.441-0.025-0.684c-0.021-0.221,0.028-0.508-0.038-0.743c-0.118,0.197-0.142,0.484-0.249,0.63
			c-0.129,0.175-0.325,0.289-0.488,0.401c-0.151,0.104-0.414,0.203-0.639,0.265c0.039-0.249,0.245-0.551,0.213-0.748
			c-0.039-0.235-0.259-0.421-0.354-0.611c-0.101-0.203-0.141-0.436-0.247-0.626c-0.107-0.193-0.243-0.353-0.296-0.573
			c-0.048-0.195-0.087-0.395-0.046-0.642c0.032-0.189,0.111-0.384,0.218-0.618c0.117-0.227,0.227-0.468,0.315-0.712
			s0.162-0.501,0.203-0.754c0.041-0.256,0.04-0.524,0.013-0.78c-0.026-0.251-0.119-0.498-0.231-0.741
			c-0.101-0.22-0.256-0.53-0.442-0.736c-0.081,0.245-0.082,0.599-0.173,0.816c-0.097,0.233-0.234,0.444-0.35,0.653
			c-0.118,0.214-0.36,0.344-0.506,0.543c-0.141,0.192-0.248,0.408-0.421,0.595C9.623,8.185,9.538,8.241,9.347,8.416
			c0.018-0.248,0.115-0.321,0.164-0.557c0.05-0.241,0.022-0.493,0.086-0.725c0.065-0.237,0.247-0.443,0.306-0.676
			c0.06-0.239,0.049-0.502,0.079-0.741c0.03-0.24-0.151-0.482-0.174-0.728c-0.021-0.232,0.054-0.48-0.036-0.721
			c0.021-0.271-0.014-0.557-0.198-0.76C9.429,3.348,9.101,3.312,8.91,3.102C8.76,2.935,8.758,2.643,8.622,2.399
			C8.512,2.204,8.304,2.038,8.225,1.769c-0.064-0.216,0.009-0.474-0.025-0.75C8.171,0.791,8.078,0.476,8.077,0.2
			C7.922,0.377,7.828,0.703,7.697,0.872C7.555,1.057,7.306,1.15,7.193,1.333c-0.12,0.194-0.187,0.41-0.274,0.612
			c-0.088,0.203-0.094,0.426-0.15,0.646C6.717,2.799,6.486,2.983,6.463,3.214c-0.022,0.21,0.201,0.444,0.203,0.681
			c0.002,0.211-0.017,0.443,0.003,0.681c-0.063,0.24-0.144,0.485-0.228,0.688C6.347,5.488,6.037,5.595,5.933,5.792
			c-0.112,0.21,0.008,0.531-0.095,0.733c-0.105,0.206-0.426,0.318-0.5,0.541C5.27,7.274,5.212,7.522,5.19,7.768
			C5.17,7.979,5.245,8.209,5.272,8.463c-0.035-0.215,0.022-0.42-0.005-0.623C5.239,7.623,5.235,7.414,5.223,7.211
			c-0.014-0.218,0.06-0.414,0.075-0.615c0.016-0.216-0.121-0.434-0.061-0.63C5.205,5.739,5.117,5.543,5.07,5.333
			C5.021,5.113,5.024,4.895,4.927,4.694C4.835,4.505,4.759,4.293,4.596,4.121C4.458,3.974,4.3,3.917,4.091,3.783
			c0.056,0.206,0.228,0.336,0.278,0.569c0.047,0.223,0.004,0.477,0.029,0.703c0.026,0.237,0.076,0.485,0.06,0.702
			C4.438,6.003,4.274,6.215,4.174,6.403c-0.106,0.2-0.255,0.366-0.485,0.459C3.622,6.988,3.622,7.251,3.482,7.518
			C3.39,7.695,3.133,7.823,3.049,8.06c-0.07,0.197-0.251,0.398-0.294,0.636c-0.039,0.21-0.019,0.461-0.022,0.702
			c-0.003,0.214-0.024,0.461,0.009,0.698c0.03,0.211,0.098,0.445,0.163,0.675c0.059,0.207,0.116,0.444,0.209,0.666
			c0.084,0.2,0.395,0.46,0.51,0.671c-0.237-0.127-0.512-0.403-0.75-0.51C2.66,11.503,2.38,11.354,2.167,11.158z"/>
	</g>
	<g id="path15990">
		
			<linearGradient id="SVGID_2_" gradientUnits="userSpaceOnUse" x1="2.4492" y1="16.2715" x2="2.4428" y2="16.2852" gradientTransform="matrix(142.5672 0 0 -393.4996 -343.125 6417)">
			<stop  offset="0" style="stop-color:#DC0000"/>
			<stop  offset="1" style="stop-color:#FFB200"/>
		</linearGradient>
		<path fill="url(#SVGID_2_)" d="M7.494,15.307c-0.186-0.179-0.413-0.284-0.576-0.455c-0.179-0.188-0.336-0.386-0.487-0.565
			c-0.168-0.199-0.23-0.465-0.364-0.654c-0.151-0.216-0.349-0.384-0.456-0.587c-0.122-0.233-0.182-0.479-0.245-0.699
			c-0.071-0.249-0.171-0.495-0.167-0.73c0.005-0.246,0.127-0.483,0.214-0.718c0.081-0.218,0.26-0.387,0.413-0.598
			c0.134-0.186,0.32-0.345,0.51-0.527C6.469,9.56,6.57,9.319,6.678,9.118C6.797,8.897,6.752,8.609,6.845,8.4
			c0.102-0.229,0.32-0.399,0.392-0.615c0.079-0.237,0.061-0.488,0.106-0.711C7.392,6.83,7.392,6.598,7.404,6.369
			c0.013-0.246-0.041-0.467-0.068-0.698C7.308,5.432,7.437,5.166,7.37,4.939C7.303,4.712,7.062,4.552,6.96,4.335
			C6.861,4.123,6.826,3.879,6.698,3.673C6.575,3.475,6.495,3.372,6.349,3.177c0.074,0.232,0.02,0.377,0.067,0.6
			c0.051,0.237,0.145,0.456,0.168,0.682C6.609,4.7,6.659,4.934,6.656,5.163C6.653,5.404,6.589,5.636,6.56,5.864
			C6.528,6.102,6.395,6.309,6.338,6.531C6.28,6.764,6.313,7.014,6.233,7.229C6.15,7.454,6.091,7.686,5.99,7.893
			C5.884,8.109,5.725,8.292,5.606,8.489c-0.125,0.208-0.17,0.463-0.3,0.649c-0.142,0.2-0.345,0.346-0.483,0.521
			C4.667,9.855,4.418,9.955,4.28,10.119c-0.171,0.204-0.214,0.387-0.333,0.54c-0.086-0.241-0.244-0.382-0.281-0.588
			C3.622,9.828,3.674,9.592,3.689,9.373c0.016-0.226-0.01-0.467,0.057-0.697c0.059-0.203,0.31-0.353,0.4-0.583
			c0.078-0.196,0.039-0.458,0.135-0.689c0.083-0.197,0.157-0.319,0.25-0.551c-0.184,0.182-0.232,0.36-0.396,0.551
			C3.966,7.602,3.753,7.75,3.609,7.956C3.46,8.169,3.246,8.34,3.128,8.56C3.005,8.79,2.859,9.018,2.776,9.252
			C2.69,9.497,2.619,9.761,2.582,10.009c-0.039,0.253,0.073,0.521,0.092,0.773c0.019,0.25,0.056,0.499,0.136,0.746
			c0.088,0.225,0.213,0.417,0.322,0.611c0.117,0.208,0.25,0.389,0.387,0.565c0.145,0.188,0.216,0.433,0.377,0.59
			c0.168,0.164,0.346,0.322,0.528,0.459c0.187,0.141,0.478,0.12,0.673,0.237c0.2,0.121,0.332,0.353,0.534,0.455
			c0.209,0.106,0.431,0.18,0.637,0.274c0.214,0.099,0.446,0.145,0.649,0.238C7.133,15.059,7.3,15.203,7.494,15.307z"/>
		<path opacity="0.5038" fill="none" stroke="#FFFF00" stroke-width="0.1" stroke-linecap="round" stroke-linejoin="round" d="
			M7.494,15.307c-0.186-0.179-0.413-0.284-0.576-0.455c-0.179-0.188-0.336-0.386-0.487-0.565c-0.168-0.199-0.23-0.465-0.364-0.654
			c-0.151-0.216-0.349-0.384-0.456-0.587c-0.122-0.233-0.182-0.479-0.245-0.699c-0.071-0.249-0.171-0.495-0.167-0.73
			c0.005-0.246,0.127-0.483,0.214-0.718c0.081-0.218,0.26-0.387,0.413-0.598c0.134-0.186,0.32-0.345,0.51-0.527
			C6.469,9.56,6.57,9.319,6.678,9.118C6.797,8.897,6.752,8.609,6.845,8.4c0.102-0.229,0.32-0.399,0.392-0.615
			c0.079-0.237,0.061-0.488,0.106-0.711C7.392,6.83,7.392,6.598,7.404,6.369c0.013-0.246-0.041-0.467-0.068-0.698
			C7.308,5.432,7.437,5.166,7.37,4.939C7.303,4.712,7.062,4.552,6.96,4.335C6.861,4.123,6.826,3.879,6.698,3.673
			C6.575,3.475,6.495,3.372,6.349,3.177c0.074,0.232,0.02,0.377,0.067,0.6c0.051,0.237,0.145,0.456,0.168,0.682
			C6.609,4.7,6.659,4.934,6.656,5.163C6.653,5.404,6.589,5.636,6.56,5.864C6.528,6.102,6.395,6.309,6.338,6.531
			C6.28,6.764,6.313,7.014,6.233,7.229C6.15,7.454,6.091,7.686,5.99,7.893C5.884,8.109,5.725,8.292,5.606,8.489
			c-0.125,0.208-0.17,0.463-0.3,0.649c-0.142,0.2-0.345,0.346-0.483,0.521C4.667,9.855,4.418,9.955,4.28,10.119
			c-0.171,0.204-0.214,0.387-0.333,0.54c-0.086-0.241-0.244-0.382-0.281-0.588C3.622,9.828,3.674,9.592,3.689,9.373
			c0.016-0.226-0.01-0.467,0.057-0.697c0.059-0.203,0.31-0.353,0.4-0.583c0.078-0.196,0.039-0.458,0.135-0.689
			c0.083-0.197,0.157-0.319,0.25-0.551c-0.184,0.182-0.232,0.36-0.396,0.551C3.966,7.602,3.753,7.75,3.609,7.956
			C3.46,8.169,3.246,8.34,3.128,8.56C3.005,8.79,2.859,9.018,2.776,9.252C2.69,9.497,2.619,9.761,2.582,10.009
			c-0.039,0.253,0.073,0.521,0.092,0.773c0.019,0.25,0.056,0.499,0.136,0.746c0.088,0.225,0.213,0.417,0.322,0.611
			c0.117,0.208,0.25,0.389,0.387,0.565c0.145,0.188,0.216,0.433,0.377,0.59c0.168,0.164,0.346,0.322,0.528,0.459
			c0.187,0.141,0.478,0.12,0.673,0.237c0.2,0.121,0.332,0.353,0.534,0.455c0.209,0.106,0.431,0.18,0.637,0.274
			c0.214,0.099,0.446,0.145,0.649,0.238C7.133,15.059,7.3,15.203,7.494,15.307z"/>
	</g>
	<g id="path15994">
		<path fill="#FFD700" d="M10.521,6.305c-0.132-0.346-0.191-0.566-0.17-0.752c0.033-0.285,0.203-0.46,0.378-0.691
			c0.197-0.07,0.234-0.237,0.276-0.587c0.022-0.184,0.054-0.387,0.11-0.67c0.074,0.279,0.164,0.493,0.243,0.722
			c0.085,0.243,0.165,0.476,0.086,0.758c-0.056,0.198-0.167,0.427-0.376,0.687C10.933,5.941,10.747,6.095,10.521,6.305z"/>
		<path opacity="0.5038" fill="none" stroke="#FFFF00" stroke-width="0.1" stroke-linecap="round" stroke-linejoin="round" d="
			M10.521,6.305c-0.132-0.346-0.191-0.566-0.17-0.752c0.033-0.285,0.203-0.46,0.378-0.691c0.197-0.07,0.234-0.237,0.276-0.587
			c0.022-0.184,0.054-0.387,0.11-0.67c0.074,0.279,0.164,0.493,0.243,0.722c0.085,0.243,0.165,0.476,0.086,0.758
			c-0.056,0.198-0.167,0.427-0.376,0.687C10.933,5.941,10.747,6.095,10.521,6.305z"/>
	</g>
	
		<linearGradient id="path28563_1_" gradientUnits="userSpaceOnUse" x1="0.7798" y1="14.3271" x2="0.8085" y2="14.3271" gradientTransform="matrix(38.8004 0 0 -103.4459 -20.0312 1486.8125)">
		<stop  offset="0" style="stop-color:#FFFFFF;stop-opacity:0.4493"/>
		<stop  offset="1" style="stop-color:#FFFFFF;stop-opacity:0"/>
	</linearGradient>
	<path id="path28563" fill="url(#path28563_1_)" d="M10.888,3.433c-0.102,0.391-0.056,0.822-0.244,1.187
		c-0.439,0.305-0.629,0.872-0.438,1.353c0.061,0.402,0.199,0.472,0.443,0.104c0.525-0.49,1.017-1.194,0.716-1.897
		c-0.133-0.359-0.251-0.723-0.401-1.077C10.937,3.212,10.911,3.322,10.888,3.433z"/>
	<g id="path15993">
		<path fill="#FFD700" d="M12.65,11.688c0.19-0.167,0.304-0.317,0.405-0.449c0.162-0.213,0.266-0.371,0.28-0.541
			c0.017-0.197-0.072-0.377-0.104-0.602c-0.164-0.167-0.038-0.372,0.124-0.761c0.083-0.2,0.146-0.451,0.252-0.769
			c-0.182,0.191-0.364,0.323-0.538,0.472c-0.194,0.167-0.352,0.346-0.479,0.549c-0.116,0.184-0.219,0.395-0.233,0.681
			c-0.01,0.202,0.034,0.438,0.094,0.721C12.494,11.199,12.561,11.423,12.65,11.688z"/>
		<path opacity="0.5038" fill="none" stroke="#FFFF00" stroke-width="0.1" stroke-linecap="round" stroke-linejoin="round" d="
			M12.65,11.688c0.19-0.167,0.304-0.317,0.405-0.449c0.162-0.213,0.266-0.371,0.28-0.541c0.017-0.197-0.072-0.377-0.104-0.602
			c-0.164-0.167-0.038-0.372,0.124-0.761c0.083-0.2,0.146-0.451,0.252-0.769c-0.182,0.191-0.364,0.323-0.538,0.472
			c-0.194,0.167-0.352,0.346-0.479,0.549c-0.116,0.184-0.219,0.395-0.233,0.681c-0.01,0.202,0.034,0.438,0.094,0.721
			C12.494,11.199,12.561,11.423,12.65,11.688z"/>
	</g>
	<g id="path15992">
		
			<linearGradient id="SVGID_3_" gradientUnits="userSpaceOnUse" x1="1.2314" y1="16.4492" x2="1.2502" y2="16.4735" gradientTransform="matrix(150.295 0 0 -237.7394 -175.375 3924.875)">
			<stop  offset="0" style="stop-color:#DC0000"/>
			<stop  offset="1" style="stop-color:#FFB200"/>
		</linearGradient>
		<path fill="url(#SVGID_3_)" d="M8.636,15.312c0.204-0.104,0.325-0.296,0.471-0.487c0.132-0.172,0.241-0.359,0.335-0.589
			c0.083-0.202,0.249-0.392,0.308-0.629c0.053-0.215,0.024-0.457,0.062-0.694c0.035-0.223,0.095-0.449,0.119-0.687
			c0.023-0.227,0.103-0.453,0.119-0.688c0.033-0.24,0.034-0.481,0.085-0.718c0.051-0.239,0.08-0.482,0.163-0.708
			c0.083-0.229,0.232-0.419,0.362-0.625c0.127-0.199,0.234-0.416,0.419-0.587c0.168-0.155,0.361-0.301,0.587-0.426
			c0.197-0.109,0.401-0.262,0.65-0.344c0.214-0.07,0.467-0.077,0.724-0.125c0.224-0.042,0.479-0.07,0.738-0.092
			c-0.189,0.138-0.378,0.299-0.553,0.449c-0.178,0.153-0.404,0.261-0.558,0.432c-0.155,0.174-0.202,0.429-0.323,0.627
			c-0.119,0.194-0.225,0.389-0.302,0.613c-0.073,0.211-0.229,0.414-0.257,0.656c-0.024,0.217,0.045,0.455,0.063,0.7
			c0.016,0.218,0.105,0.442,0.159,0.685c-0.011,0.268-0.144,0.509-0.188,0.73c-0.052,0.265-0.022,0.535-0.113,0.741
			c-0.108,0.243-0.252,0.463-0.399,0.638c-0.167,0.197-0.438,0.263-0.634,0.391c-0.213,0.139-0.386,0.347-0.606,0.426
			c-0.248,0.09-0.521,0.063-0.739,0.111C9.033,15.176,8.792,15.251,8.636,15.312z"/>
		<path opacity="0.5038" fill="none" stroke="#FFFF00" stroke-width="0.1" stroke-linecap="round" stroke-linejoin="round" d="
			M8.636,15.312c0.204-0.104,0.325-0.296,0.471-0.487c0.132-0.172,0.241-0.359,0.335-0.589c0.083-0.202,0.249-0.392,0.308-0.629
			c0.053-0.215,0.024-0.457,0.062-0.694c0.035-0.223,0.095-0.449,0.119-0.687c0.023-0.227,0.103-0.453,0.119-0.688
			c0.033-0.24,0.034-0.481,0.085-0.718c0.051-0.239,0.08-0.482,0.163-0.708c0.083-0.229,0.232-0.419,0.362-0.625
			c0.127-0.199,0.234-0.416,0.419-0.587c0.168-0.155,0.361-0.301,0.587-0.426c0.197-0.109,0.401-0.262,0.65-0.344
			c0.214-0.07,0.467-0.077,0.724-0.125c0.224-0.042,0.479-0.07,0.738-0.092c-0.189,0.138-0.378,0.299-0.553,0.449
			c-0.178,0.153-0.404,0.261-0.558,0.432c-0.155,0.174-0.202,0.429-0.323,0.627c-0.119,0.194-0.225,0.389-0.302,0.613
			c-0.073,0.211-0.229,0.414-0.257,0.656c-0.024,0.217,0.045,0.455,0.063,0.7c0.016,0.218,0.105,0.442,0.159,0.685
			c-0.011,0.268-0.144,0.509-0.188,0.73c-0.052,0.265-0.022,0.535-0.113,0.741c-0.108,0.243-0.252,0.463-0.399,0.638
			c-0.167,0.197-0.438,0.263-0.634,0.391c-0.213,0.139-0.386,0.347-0.606,0.426c-0.248,0.09-0.521,0.063-0.739,0.111
			C9.033,15.176,8.792,15.251,8.636,15.312z"/>
	</g>
	
		<linearGradient id="path26056_1_" gradientUnits="userSpaceOnUse" x1="1.2188" y1="16.4512" x2="1.1631" y2="16.4231" gradientTransform="matrix(138.2799 0 0 -238.3522 -151.5 3927.5)">
		<stop  offset="0" style="stop-color:#FFFFFF"/>
		<stop  offset="1" style="stop-color:#FFFFFF;stop-opacity:0"/>
	</linearGradient>
	<path id="path26056" fill="url(#path26056_1_)" d="M13.411,7.678c-1.314,0.169-2.668,0.887-3.053,2.105
		c-0.619,1.524-0.278,3.259-1.121,4.724c-0.319,0.127-0.242,0.669,0.154,0.564c1.158-0.191,2.259-0.924,2.552-2.001
		c0.284-0.746,0.122-1.534,0.093-2.303c0.039-1.113,0.745-2.114,1.675-2.8C13.874,7.754,13.604,7.682,13.411,7.678z"/>
	
		<linearGradient id="path28562_1_" gradientUnits="userSpaceOnUse" x1="-0.4326" y1="15.9482" x2="-0.4051" y2="15.9482" gradientTransform="matrix(45.6506 0 0 -116.9557 32.0312 1875.125)">
		<stop  offset="0" style="stop-color:#FFFFFF;stop-opacity:0.4493"/>
		<stop  offset="1" style="stop-color:#FFFFFF;stop-opacity:0"/>
	</linearGradient>
	<path id="path28562" fill="url(#path28562_1_)" d="M13.428,8.259c-0.529,0.511-1.298,0.988-1.28,1.769
		c-0.039,0.563,0.18,1.099,0.317,1.638c0.461-0.398,0.981-0.92,0.812-1.548c-0.001-0.277-0.229-0.52-0.05-0.79
		c0.175-0.427,0.354-0.853,0.475-1.296C13.609,8.108,13.519,8.184,13.428,8.259z"/>
	<g id="path15989">
		
			<linearGradient id="SVGID_4_" gradientUnits="userSpaceOnUse" x1="1.8623" y1="16.2363" x2="1.8707" y2="16.2651" gradientTransform="matrix(133.2528 0 0 -285.5605 -241 4653.25)">
			<stop  offset="0" style="stop-color:#DC0000"/>
			<stop  offset="1" style="stop-color:#FFB200"/>
		</linearGradient>
		<path fill="url(#SVGID_4_)" d="M6.982,14.221c-0.022-0.246-0.048-0.539-0.062-0.764c-0.014-0.242,0.01-0.467,0.037-0.693
			c0.027-0.228,0.083-0.432,0.184-0.654c0.088-0.194,0.207-0.371,0.375-0.568c0.136-0.16,0.207-0.418,0.407-0.583
			c0.166-0.136,0.423-0.183,0.639-0.324c0.209-0.133,0.327-0.361,0.496-0.486c0.203-0.151,0.421-0.239,0.57-0.382
			c0.188-0.179,0.304-0.371,0.416-0.539c0.143-0.216,0.177-0.415,0.212-0.621c0.038-0.227,0.177-0.459,0.105-0.684
			c-0.064-0.202-0.229-0.39-0.365-0.597C9.881,7.148,9.705,6.996,9.548,6.81C9.408,6.645,9.222,6.51,9.059,6.336
			C8.908,6.176,8.762,6,8.598,5.829c-0.154-0.16-0.245-0.34-0.407-0.511c0.07,0.25,0.182,0.454,0.211,0.691
			C8.434,6.264,8.42,6.525,8.411,6.766C8.402,7.021,8.236,7.251,8.189,7.49C8.141,7.739,8.18,8.004,8.1,8.233
			c-0.083,0.24-0.2,0.465-0.308,0.683C7.679,9.146,7.574,9.375,7.448,9.579c-0.137,0.22-0.253,0.447-0.39,0.637
			c-0.108,0.143-0.346,0.258-0.517,0.459c-0.139,0.163-0.236,0.376-0.36,0.574c-0.119,0.19-0.169,0.398-0.229,0.619
			c-0.058,0.211-0.132,0.408-0.098,0.645c0.029,0.203,0.099,0.405,0.222,0.626c0.099,0.176,0.199,0.377,0.371,0.563
			C6.586,13.854,6.787,14.062,6.982,14.221z"/>
		<path opacity="0.5038" fill="none" stroke="#FFFF00" stroke-width="0.1" stroke-linecap="round" stroke-linejoin="round" d="
			M6.982,14.221c-0.022-0.246-0.048-0.539-0.062-0.764c-0.014-0.242,0.01-0.467,0.037-0.693c0.027-0.228,0.083-0.432,0.184-0.654
			c0.088-0.194,0.207-0.371,0.375-0.568c0.136-0.16,0.207-0.418,0.407-0.583c0.166-0.136,0.423-0.183,0.639-0.324
			c0.209-0.133,0.327-0.361,0.496-0.486c0.203-0.151,0.421-0.239,0.57-0.382c0.188-0.179,0.304-0.371,0.416-0.539
			c0.143-0.216,0.177-0.415,0.212-0.621c0.038-0.227,0.177-0.459,0.105-0.684c-0.064-0.202-0.229-0.39-0.365-0.597
			C9.881,7.148,9.705,6.996,9.548,6.81C9.408,6.645,9.222,6.51,9.059,6.336C8.908,6.176,8.762,6,8.598,5.829
			c-0.154-0.16-0.245-0.34-0.407-0.511c0.07,0.25,0.182,0.454,0.211,0.691C8.434,6.264,8.42,6.525,8.411,6.766
			C8.402,7.021,8.236,7.251,8.189,7.49C8.141,7.739,8.18,8.004,8.1,8.233c-0.083,0.24-0.2,0.465-0.308,0.683
			C7.679,9.146,7.574,9.375,7.448,9.579c-0.137,0.22-0.253,0.447-0.39,0.637c-0.108,0.143-0.346,0.258-0.517,0.459
			c-0.139,0.163-0.236,0.376-0.36,0.574c-0.119,0.19-0.169,0.398-0.229,0.619c-0.058,0.211-0.132,0.408-0.098,0.645
			c0.029,0.203,0.099,0.405,0.222,0.626c0.099,0.176,0.199,0.377,0.371,0.563C6.586,13.854,6.787,14.062,6.982,14.221z"/>
	</g>
	
		<linearGradient id="path26055_1_" gradientUnits="userSpaceOnUse" x1="1.8223" y1="16.2549" x2="1.8587" y2="16.2156" gradientTransform="matrix(138.6054 0 0 -301.0552 -248.625 4894.75)">
		<stop  offset="0" style="stop-color:#FFFFFF"/>
		<stop  offset="1" style="stop-color:#FFFFFF;stop-opacity:0"/>
	</linearGradient>
	<path id="path26055" fill="url(#path26055_1_)" d="M8.119,4.938c0.344,1.428-0.012,2.933-0.805,4.187
		c-0.493,0.863-1.466,1.524-1.559,2.55c-0.148,0.894,0.56,1.639,1.215,2.216c0.268,0.307,0.038-0.416,0.075-0.586
		c-0.106-0.88,0.059-1.866,0.839-2.469c0.868-0.77,2.106-1.304,2.522-2.407c0.281-0.976-0.468-1.851-1.122-2.543
		C8.892,5.449,8.476,5.031,8.062,4.61C8.082,4.72,8.1,4.83,8.119,4.938z"/>
	
		<linearGradient id="path26054_1_" gradientUnits="userSpaceOnUse" x1="2.3345" y1="16.3379" x2="2.3614" y2="16.3088" gradientTransform="matrix(149.3627 0 0 -394.3211 -346.5 6442)">
		<stop  offset="0" style="stop-color:#FFFFFF"/>
		<stop  offset="1" style="stop-color:#FFFFFF;stop-opacity:0"/>
	</linearGradient>
	<path id="path26054" fill="url(#path26054_1_)" d="M6.551,3.671c0.034,0.675,0.245,1.344,0.147,2.026
		c-0.085,1.591-0.853,3.086-1.913,4.331c-0.198,0.256-0.407,0.5-0.61,0.753C3.905,9.958,4.027,9.073,4.392,8.292
		C4.584,7.875,4.719,7.444,4.79,6.995C3.777,7.836,3.062,8.984,2.81,10.21c-0.205,1.135,0.235,2.304,1.063,3.158
		c1.041,1.117,2.536,1.745,3.988,2.307c-0.822-1.054-1.966-2.002-2.21-3.331c-0.166-0.774,0.168-1.546,0.725-2.124
		C7.014,9.423,7.41,8.474,7.646,7.517C7.952,6.27,7.707,4.923,6.958,3.841C6.773,3.718,6.442,3.073,6.551,3.671z"/>
</g>
</svg>
