<?xml version="1.0" encoding="utf-8"?>
<!-- Generator: Adobe Illustrator 16.0.0, SVG Export Plug-In . SVG Version: 6.00 Build 0)  -->
<!DOCTYPE svg PUBLIC "-//W3C//DTD SVG 1.1//EN" "http://www.w3.org/Graphics/SVG/1.1/DTD/svg11.dtd">
<svg version="1.1" id="Layer_1" xmlns="http://www.w3.org/2000/svg" xmlns:xlink="http://www.w3.org/1999/xlink" x="0px" y="0px"
	 width="24px" height="24px" viewBox="0 0 24 24" enable-background="new 0 0 24 24" xml:space="preserve">
<g>
	<path fill-rule="evenodd" clip-rule="evenodd" fill="#E9B200" d="M23.35,15.41c-1.1-1.06-2.22-2.1-3.33-3.14
		c-1.11-1.04-2.2-2.06-3.26-3.08l6.59-6.86V15.41z"/>
	<path fill="#461D7C" d="M22.85,3.58v10.67c-0.83-0.79-1.67-1.57-2.48-2.34c-1-0.94-1.96-1.83-2.9-2.73L22.85,3.58 M23.85,1.09
		l-7.79,8.12c2.48,2.41,5.19,4.85,7.79,7.38C23.85,11.33,23.85,6.16,23.85,1.09L23.85,1.09z"/>
</g>
<g>
	<path fill-rule="evenodd" clip-rule="evenodd" fill="#E9B200" d="M1.29,15.38c0.01-4.67,0.01-9.33,0-14
		C3.84,1.39,6.35,1.4,8.85,1.4c2.14,0,4.29,0,6.43-0.01c-0.01,1.73-0.01,3.46-0.01,5.2l0.01,8.8c-2.35-0.01-4.68-0.01-7.01-0.01
		C5.95,15.37,3.62,15.37,1.29,15.38z"/>
	<path fill="#461D7C" d="M2.29,2.38C4.48,2.39,6.67,2.4,8.85,2.4c1.81,0,3.62,0,5.43-0.01c-0.01,1.4,0,2.79,0,4.19l0,1.9l0.01,5.9
		c-2,0-4-0.01-6.01-0.01c-1.99,0-3.98,0-5.98,0.01C2.3,10.39,2.3,6.4,2.29,2.38 M15.72,0.38C13.43,0.39,11.14,0.4,8.85,0.4
		c-2.66,0-5.32-0.01-7.98-0.02c-0.45,0-0.59,0.14-0.59,0.71c0.01,4.85,0.01,9.7,0.01,14.55c-0.01,0.52,0.08,0.74,0.54,0.74
		c0.01,0,0.01,0,0.02,0c2.48-0.01,4.95-0.01,7.42-0.01c2.47,0,4.95,0,7.42,0.01c0.46,0,0.59-0.18,0.59-0.73l-0.01-7.18
		c0-2.47-0.01-4.92,0.01-7.37C16.29,0.57,16.2,0.38,15.72,0.38L15.72,0.38z"/>
</g>
<polygon fill="#461D7C" points="16.18,23.75 14.07,23.75 8.27,16.17 10.38,16.17 "/>
<polygon fill="#461D7C" points="0.35,23.75 2.46,23.75 8.27,16.17 6.16,16.17 "/>
</svg>
