<?xml version="1.0" encoding="utf-8"?>
<!-- Generator: Adobe Illustrator 16.0.0, SVG Export Plug-In . SVG Version: 6.00 Build 0)  -->
<!DOCTYPE svg PUBLIC "-//W3C//DTD SVG 1.1//EN" "http://www.w3.org/Graphics/SVG/1.1/DTD/svg11.dtd">
<svg version="1.1" xmlns="http://www.w3.org/2000/svg" xmlns:xlink="http://www.w3.org/1999/xlink" x="0px" y="0px" width="24px"
	 height="24px" viewBox="0 0 24 24" enable-background="new 0 0 24 24" xml:space="preserve">
<g id="Layer_1" display="none">
	<g display="inline">
		<path fill="#E9B200" d="M14.9,15.3c-2.3,0-4.6,0-6.9,0c-1.1,0-2.3,0-3.4,0c-1.1,0-3.4,0-3.4,0c-0.1,0-0.2-0.1-0.3-0.1
			c-0.1-0.1-0.1-0.2-0.1-0.3c0-4.4,0-8.7,0-13.1c0-0.1,0.1-0.2,0.1-0.3C1,1.4,1.1,1.3,1.2,1.3c0,0,0,0,0,0c2.5,0,5,0,7.4,0
			c2.1,0,4.2,0,6.3,0c0,0,0,0,0,0c0.1,0,0.2,0.1,0.3,0.1c0.1,0.1,0.1,0.2,0.1,0.3c0,1.6,0,3.2,0,4.9l0,8.2c0,0.1-0.1,0.2-0.1,0.3
			S15.1,15.3,14.9,15.3C14.9,15.3,14.9,15.3,14.9,15.3z"/>
		<path fill="#666666" d="M1.2,1.8c2.5,0,5,0,7.4,0c2.1,0,4.2,0,6.3,0c0,1.6,0,3.2,0,4.9l0,8.2c-2.3,0-4.6,0-6.9,0
			c-1.1,0-2.3,0-3.4,0s-2.3,0-3.4,0C1.2,10.5,1.2,6.1,1.2,1.8 M14.9,1.8L14.9,1.8 M1.2,0.8C1,0.8,0.7,0.9,0.6,1.1
			C0.4,1.3,0.3,1.5,0.3,1.8c0,4.4,0,8.7,0,13.1c0,0.3,0.1,0.5,0.3,0.7c0.2,0.2,0.4,0.3,0.7,0.3c0,0,0,0,0,0c1.1,0,2.3,0,3.4,0
			c1.1,0,2.3,0,3.4,0c2.3,0,4.6,0,6.9,0c0,0,0,0,0,0c0.3,0,0.5-0.1,0.7-0.3c0.2-0.2,0.3-0.4,0.3-0.7l0-8.2c0-1.6,0-3.2,0-4.8
			c0,0,0,0,0-0.1c0-0.5-0.4-1-1-1h0c0,0,0,0,0,0c-2.1,0-4.2,0-6.3,0C6.2,0.8,3.7,0.8,1.2,0.8C1.2,0.8,1.2,0.8,1.2,0.8L1.2,0.8z"/>
	</g>
	<g display="inline">
		<path fill="#FFFFFF" d="M12.6,13.1c-1.5,0-3,0-4.5,0l-2.2,0l-2.7,0l0-0.5c0-2.8,0-5.7,0-8.5l0-0.5l0.5,0c1.6,0,3.2,0,4.8,0
			c1.4,0,2.7,0,4.1,0l0.5,0l0,0.5c0,1.1,0,2.1,0,3.2l0,5.9L12.6,13.1z"/>
		<path fill="#666666" d="M3.6,4.1c1.6,0,3.2,0,4.8,0c1.4,0,2.7,0,4.1,0c0,1.1,0,2.1,0,3.2l0,5.4c-1.5,0-3,0-4.5,0
			c-0.7,0-1.5,0-2.2,0c-0.7,0-1.5,0-2.2,0C3.6,9.7,3.6,6.9,3.6,4.1 M2.6,3.1l0,1c0,2.8,0,5.7,0,8.5l0,1l1,0c0.7,0,1.5,0,2.2,0
			c0.7,0,1.5,0,2.2,0c1.5,0,3,0,4.5,0l1,0l0-1l0-5.4c0-1.1,0-2.1,0-3.2l0-1l-1,0c-1.4,0-2.7,0-4.1,0c-1.6,0-3.2,0-4.8,0L2.6,3.1
			L2.6,3.1z"/>
	</g>
	<g display="inline">
		<path fill="#E9B200" d="M22.7,15.4c-0.1,0-0.3,0-0.3-0.1c-0.9-0.8-1.7-1.6-2.6-2.4L18.9,12c-1.1-1-2.1-2-3.1-2.9
			c-0.2-0.2-0.2-0.5,0-0.7l6.6-6.9c0.1-0.1,0.2-0.2,0.4-0.2c0.1,0,0.1,0,0.2,0c0.2,0.1,0.3,0.3,0.3,0.5v13.1c0,0.2-0.1,0.4-0.3,0.5
			C22.8,15.4,22.8,15.4,22.7,15.4z"/>
		<path fill="#666666" d="M22.7,1.8v13.1c-1.1-1.1-2.2-2.1-3.3-3.1s-2.2-2.1-3.3-3.1L22.7,1.8 M22.7,0.8c-0.3,0-0.5,0.1-0.7,0.3
			L15.4,8c-0.4,0.4-0.4,1,0,1.4c1,1,2.1,2,3.1,3l0.1,0.1l0.7,0.7c0.9,0.8,1.7,1.6,2.6,2.4c0.2,0.2,0.4,0.3,0.7,0.3
			c0.1,0,0.3,0,0.4-0.1c0.4-0.2,0.6-0.5,0.6-0.9V1.8c0-0.4-0.2-0.8-0.6-0.9C23,0.8,22.8,0.8,22.7,0.8L22.7,0.8z"/>
	</g>
	<polygon display="inline" fill="#666666" points="16.1,23.2 14,23.2 8.2,15.6 10.3,15.6 	"/>
	<polygon display="inline" fill="#666666" points="0.3,23.2 2.4,23.2 8.2,15.6 6.1,15.6 	"/>
</g>
<g id="Layer_2">
	<g>
		<path fill="#FFD400" d="M15,1.3c-0.5,3-1.2,4.7-2.1,5c-0.3-0.2-0.4-0.5-0.4-0.7c0-0.2,0.1-0.7,0.3-1.5c0.3-1.2,0.5-2.1,0.6-3
			c0.1-0.2,0.2-0.3,0.4-0.3C14,0.8,14.4,0.9,15,1.3z"/>
		<path fill="#0095DA" d="M11.2,5.3c0,0.3-0.1,0.5-0.2,0.7c-0.2,0.2-0.3,0.3-0.5,0.3c-0.1,0-0.3,0-0.5-0.1c0-0.3-0.4-2.1-1.2-5.2
			c0.3-0.3,0.7-0.4,1-0.4c0.4,0,0.7,0.1,0.8,0.3c0,0.4,0.2,1.2,0.4,2.7C11.1,4.4,11.2,5,11.2,5.3z"/>
		<path fill="#ED1B34" d="M8.7,6.3c0,0.2-0.1,0.4-0.2,0.6C8.4,7,8.2,7.1,8.1,7.1C7.8,7.1,7.3,6.7,6.6,6C5.9,5.2,5.4,4.4,4.9,3.8
			C4.6,3.2,4.4,2.9,4.4,2.9c0-0.2,0.1-0.4,0.3-0.6C4.9,2.1,5.1,2,5.3,2c0.3,0,1.1,0.9,2.2,2.6C8.3,5.5,8.7,6.1,8.7,6.3z"/>
		<path fill="#62BB46" d="M18.6,21.5c0,0.2-0.1,0.3-0.3,0.5c-0.2,0.1-0.4,0.2-0.6,0.2c-0.1,0-0.4-0.2-0.7-0.7
			c-0.7-1-1.3-1.9-1.8-2.8c-0.4-0.7-0.5-1-0.5-1.1c0-0.2,0.1-0.4,0.2-0.5c0.1-0.2,0.3-0.2,0.4-0.2c0.2,0,0.6,0.4,1.2,1.3
			C17.9,20,18.6,21.2,18.6,21.5z"/>
		<path fill="#62BB46" d="M6.5,8.3c0,0.2-0.1,0.3-0.2,0.5C6.1,8.9,5.9,9,5.8,9C5.7,9,5,8.8,4.2,8.2C2.5,7,1.6,6.3,1.3,6.1
			c0-0.4,0.2-0.7,0.4-0.9C1.8,5,2,4.8,2.2,4.8c0.5,0,1.4,0.6,2.7,1.9C5.8,7.5,6.5,8,6.5,8.3z"/>
		<path fill="#B3D335" d="M5.8,11.6c-0.2,0.2-0.5,0.2-0.5,0.2c-0.5,0-1.7-0.3-3.7-0.8c-0.5-0.1-0.8-0.2-0.8-0.2
			c-0.2-0.1-0.2-0.3-0.2-0.6c0-0.7,0.1-1.1,0.4-1.1c0.1,0,0.5,0.2,1.3,0.4c0.9,0.4,1.7,0.6,2.5,0.8c0.4,0.1,0.4,0.1,0.7,0.2
			c0.2,0.1,0.3,0.1,0.4,0.2C6,10.9,6,11.3,5.8,11.6z"/>
		<path fill="#ED1B34" d="M14.6,22.7c0,0.5-0.2,0.8-0.6,0.8c-0.5,0-0.8-0.1-1-0.3v-0.1c0-0.5-0.3-2.1-1-5c0.3-0.2,0.6-0.3,1-0.3
			c0.4,0,0.6,0.2,0.7,0.7C14.3,21.3,14.6,22.6,14.6,22.7z"/>
		<path fill="#FAA61A" d="M11.3,18.1c0,0.3-0.1,0.8-0.2,1.6c-0.2,0.9-0.3,1.5-0.4,1.9c-0.1,0.5-0.1,1-0.2,1.4
			c-0.1,0.3-0.3,0.5-0.6,0.5c-0.7,0-1-0.3-1-1c0-0.1,0.1-0.6,0.4-1.4c0.3-1,0.5-2,0.7-2.8c0.1-0.3,0.3-0.5,0.9-0.5
			C11.1,17.7,11.3,17.8,11.3,18.1z"/>
		<path fill="#FFD400" d="M6.2,13.7c-3.2,1.4-4.9,2-5.1,2c-0.5,0-0.7-0.4-0.7-1.1c0-0.2,0.2-0.5,0.7-0.6c0.8-0.3,1.6-0.5,2.5-0.8
			c0.3-0.1,0.7-0.2,1.2-0.5c0.4-0.2,0.6-0.2,0.8-0.2c0.3,0,0.5,0.1,0.7,0.4V13.7z"/>
		<path fill="#0095DA" d="M9.4,17.4c0,0.2-0.8,1.4-2.5,3.6C6.4,21.7,6.1,22,6,22c-0.5,0-0.8-0.2-0.8-0.7c0-0.2,0.3-0.7,0.8-1.5
			c1.1-1.7,1.8-2.8,2.2-3.3C9,16.7,9.4,17,9.4,17.4z"/>
		<path fill="#ED1B34" d="M7.5,16.2C4.6,18.1,3,19,2.6,19C2.4,19,2.2,19,2,18.8c-0.2-0.2-0.2-0.4-0.2-0.6c0-0.3,0.1-0.5,0.4-0.7
			C4.9,15.8,6.4,15,6.7,15C7.1,15,7.4,15.4,7.5,16.2z"/>
	</g>
	<g>
		<path fill="#FFFFFF" d="M18.2,16c-1.5,0-3,0-4.4,0l-2.2,0c0,0-2.2,0-2.2,0c-0.1,0-0.2,0-0.2-0.1c-0.1-0.1-0.1-0.1-0.1-0.2
			c0-2.8,0-5.6,0-8.4c0-0.1,0-0.2,0.1-0.2C9.3,7,9.3,7,9.4,7c0,0,0,0,0,0c1.6,0,3.2,0,4.8,0c1.4,0,2.7,0,4.1,0h0
			c0.1,0,0.2,0,0.2,0.1c0.1,0.1,0.1,0.1,0.1,0.2c0,1,0,2.1,0,3.1l0,5.3c0,0.1,0,0.2-0.1,0.2S18.3,16,18.2,16L18.2,16z"/>
		<path d="M9.4,7.3c1.6,0,3.2,0,4.8,0c1.4,0,2.7,0,4.1,0c0,1,0,2.1,0,3.1l0,5.3c-1.5,0-3,0-4.4,0c-0.7,0-1.5,0-2.2,0s-1.5,0-2.2,0
			C9.4,12.9,9.4,10.1,9.4,7.3 M18.2,7.3L18.2,7.3 M9.4,6.7C9.2,6.7,9.1,6.7,9,6.9C8.9,7,8.8,7.1,8.8,7.3c0,2.8,0,5.6,0,8.4
			c0,0.2,0.1,0.3,0.2,0.4c0.1,0.1,0.3,0.2,0.4,0.2c0,0,0,0,0,0c0.7,0,1.5,0,2.2,0s1.5,0,2.2,0c1.5,0,2.9,0,4.4,0c0,0,0,0,0,0
			c0.2,0,0.3-0.1,0.4-0.2c0.1-0.1,0.2-0.3,0.2-0.4l0-5.3c0-1,0-2,0-3.1c0,0,0,0,0-0.1c0-0.3-0.3-0.6-0.6-0.6h0c0,0,0,0,0,0s0,0,0,0
			c-1.3,0-2.7,0-4.1,0C12.6,6.7,11,6.7,9.4,6.7C9.4,6.7,9.4,6.7,9.4,6.7L9.4,6.7z"/>
	</g>
	<g>
		<path fill="#FFFFFF" d="M23.2,16c-0.1,0-0.2,0-0.2-0.1c-0.6-0.5-1.1-1.1-1.7-1.6l-0.5-0.4c-0.7-0.7-1.4-1.3-2.1-2
			c-0.1-0.1-0.1-0.1-0.1-0.2c0-0.1,0-0.2,0.1-0.2L23,7.1C23.1,7,23.2,7,23.2,7c0,0,0.1,0,0.1,0c0.1,0,0.2,0.2,0.2,0.3v8.4
			c0,0.1-0.1,0.2-0.2,0.3C23.3,16,23.3,16,23.2,16z"/>
		<path d="M23.2,7.3v8.4c-0.7-0.7-1.4-1.4-2.1-2c-0.7-0.7-1.4-1.3-2.1-2L23.2,7.3 M23.2,6.6c-0.2,0-0.3,0.1-0.5,0.2l-4.2,4.4
			c-0.1,0.1-0.2,0.3-0.2,0.5s0.1,0.3,0.2,0.5c0.7,0.7,1.4,1.3,2.1,2l0.5,0.4c0.6,0.5,1.1,1,1.7,1.6c0.1,0.1,0.3,0.2,0.4,0.2
			c0.1,0,0.2,0,0.3-0.1c0.2-0.1,0.4-0.3,0.4-0.6V7.3c0-0.3-0.2-0.5-0.4-0.6C23.4,6.7,23.3,6.6,23.2,6.6L23.2,6.6z"/>
	</g>
</g>
</svg>
