<?xml version="1.0" encoding="utf-8"?>
<!-- Generator: Adobe Illustrator 16.0.0, SVG Export Plug-In . SVG Version: 6.00 Build 0)  -->
<!DOCTYPE svg PUBLIC "-//W3C//DTD SVG 1.1//EN" "http://www.w3.org/Graphics/SVG/1.1/DTD/svg11.dtd">
<svg version="1.1" id="Layer_1" xmlns="http://www.w3.org/2000/svg" xmlns:xlink="http://www.w3.org/1999/xlink" x="0px" y="0px"
	 width="24px" height="24px" viewBox="0 0 24 24" enable-background="new 0 0 24 24" xml:space="preserve">
<path fill="#020202" d="M3.72,3.65v12.31H20.6V3.65H3.72z M19.81,15.09H4.5V4.36h15.31V15.09z"/>
<rect x="3.22" y="16.74" fill="#666666" width="17.84" height="1.57"/>
<polygon points="18.44,23.79 16.72,23.79 12,19.06 13.72,19.06 "/>
<polygon points="5.56,23.79 7.28,23.79 12,19.06 10.28,19.06 "/>
<path d="M1.38,2.22c0,0.47,0.38,0.86,0.86,0.86H2.5V1.36H2.23C1.76,1.36,1.38,1.74,1.38,2.22z"/>
<path d="M21.76,1.36v1.72c0.47,0,0.86-0.38,0.86-0.86S22.24,1.36,21.76,1.36z"/>
<path fill="#666666" d="M12,0.21c-0.63,0-1.14,0.51-1.14,1.15H3.22v1.72h17.84V1.36h-7.91C13.14,0.73,12.63,0.21,12,0.21z"/>
<path fill-rule="evenodd" clip-rule="evenodd" fill="#461D7C" d="M17.43,6.19c0,2.41,0,4.83,0,7.33c-1.09-1.21-2.14-2.35-3.19-3.5
	c-0.13,0.1-0.08,0.22-0.08,0.33c0,0.92-0.01,1.83,0,2.75c0,0.25-0.06,0.33-0.27,0.33c-2.27-0.01-4.53-0.01-6.8,0
	c-0.22,0-0.26-0.1-0.26-0.33c0-2.19,0-4.38,0-6.57C6.83,6.26,6.9,6.2,7.1,6.2c2.27,0.01,4.53,0.01,6.8,0c0.22,0,0.26,0.09,0.26,0.33
	c-0.01,1.11,0,2.21,0,3.33c1.06-1.27,2.11-2.52,3.16-3.77C17.36,6.12,17.39,6.15,17.43,6.19z"/>
</svg>
