<?xml version="1.0" encoding="utf-8"?>
<!-- Generator: Adobe Illustrator 16.0.0, SVG Export Plug-In . SVG Version: 6.00 Build 0)  -->
<!DOCTYPE svg PUBLIC "-//W3C//DTD SVG 1.1//EN" "http://www.w3.org/Graphics/SVG/1.1/DTD/svg11.dtd">
<svg version="1.1" id="Layer_1" xmlns="http://www.w3.org/2000/svg" xmlns:xlink="http://www.w3.org/1999/xlink" x="0px" y="0px"
	 width="16px" height="16px" viewBox="0 0 16 16" enable-background="new 0 0 16 16" xml:space="preserve">
<linearGradient id="SVGID_1_" gradientUnits="userSpaceOnUse" x1="311.625" y1="-381" x2="314" y2="-381" gradientTransform="matrix(1 0 0 -1 -298 -370)">
	<stop  offset="0.4172" style="stop-color:#EF2929"/>
	<stop  offset="0.5583" style="stop-color:#CC0000"/>
</linearGradient>
<rect x="13.625" y="9" fill="url(#SVGID_1_)" width="2.375" height="4"/>
<linearGradient id="SVGID_2_" gradientUnits="userSpaceOnUse" x1="311.625" y1="-377" x2="314" y2="-377" gradientTransform="matrix(1 0 0 -1 -298 -370)">
	<stop  offset="0.4172" style="stop-color:#9DB029"/>
	<stop  offset="0.5583" style="stop-color:#727E0A"/>
</linearGradient>
<rect x="13.625" y="5" fill="url(#SVGID_2_)" width="2.375" height="4"/>
<linearGradient id="SVGID_3_" gradientUnits="userSpaceOnUse" x1="311.625" y1="-374" x2="314" y2="-374" gradientTransform="matrix(1 0 0 -1 -298 -370)">
	<stop  offset="0.4172" style="stop-color:#FCE94F"/>
	<stop  offset="0.5583" style="stop-color:#EDD400"/>
</linearGradient>
<rect x="13.625" y="2" fill="url(#SVGID_3_)" width="2.375" height="4"/>
<path fill="#5A7AA4" d="M2.209,16c0.75,0,11.812,0,11.812,0V0c0,0-10.75,0-11.938,0c-1.188,0-2,1.187-2,2.375
	c0,0.898,0,10.25,0,11.75S1.458,16,2.209,16z"/>
<linearGradient id="SVGID_4_" gradientUnits="userSpaceOnUse" x1="305.2168" y1="-384.9917" x2="305.2168" y2="-381.9917" gradientTransform="matrix(1 0 0 -1 -298 -370)">
	<stop  offset="0.362" style="stop-color:#DDDDDD"/>
	<stop  offset="0.5521" style="stop-color:#B7B7B7"/>
</linearGradient>
<path fill="url(#SVGID_4_)" d="M13.092,14.992H2.842c-0.828,0-1.5-0.672-1.5-1.5l0,0c0-0.828,0.672-1.5,1.5-1.5H12.1v1.938
	l0.992-0.008V14.992z"/>
<linearGradient id="SVGID_5_" gradientUnits="userSpaceOnUse" x1="299.2246" y1="-376.4883" x2="311.21" y2="-376.4883" gradientTransform="matrix(1 0 0 -1 -298 -370)">
	<stop  offset="0" style="stop-color:#CEDAE8"/>
	<stop  offset="0.589" style="stop-color:#87A1BF"/>
	<stop  offset="1" style="stop-color:#ACC3DA"/>
</linearGradient>
<path fill="url(#SVGID_5_)" d="M1.225,11.992V2.609c0,0,0.328-1.625,2.017-1.625h9.969v10.047c0,0-10.5,0-11.016,0
	C1.678,11.031,1.225,11.359,1.225,11.992z"/>
</svg>
