<?xml version="1.0" encoding="utf-8"?>
<!-- Generator: Adobe Illustrator 16.0.0, SVG Export Plug-In . SVG Version: 6.00 Build 0)  -->
<!DOCTYPE svg PUBLIC "-//W3C//DTD SVG 1.1//EN" "http://www.w3.org/Graphics/SVG/1.1/DTD/svg11.dtd">
<svg version="1.1" id="Layer_1" xmlns="http://www.w3.org/2000/svg" xmlns:xlink="http://www.w3.org/1999/xlink" x="0px" y="0px"
	 width="24px" height="24px" viewBox="0 0 24 24" enable-background="new 0 0 24 24" xml:space="preserve">
<g>
	<path fill-rule="evenodd" clip-rule="evenodd" fill="#FFFFFF" d="M24,21c0,1.7-1.3,3-3,3H3c-1.7,0-3-1.3-3-3V3c0-1.7,1.3-3,3-3h18
		c1.7,0,3,1.3,3,3V21z"/>
</g>
<g>
	<g>
		<path fill-rule="evenodd" clip-rule="evenodd" fill="#069751" d="M4.7,21.5c-0.2-0.1-0.3-0.3-0.4-0.5c-0.5-1.1-1.2-2.2-1.8-3.2
			C2,17,1.6,16.3,1.1,15.5c-0.1-0.2-0.1-0.4,0-0.6c1.5-2.5,2.9-5,4.4-7.5c0.9-1.5,1.8-3,2.6-4.5c0.1-0.1,0.1-0.2,0.2-0.3
			c0.4,0.7,0.8,1.3,1.2,2C10.3,6,11.2,7.4,12,8.9C12,8.9,11.9,9,11.9,9.1c-0.7,1.3-1.5,2.6-2.2,3.9c-0.5,0.8-1,1.6-1.4,2.5
			C7,17.5,5.8,19.5,4.7,21.5z"/>
		<path fill-rule="evenodd" clip-rule="evenodd" fill="#F9C743" d="M12,8.9C11.2,7.4,10.3,6,9.5,4.5c-0.4-0.7-0.8-1.3-1.2-2
			c0.1,0,0.2,0,0.3,0c2.3,0,4.5,0,6.8,0c0.2,0,0.3,0.1,0.4,0.2c0.5,0.8,1,1.7,1.4,2.5c1.9,3.3,3.8,6.6,5.6,9.9
			c0.1,0.1,0.1,0.2,0.1,0.3c-0.3,0-0.7,0-1,0c-2.1,0-4.1,0-6.2,0c0-0.1-0.1-0.2-0.1-0.3c-0.8-1.3-1.5-2.6-2.3-3.9
			C12.9,10.4,12.5,9.7,12,8.9z"/>
		<path fill-rule="evenodd" clip-rule="evenodd" fill="#4583EE" d="M15.8,15.4c2.1,0,4.1,0,6.2,0c0.3,0,0.7,0,1,0
			c-0.2,0.4-0.4,0.7-0.6,1.1c-1,1.6-1.9,3.2-2.9,4.8c-0.1,0.2-0.2,0.2-0.4,0.2c-4.7,0-9.5,0-14.2,0c-0.1,0-0.2,0-0.2,0
			c1.2-2,2.4-4.1,3.5-6.1c0.1,0,0.2,0,0.3,0C11,15.4,13.4,15.4,15.8,15.4z"/>
	</g>
	<g>
		<path fill-rule="evenodd" clip-rule="evenodd" fill="#C49C2D" d="M13.9,12c0.3,0,0.5,0.1,0.7,0.2c2.7,1,5.4,2,8.1,3
			c0.1,0,0.2,0.1,0.3,0c0,0,0.1,0.1,0,0.1c-2.3,0-4.5,0-6.8,0c-0.1,0-0.2,0-0.4,0c-0.4-0.7-0.8-1.4-1.2-2.2
			C14.3,12.8,14.1,12.5,13.9,12z"/>
		<path fill-rule="evenodd" clip-rule="evenodd" fill="#067A41" d="M8.8,4.9C8.6,4.3,8.5,3.6,8.4,3c0-0.1,0-0.2,0-0.3
			c0.6,1,1.2,2.1,1.8,3.1c0.5,0.9,1,1.8,1.6,2.6c0.1,0.1,0.1,0.3,0.2,0.4c-0.2,0.2-0.3,0.4-0.4,0.6c-0.5,0.9-1,1.8-1.6,2.7
			c-0.1-0.5-0.1-1.1-0.3-1.6C9.6,9.7,9.5,8.8,9.3,7.9C9.1,6.9,8.9,5.9,8.8,4.9z"/>
		<path fill-rule="evenodd" clip-rule="evenodd" fill="#3869BB" d="M11.9,15.4c-0.2,0.3-0.5,0.4-0.7,0.7c-0.2,0.2-0.5,0.4-0.7,0.6
			c-1.5,1.2-3,2.5-4.5,3.7c-0.4,0.3-0.7,0.6-1.1,0.9c-0.1,0.1-0.1,0.1-0.2,0.1c0.3-0.6,0.6-1.1,1-1.7c0.8-1.4,1.7-2.8,2.5-4.2
			C9.4,15.4,10.7,15.4,11.9,15.4z"/>
	</g>
</g>
<linearGradient id="SVGID_1_" gradientUnits="userSpaceOnUse" x1="280.5" y1="761.0674" x2="280.5" y2="774.1013" gradientTransform="matrix(1 0 0 1 -268.5 -761)">
	<stop  offset="0" style="stop-color:#FFFFFF;stop-opacity:0.85"/>
	<stop  offset="0.66" style="stop-color:#FFFFFF;stop-opacity:0"/>
</linearGradient>
<path fill="url(#SVGID_1_)" d="M20.2,0H3.6C1.6,0,0,1.6,0,3.6v7.1c3.7,1.5,7.7,2.3,11.9,2.3c4.3,0,8.4-0.9,12.1-2.4v-7
	C23.8,1.6,22.2,0,20.2,0z"/>
<g>
	<path fill="#CCCCCC" d="M21,0.5c1.4,0,2.5,1.1,2.5,2.5v18c0,1.4-1.1,2.5-2.5,2.5H3c-1.4,0-2.5-1.1-2.5-2.5V3c0-1.4,1.1-2.5,2.5-2.5
		H21 M21,0H3C1.3,0,0,1.3,0,3v18c0,1.7,1.3,3,3,3h18c1.7,0,3-1.3,3-3V3C24,1.3,22.7,0,21,0L21,0z"/>
</g>
</svg>
