<?xml version="1.0" encoding="utf-8"?>
<!-- Generator: Adobe Illustrator 16.0.0, SVG Export Plug-In . SVG Version: 6.00 Build 0)  -->
<!DOCTYPE svg PUBLIC "-//W3C//DTD SVG 1.1//EN" "http://www.w3.org/Graphics/SVG/1.1/DTD/svg11.dtd">
<svg version="1.1" id="Layer_1" xmlns="http://www.w3.org/2000/svg" xmlns:xlink="http://www.w3.org/1999/xlink" x="0px" y="0px"
	 width="24px" height="24px" viewBox="0 0 24 24" enable-background="new 0 0 24 24" xml:space="preserve">
<g>
	<g>
		<defs>
			<rect id="SVGID_1_" width="24" height="24"/>
		</defs>
		<clipPath id="SVGID_2_">
			<use xlink:href="#SVGID_1_"  overflow="visible"/>
		</clipPath>
		<path clip-path="url(#SVGID_2_)" fill="#FFFFFF" d="M12,12l0,4.8l0,0.2c0,2.7,2.2,5,5,5c2.7,0,5-2.2,5-5c0-2.7-2.2-5-5-5L12,12z"
			/>
	</g>
	<g>
		<defs>
			<rect id="SVGID_3_" width="24" height="24"/>
		</defs>
		<clipPath id="SVGID_4_">
			<use xlink:href="#SVGID_3_"  overflow="visible"/>
		</clipPath>
		<path clip-path="url(#SVGID_4_)" fill="#FFFFFF" d="M12,12l3.4-3.4l0.1-0.1c1.9-1.9,5.1-1.9,7,0c1.9,1.9,1.9,5.1,0,7
			c-1.9,1.9-5.1,1.9-7,0L12,12z"/>
	</g>
	<g>
		<defs>
			<rect id="SVGID_5_" width="24" height="24"/>
		</defs>
		<clipPath id="SVGID_6_">
			<use xlink:href="#SVGID_5_"  overflow="visible"/>
		</clipPath>
		<path clip-path="url(#SVGID_6_)" fill="#FFFFFF" d="M12,12l3.4-3.4l0.1-0.1c1.9-1.9,5.1-1.9,7,0c1.9,1.9,1.9,5.1,0,7
			c-1.9,1.9-5.1,1.9-7,0L12,12z"/>
	</g>
	<g>
		<defs>
			<rect id="SVGID_7_" width="24" height="24"/>
		</defs>
		<clipPath id="SVGID_8_">
			<use xlink:href="#SVGID_7_"  overflow="visible"/>
		</clipPath>
		<path clip-path="url(#SVGID_8_)" fill="#FFFFFF" d="M12,12l3.4-3.4l0.1-0.1c1.9-1.9,5.1-1.9,7,0c1.9,1.9,1.9,5.1,0,7
			c-0.2,0.2-0.4,0.4-0.7,0.6C21.4,13.8,19.4,12,17,12L12,12L12,12z"/>
	</g>
	<g>
		<defs>
			<rect id="SVGID_9_" width="24" height="24"/>
		</defs>
		<clipPath id="SVGID_10_">
			<use xlink:href="#SVGID_9_"  overflow="visible"/>
		</clipPath>
		<path clip-path="url(#SVGID_10_)" fill="#7BC143" d="M16,15.1c1.7,1.7,4.4,1.7,6.1,0c1.7-1.7,1.7-4.4,0-6.1
			c-1.7-1.7-4.4-1.7-6.1,0l-0.1,0.1L12.9,12L16,15.1L16,15.1z"/>
	</g>
	<g>
		<defs>
			<rect id="SVGID_11_" width="24" height="24"/>
		</defs>
		<clipPath id="SVGID_12_">
			<use xlink:href="#SVGID_11_"  overflow="visible"/>
		</clipPath>
		<path clip-path="url(#SVGID_12_)" fill="#FFFFFF" d="M12,12l0-4.8L12,7c0-2.7,2.2-5,5-5c2.7,0,5,2.2,5,5c0,2.7-2.2,5-5,5L12,12z"
			/>
	</g>
	<g>
		<defs>
			<rect id="SVGID_13_" width="24" height="24"/>
		</defs>
		<clipPath id="SVGID_14_">
			<use xlink:href="#SVGID_13_"  overflow="visible"/>
		</clipPath>
		<path clip-path="url(#SVGID_14_)" fill="#7BC143" d="M17,11.4c2.4,0,4.3-1.9,4.3-4.3c0-2.4-1.9-4.3-4.3-4.3
			c-2.4,0-4.3,1.9-4.3,4.3l0,0.2l0,4.2L17,11.4L17,11.4z"/>
	</g>
	<g>
		<defs>
			<rect id="SVGID_15_" width="24" height="24"/>
		</defs>
		<clipPath id="SVGID_16_">
			<use xlink:href="#SVGID_15_"  overflow="visible"/>
		</clipPath>
		<path clip-path="url(#SVGID_16_)" fill="#FFFFFF" d="M12,12L8.6,8.6L8.5,8.5c-1.9-1.9-1.9-5.1,0-7c1.9-1.9,5.1-1.9,7,0
			c1.9,1.9,1.9,5.1,0,7L12,12z"/>
	</g>
	<g>
		<defs>
			<rect id="SVGID_17_" width="24" height="24"/>
		</defs>
		<clipPath id="SVGID_18_">
			<use xlink:href="#SVGID_17_"  overflow="visible"/>
		</clipPath>
		<path clip-path="url(#SVGID_18_)" fill="#7BC143" d="M15.1,8c1.7-1.7,1.7-4.4,0-6.1c-1.7-1.7-4.4-1.7-6.1,0C7.2,3.6,7.2,6.3,8.9,8
			l0.1,0.1l2.9,2.9L15.1,8L15.1,8z"/>
	</g>
	<g>
		<defs>
			<rect id="SVGID_19_" width="24" height="24"/>
		</defs>
		<clipPath id="SVGID_20_">
			<use xlink:href="#SVGID_19_"  overflow="visible"/>
		</clipPath>
		<path clip-path="url(#SVGID_20_)" fill="#FFFFFF" d="M12,12l-4.8,0L7,12c-2.7,0-5-2.2-5-5c0-2.7,2.2-5,5-5c2.7,0,5,2.2,5,5L12,12z
			"/>
	</g>
	<g>
		<defs>
			<rect id="SVGID_21_" width="24" height="24"/>
		</defs>
		<clipPath id="SVGID_22_">
			<use xlink:href="#SVGID_21_"  overflow="visible"/>
		</clipPath>
		<path clip-path="url(#SVGID_22_)" fill="#7BC143" d="M11.4,7c0-2.4-1.9-4.3-4.3-4.3C4.6,2.7,2.7,4.6,2.7,7c0,2.4,1.9,4.3,4.3,4.3
			l0.2,0l4.2,0L11.4,7L11.4,7z"/>
	</g>
	<g>
		<defs>
			<rect id="SVGID_23_" width="24" height="24"/>
		</defs>
		<clipPath id="SVGID_24_">
			<use xlink:href="#SVGID_23_"  overflow="visible"/>
		</clipPath>
		<path clip-path="url(#SVGID_24_)" fill="#FFFFFF" d="M12,12l-3.4,3.4l-0.1,0.1c-1.9,1.9-5.1,1.9-7,0c-1.9-1.9-1.9-5.1,0-7
			c1.9-1.9,5.1-1.9,7,0L12,12z"/>
	</g>
	<g>
		<defs>
			<rect id="SVGID_25_" width="24" height="24"/>
		</defs>
		<clipPath id="SVGID_26_">
			<use xlink:href="#SVGID_25_"  overflow="visible"/>
		</clipPath>
		<path clip-path="url(#SVGID_26_)" fill="#F8981D" d="M8,8.9c-1.7-1.7-4.4-1.7-6.1,0c-1.7,1.7-1.7,4.4,0,6.1c1.7,1.7,4.4,1.7,6.1,0
			l0.1-0.1l2.9-2.9L8,8.9L8,8.9z"/>
	</g>
	<g>
		<defs>
			<rect id="SVGID_27_" width="24" height="24"/>
		</defs>
		<clipPath id="SVGID_28_">
			<use xlink:href="#SVGID_27_"  overflow="visible"/>
		</clipPath>
		<path clip-path="url(#SVGID_28_)" fill="#FFFFFF" d="M12,12l0,4.8l0,0.2c0,2.7-2.2,5-5,5c-2.7,0-5-2.2-5-5c0-2.7,2.2-5,5-5L12,12z
			"/>
	</g>
	<g>
		<defs>
			<rect id="SVGID_29_" width="24" height="24"/>
		</defs>
		<clipPath id="SVGID_30_">
			<use xlink:href="#SVGID_29_"  overflow="visible"/>
		</clipPath>
		<path clip-path="url(#SVGID_30_)" fill="#007DC3" d="M7,12.6c-2.4,0-4.3,1.9-4.3,4.3c0,2.4,1.9,4.3,4.3,4.3c2.4,0,4.3-1.9,4.3-4.3
			l0-0.2l0-4.2L7,12.6L7,12.6z"/>
	</g>
	<g>
		<defs>
			<rect id="SVGID_31_" width="24" height="24"/>
		</defs>
		<clipPath id="SVGID_32_">
			<use xlink:href="#SVGID_31_"  overflow="visible"/>
		</clipPath>
		<path clip-path="url(#SVGID_32_)" fill="#FFFFFF" d="M12,12l3.4,3.4l0.1,0.1c1.9,1.9,1.9,5.1,0,7c-1.9,1.9-5.1,1.9-7,0
			c-1.9-1.9-1.9-5.1,0-7L12,12z"/>
	</g>
	<g>
		<defs>
			<rect id="SVGID_33_" width="24" height="24"/>
		</defs>
		<clipPath id="SVGID_34_">
			<use xlink:href="#SVGID_33_"  overflow="visible"/>
		</clipPath>
		<path clip-path="url(#SVGID_34_)" fill="#007DC3" d="M8.9,16c-1.7,1.7-1.7,4.4,0,6.1c1.7,1.7,4.4,1.7,6.1,0c1.7-1.7,1.7-4.4,0-6.1
			l-0.1-0.1L12,12.9L8.9,16L8.9,16z"/>
	</g>
	<g>
		<defs>
			<rect id="SVGID_35_" width="24" height="24"/>
		</defs>
		<clipPath id="SVGID_36_">
			<use xlink:href="#SVGID_35_"  overflow="visible"/>
		</clipPath>
		<path clip-path="url(#SVGID_36_)" fill="#FFFFFF" d="M12,12l8.5,8.5c-0.9,0.9-2.1,1.5-3.5,1.5c-2.7,0-5-2.2-5-5L12,12z"/>
	</g>
	<g>
		<defs>
			<rect id="SVGID_37_" width="24" height="24"/>
		</defs>
		<clipPath id="SVGID_38_">
			<use xlink:href="#SVGID_37_"  overflow="visible"/>
		</clipPath>
		<path clip-path="url(#SVGID_38_)" fill="#007DC3" d="M12.6,17l0-4.3l2.9,2.9c1.6,1.6,3.9,1.9,5.8,0.9c0,0.2,0,0.4,0,0.5
			c0,2.4-1.9,4.3-4.3,4.3C14.6,21.3,12.6,19.4,12.6,17"/>
	</g>
	<g>
		<defs>
			<rect id="SVGID_39_" width="24" height="24"/>
		</defs>
		<clipPath id="SVGID_40_">
			<use xlink:href="#SVGID_39_"  overflow="visible"/>
		</clipPath>
		<path clip-path="url(#SVGID_40_)" fill="#00539B" d="M12.6,17l0-3.4l2.3,2.3l0.1,0.1c1.4,1.4,1.6,3.5,0.7,5.2
			C14,20.6,12.6,19,12.6,17L12.6,17z"/>
	</g>
	<g>
		<defs>
			<rect id="SVGID_41_" width="24" height="24"/>
		</defs>
		<clipPath id="SVGID_42_">
			<use xlink:href="#SVGID_41_"  overflow="visible"/>
		</clipPath>
		<path clip-path="url(#SVGID_42_)" fill="#00539B" d="M8.9,16l2.4-2.4l0,3.3l0,0.2c0,2-1.3,3.7-3.2,4.2C7.3,19.5,7.5,17.4,8.9,16
			L8.9,16z"/>
	</g>
	<g>
		<defs>
			<rect id="SVGID_43_" width="24" height="24"/>
		</defs>
		<clipPath id="SVGID_44_">
			<use xlink:href="#SVGID_43_"  overflow="visible"/>
		</clipPath>
		<path clip-path="url(#SVGID_44_)" fill="#00539B" d="M7,12.6l3.4,0l-2.3,2.3L8,15.1c-1.4,1.4-3.5,1.6-5.2,0.7
			C3.3,14,5,12.6,7,12.6L7,12.6z"/>
	</g>
	<g>
		<defs>
			<rect id="SVGID_45_" width="24" height="24"/>
		</defs>
		<clipPath id="SVGID_46_">
			<use xlink:href="#SVGID_45_"  overflow="visible"/>
		</clipPath>
		<path clip-path="url(#SVGID_46_)" fill="#FFC222" d="M8,8.9l2.4,2.4l-3.3,0l-0.2,0c-2,0-3.7-1.3-4.2-3.2C4.5,7.3,6.6,7.5,8,8.9
			L8,8.9z"/>
	</g>
	<g>
		<defs>
			<rect id="SVGID_47_" width="24" height="24"/>
		</defs>
		<clipPath id="SVGID_48_">
			<use xlink:href="#SVGID_47_"  overflow="visible"/>
		</clipPath>
		<path clip-path="url(#SVGID_48_)" fill="#00B25A" d="M11.4,7l0,3.4L9,8.2L8.9,8C7.5,6.6,7.3,4.5,8.2,2.9C10,3.4,11.4,5.1,11.4,7
			L11.4,7z"/>
	</g>
	<g>
		<defs>
			<rect id="SVGID_49_" width="24" height="24"/>
		</defs>
		<clipPath id="SVGID_50_">
			<use xlink:href="#SVGID_49_"  overflow="visible"/>
		</clipPath>
		<path clip-path="url(#SVGID_50_)" fill="#00B25A" d="M15,8.1l-2.4,2.4l0-3.3l0-0.2c0-2,1.3-3.7,3.2-4.2C16.7,4.5,16.5,6.6,15,8.1
			L15,8.1z"/>
	</g>
	<g>
		<defs>
			<rect id="SVGID_51_" width="24" height="24"/>
		</defs>
		<clipPath id="SVGID_52_">
			<use xlink:href="#SVGID_51_"  overflow="visible"/>
		</clipPath>
		<path clip-path="url(#SVGID_52_)" fill="#00B25A" d="M17,11.4l-3.4,0L15.8,9L16,8.9c1.4-1.4,3.5-1.6,5.2-0.7
			C20.6,10,18.9,11.4,17,11.4L17,11.4z"/>
	</g>
	<g>
		<defs>
			<rect id="SVGID_53_" width="24" height="24"/>
		</defs>
		<clipPath id="SVGID_54_">
			<use xlink:href="#SVGID_53_"  overflow="visible"/>
		</clipPath>
		<path clip-path="url(#SVGID_54_)" fill="#00B25A" d="M16,15l-2.4-2.4l3.3,0l0.2,0c2,0,3.7,1.3,4.2,3.2C19.5,16.7,17.4,16.5,16,15
			L16,15z"/>
	</g>
</g>
</svg>
