<?xml version="1.0" encoding="utf-8"?>
<!-- Generator: Adobe Illustrator 16.0.0, SVG Export Plug-In . SVG Version: 6.00 Build 0)  -->
<!DOCTYPE svg PUBLIC "-//W3C//DTD SVG 1.1//EN" "http://www.w3.org/Graphics/SVG/1.1/DTD/svg11.dtd">
<svg version="1.1" id="Layer_1" xmlns="http://www.w3.org/2000/svg" xmlns:xlink="http://www.w3.org/1999/xlink" x="0px" y="0px"
	 width="80px" height="80px" viewBox="0 0 80 80" enable-background="new 0 0 80 80" xml:space="preserve">
<path fill="#FFFFFF" stroke="#CC99CC" stroke-width="2.2585" stroke-miterlimit="10" d="M72.5,73.151
	c0,2.329-2.119,4.349-4.887,4.349H12.387c-2.77,0-4.887-1.864-4.887-4.349V10.418c0-2.329,2.118-4.347,4.887-4.347h55.226
	c2.768,0,4.887,1.864,4.887,4.347V73.151z"/>
<path fill="#CC99CC" d="M67.938,70.201H17.274c-2.769,0-5.05-1.862-5.05-4.037v-8.073c0-2.175,2.281-4.037,5.05-4.037h50.664V70.201
	z"/>
<rect x="64.391" y="57.001" fill="#FFFFFF" width="4" height="10.252"/>
<path fill="#CC99CC" stroke="#FFFFFF" stroke-width="2.2838" stroke-linecap="round" stroke-linejoin="round" stroke-miterlimit="10" d="
	M50.019,6.692c0,1.708-1.304,3.105-3.095,3.105h-14.01c-1.629,0-3.095-1.397-3.095-3.105V5.606c0-1.708,1.303-3.106,3.095-3.106
	h14.01c1.629,0,3.095,1.397,3.095,3.106V6.692z"/>
<path fill="#CC99CC" d="M67.938,29.363H17.274c-2.769,0-5.05-1.863-5.05-4.037v-8.074c0-2.175,2.281-4.038,5.05-4.038h50.664V29.363
	z"/>
<rect x="64.391" y="16.32" fill="#FFFFFF" width="4" height="10.249"/>
<path fill="#CC99CC" d="M67.938,49.859H17.274c-2.769,0-5.05-1.862-5.05-4.036v-8.075c0-2.174,2.281-4.037,5.05-4.037h50.664V49.859
	z"/>
<rect x="64.391" y="36.662" fill="#FFFFFF" width="4" height="10.247"/>
</svg>
