<?xml version="1.0" encoding="utf-8"?>
<!-- Generator: Adobe Illustrator 16.0.0, SVG Export Plug-In . SVG Version: 6.00 Build 0)  -->
<!DOCTYPE svg PUBLIC "-//W3C//DTD SVG 1.1//EN" "http://www.w3.org/Graphics/SVG/1.1/DTD/svg11.dtd">
<svg version="1.1" id="Layer_1" xmlns="http://www.w3.org/2000/svg" xmlns:xlink="http://www.w3.org/1999/xlink" x="0px" y="0px"
	 width="80px" height="80px" viewBox="0 0 80 80" enable-background="new 0 0 80 80" xml:space="preserve">
<path id="path22" fill="#A33639" d="M41.8,0h5.4c0,2.7,0,5.4,0,8.1c8.8-1.1,18-1.1,26.4,2
	c3.2,1.1,6.6,3.6,6.3,7.5c0,14.3,0,28.6,0,42.9c0.3,3.9-3.2,6.4-6.4,7.5C65.1,70.9,56,71.3,47.3,70c0,3.3,0,6.7,0,10h-5.7
	C27.7,77.4,13.9,75,0,72.6C0,50.9,0,29.2,0,7.5C13.9,5,27.9,2.5,41.8,0z"/>
<path id="path50" fill="#FFFFFF" d="M47.3,10.9c8.1-1.1,16.6-1.1,24.5,1.4
	c2.2,0.8,5.1,1.8,5.6,4.5c-0.4,2.2-2.6,3.1-4.3,3.9c-8.2,2.8-17.2,3.1-25.7,1.8C47.3,18.6,47.3,14.8,47.3,10.9L47.3,10.9z"/>
<path id="path66" fill="#FFFFFF" d="M65.9,25.4c4-0.6,8.2-1.5,11.4-4.1c-0.2,4,0.3,8-0.3,12
	c-1.6,2-4.2,2.7-6.5,3.4c-7.6,1.8-15.5,1.9-23.2,0.9c0-4,0-8,0-12.1C53.4,26.3,59.7,26.2,65.9,25.4L65.9,25.4z"/>
<g>
	<path id="path78_2_" fill="#FFFFFF" d="M16.7,15.8c3-0.6,5.9-1.1,8.9-1.7
		c4.8,17.6,8.9,35.4,13.7,53c-3.3-0.5-6.5-1.1-9.7-1.7c-0.9-3.6-1.7-7.4-2.6-11.4c-4.1-0.4-8.1-1-12.1-1.6c-0.8,3.4-1.6,6.6-2.4,9.8
		C10,61.6,7.5,61,5,60.4C9.1,45.6,13,30.7,16.7,15.8L16.7,15.8z"/>
</g>
<path id="path98" fill="#A33639" d="M18.6,42.6c0.9-4.4,2.3-8.6,2.9-13c0.8,4.4,2.1,8.7,3.1,13.1
	C22.6,42.6,20.6,42.6,18.6,42.6z"/>
<path id="path110" fill="#FFFFFF" d="M65.9,40.3c4-0.6,8.1-1.5,11.4-4.1c-0.2,4,0.3,8-0.3,12
	c-1.6,2-4.2,2.7-6.5,3.4c-7.6,1.9-15.6,1.9-23.3,0.9c0-4,0-8,0-12.1C53.5,41.1,59.7,41.1,65.9,40.3z"/>
<path id="path118" fill="#FFFFFF" d="M65.9,55.2c4-0.6,8.2-1.5,11.4-4.1c-0.2,4,0.3,8-0.3,12
	c-2.6,2.9-6.7,3.4-10.2,4.1c-6.5,1-13.1,1-19.6,0.1c0.1-4,0-8,0-12C53.4,56,59.7,56,65.9,55.2z"/>
</svg>
