<?xml version="1.0" encoding="utf-8"?>
<!-- Generator: Adobe Illustrator 16.0.0, SVG Export Plug-In . SVG Version: 6.00 Build 0)  -->
<!DOCTYPE svg PUBLIC "-//W3C//DTD SVG 1.1//EN" "http://www.w3.org/Graphics/SVG/1.1/DTD/svg11.dtd">
<svg version="1.1" id="Layer_1" xmlns="http://www.w3.org/2000/svg" xmlns:xlink="http://www.w3.org/1999/xlink" x="0px" y="0px"
	 width="24px" height="24px" viewBox="0 0 24 24" enable-background="new 0 0 24 24" xml:space="preserve">
<path id="shapePath1" fill="#2A5699" d="M12.5,0h1.6c0,0.7,0,1.5,0,2.2c2.9,0,5.8,0,8.7,0C23.5,2.2,24,2.7,24,3.3c0,5.5,0,11,0,16.5
	c0,0.6,0.1,1.2-0.3,1.7c-0.4,0.3-0.9,0.3-1.4,0.3c-2.7,0-5.5,0-8.2,0c0,0.7,0,1.5,0,2.2h-1.7C8.3,23.2,4.2,22.5,0,21.8
	c0-6.5,0-13,0-19.5C4.2,1.5,8.4,0.8,12.5,0z"/>
<path id="shapePath2" fill="#FFFFFF" d="M14.2,3.1c3,0,6,0,9,0c0,6,0,11.9,0,17.9c-3,0-6,0-9,0c0-0.7,0-1.5,0-2.2c2.4,0,4.7,0,7.1,0
	c0-0.4,0-0.7,0-1.1c-2.4,0-4.7,0-7.1,0c0-0.5,0-0.9,0-1.4c2.4,0,4.7,0,7.1,0c0-0.4,0-0.7,0-1.1c-2.4,0-4.7,0-7.1,0
	c0-0.5,0-0.9,0-1.4c2.4,0,4.7,0,7.1,0c0-0.4,0-0.7,0-1.1c-2.4,0-4.7,0-7.1,0c0-0.5,0-0.9,0-1.4c2.4,0,4.7,0,7.1,0c0-0.4,0-0.7,0-1.1
	c-2.4,0-4.7,0-7.1,0c0-0.5,0-0.9,0-1.4c2.4,0,4.7,0,7.1,0c0-0.4,0-0.7,0-1.1c-2.4,0-4.7,0-7.1,0c0-0.5,0-0.9,0-1.4
	c2.4,0,4.7,0,7.1,0c0-0.4,0-0.7,0-1.1c-2.4,0-4.7,0-7.1,0C14.2,4.4,14.2,3.7,14.2,3.1z"/>
<g>
	<path id="shapePath3_2_" fill="#FFFFFF" d="M5.9,5.2c0.7-0.2,1.4-0.3,2-0.5c0.4,2.9,0.9,7.1,1.4,11c0.4-3.8,0.9-8.6,1.3-11.7
		c0.7-0.2,1.4-0.4,2.2-0.6C12,7.7,11.3,16,10.4,20c-0.6,0.2-1.5-0.3-2.2-0.4c-0.5-3-1-7-1.4-10.5c-0.4,3.4-1,6.9-1.5,9.6
		c-0.7-0.2-1.4-0.4-2.1-0.6c-0.6-4-1.3-8.1-1.9-11.7c0.7-0.2,1.4-0.3,2-0.5c0.4,2.7,0.8,5.8,1.1,9C4.8,11.8,5.4,8.2,5.9,5.2z"/>
</g>
</svg>
