<?xml version="1.0" encoding="utf-8"?>
<!-- Generator: Adobe Illustrator 16.0.0, SVG Export Plug-In . SVG Version: 6.00 Build 0)  -->
<!DOCTYPE svg PUBLIC "-//W3C//DTD SVG 1.1//EN" "http://www.w3.org/Graphics/SVG/1.1/DTD/svg11.dtd">
<svg version="1.1" id="Layer_1" xmlns="http://www.w3.org/2000/svg" xmlns:xlink="http://www.w3.org/1999/xlink" x="0px" y="0px"
	 width="80px" height="80px" viewBox="-28 -28 80 80" enable-background="new -28 -28 80 80" xml:space="preserve">
<path id="shapePath1" fill="#2A5699" d="M13.6-28H19c0,2.3,0,5,0,7.3c9.7,0,19.3,0,29,0c2.3,0,4,1.7,4,3.7c0,18.3,0,36.7,0,55
	c0,2,0.3,4-1,5.7c-1.3,1-3,1-4.7,1c-9,0-18.3,0-27.3,0c0,2.3,0,5,0,7.3h-5.7C-0.3,49.3-14,47-28,44.7c0-21.7,0-43.3,0-65
	C-14-23,0-25.3,13.6-28z"/>
<path id="shapePath2" fill="#FFFFFF" d="M19.3-17.7c10,0,20,0,30,0c0,20,0,39.7,0,59.7c-10,0-20,0-30,0c0-2.3,0-5,0-7.3
	c8,0,15.7,0,23.7,0c0-1.3,0-2.3,0-3.7c-8,0-15.7,0-23.7,0c0-1.7,0-3,0-4.7c8,0,15.7,0,23.7,0c0-1.3,0-2.3,0-3.7c-8,0-15.7,0-23.7,0
	c0-1.7,0-3,0-4.7c8,0,15.7,0,23.7,0c0-1.3,0-2.3,0-3.7c-8,0-15.7,0-23.7,0c0-1.7,0-3,0-4.7c8,0,15.7,0,23.7,0c0-1.3,0-2.3,0-3.7
	c-8,0-15.7,0-23.7,0c0-1.7,0-3,0-4.7c8,0,15.7,0,23.7,0C43,0,43-1,43-2.3c-8,0-15.7,0-23.7,0c0-1.7,0-3,0-4.7C27.3-7,35-7,43-7
	c0-1.3,0-2.3,0-3.7c-8,0-15.7,0-23.7,0C19.3-13.3,19.3-15.7,19.3-17.7z"/>
<g>
	<path id="shapePath3_2_" fill="#FFFFFF" d="M-8.3-10.7c2.3-0.7,4.7-1,6.7-1.7c1.3,9.7,3,23.7,4.7,36.7c1.3-12.7,3-28.7,4.3-39
		c2.3-0.7,4.7-1.3,7.3-2c-2.7,14.3-5,42-8,55.3c-2,0.7-5-1-7.3-1.3C-2.3,27.3-4,14-5.3,2.3c-1.3,11.3-3.3,23-5,32
		c-2.3-0.7-4.7-1.3-7-2c-2-13.3-4.3-27-6.3-39c2.3-0.7,4.7-1,6.7-1.7c1.3,9,2.7,19.3,3.7,30C-12,11.3-10-0.7-8.3-10.7z"/>
</g>
</svg>
