<?xml version="1.0" encoding="utf-8"?>
<!-- Generator: Adobe Illustrator 16.0.0, SVG Export Plug-In . SVG Version: 6.00 Build 0)  -->
<!DOCTYPE svg PUBLIC "-//W3C//DTD SVG 1.1//EN" "http://www.w3.org/Graphics/SVG/1.1/DTD/svg11.dtd" [
	<!ENTITY ns_flows "http://ns.adobe.com/Flows/1.0/">
	<!ENTITY ns_extend "http://ns.adobe.com/Extensibility/1.0/">
	<!ENTITY ns_ai "http://ns.adobe.com/AdobeIllustrator/10.0/">
	<!ENTITY ns_graphs "http://ns.adobe.com/Graphs/1.0/">
]>
<svg version="1.1" id="Layer_1" xmlns:x="&ns_extend;" xmlns:i="&ns_ai;" xmlns:graph="&ns_graphs;"
	 xmlns="http://www.w3.org/2000/svg" xmlns:xlink="http://www.w3.org/1999/xlink" xmlns:a="http://ns.adobe.com/AdobeSVGViewerExtensions/3.0/"
	 x="0px" y="0px" width="24px" height="24px" viewBox="0 0 24 24" enable-background="new 0 0 24 24" xml:space="preserve">
<g>
	<path fill="#666666" d="M17,0.2H4.4v23.5h17.8V5.4l0,0L17,0.2z"/>
	<path fill="#FFFFFF" d="M16.7,1H5V23h16.5V5.8l0,0L16.7,1z"/>
	<rect x="7" y="21" fill="#666666" width="13" height="1"/>
	<rect x="7" y="19" fill="#666666" width="13" height="1"/>
	<rect x="7" y="17" fill="#666666" width="13" height="1"/>
	<rect x="7" y="15" fill="#666666" width="13" height="1"/>
	<rect x="7" y="13" fill="#666666" width="13" height="1"/>
	<rect x="7" y="11" fill="#666666" width="13" height="1"/>
	<rect x="7" y="9" fill="#666666" width="13" height="1"/>
	<rect x="7" y="7" fill="#666666" width="13" height="1"/>
	<rect x="7" y="5" fill="#666666" width="12" height="1"/>
	<rect x="7" y="3" fill="#666666" width="12" height="1"/>
	<path fill="#335599" d="M11.1,7.4L1.5,8.6V20l9.6,1.1"/>
	<path fill="#FFFFFF" d="M3.9,12l0.9,4.6h0.9l0.7-3.2l0.7,3.2h0.9L8.8,12H8l-0.6,3.2L6.8,12H5.9l-0.6,3.2L4.6,12"/>
	<polygon fill="#666666" points="17,6 17,1 22.1,6 	"/>
	<polygon fill="#FFFFFF" points="18,5 18,2.6 20.4,5 	"/>
</g>
</svg>
