<?xml version="1.0" encoding="utf-8"?>
<!-- Generator: Adobe Illustrator 16.0.0, SVG Export Plug-In . SVG Version: 6.00 Build 0)  -->
<!DOCTYPE svg PUBLIC "-//W3C//DTD SVG 1.1//EN" "http://www.w3.org/Graphics/SVG/1.1/DTD/svg11.dtd">
<svg version="1.1" id="Layer_1" xmlns="http://www.w3.org/2000/svg" xmlns:xlink="http://www.w3.org/1999/xlink" x="0px" y="0px"
	 width="80px" height="80px" viewBox="0 0 80 80" enable-background="new 0 0 80 80" xml:space="preserve">
<path fill="#7549B1" d="M62.9,31H33.8c-6,0-10.8,5.6-11.6,6.4L1.6,60.3C0.9,61,0.3,61.9,0,62.9c0-0.3,0-0.6,0-0.9V20.5
	c0-3.3,0.9-5.2,2.1-6.4c1.8-2,4.5-1.7,6.7-1.7h6.5c2.1,0,5.1,0.4,6.5,1.2c1.6,1,2,3,2.4,5.4c0,0.3,0.2,2.4,0.2,2.4h30
	c1.1,0,2.1,0,3.2,0.4C60.7,22.8,62.9,26.7,62.9,31z"/>
<path fill="#7549B1" d="M10.4,70.5c-2.5,0-6.5-1.5-7.5-4.6c-0.4-1.5-0.1-3.1,1.1-4.2L24.8,39c0.1-0.1,4.8-5.5,10.5-5.5h36.8
	c2.1,0,6.8,0.9,7.7,4c0.2,0.9,0.4,2.6-1.3,4.3L57.7,64.6c-0.4,0.5-0.9,0.6-1.3,1.1c-2,2.2-4.5,4.7-8.9,4.7H10.4z"/>
</svg>
