<?xml version="1.0" encoding="utf-8"?>
<!-- Generator: Adobe Illustrator 16.0.0, SVG Export Plug-In . SVG Version: 6.00 Build 0)  -->
<!DOCTYPE svg PUBLIC "-//W3C//DTD SVG 1.1//EN" "http://www.w3.org/Graphics/SVG/1.1/DTD/svg11.dtd">
<svg version="1.1" id="Layer_1" xmlns="http://www.w3.org/2000/svg" xmlns:xlink="http://www.w3.org/1999/xlink" x="0px" y="0px"
	 width="80px" height="80px" viewBox="0 0 80 80" enable-background="new 0 0 80 80" xml:space="preserve">
<g id="g2991" transform="matrix(1,0,0,-1,68.338988,1368.9491)">
	<path id="path2993" fill="#7549B1" d="M11.7,1339.8c0-10.6,0-21.2,0-31.7c0-2.2,0-4.4-0.9-6.5
		c-1.8-3.9-5.7-6.4-10-6.4c-3.5,0-7.1,0-10.6,0c-13.2,0-26.3,0-39.5,0c-3.1,0-6.4-0.3-9.5,0.1c-5.3,0.6-9.4,5.4-9.4,10.7
		c0,1.1,0,2.1,0,3.2c0,12.4,0,24.9,0,37.3c0,1.7,0,3.4,0,5.1c0,3.6,1.3,6.7,4.2,9c2.7,2.2,5.9,2.3,9.2,2.3c3.3,0,6.6,0,9.9,0
		c3.2,0,6.2,0.1,9-1.9c2.2-1.6,3.9-3.9,4.5-6.6c0.1-0.2,0.3-3.8,0.3-3.8c5,0,9.9,0,14.9,0c5.2,0,10.3,0,15.5,0
		c1.6,0,3.2,0.1,4.8-0.4C8.4,1348.9,11.7,1344.5,11.7,1339.8z"/>
</g>
</svg>
