<?xml version="1.0" encoding="utf-8"?>
<!-- Generator: Adobe Illustrator 16.0.0, SVG Export Plug-In . SVG Version: 6.00 Build 0)  -->
<!DOCTYPE svg PUBLIC "-//W3C//DTD SVG 1.1//EN" "http://www.w3.org/Graphics/SVG/1.1/DTD/svg11.dtd">
<svg version="1.1" id="Layer_1" xmlns="http://www.w3.org/2000/svg" xmlns:xlink="http://www.w3.org/1999/xlink" x="0px" y="0px"
	 width="80px" height="80px" viewBox="0 0 80 80" enable-background="new 0 0 80 80" xml:space="preserve">
<linearGradient id="SVGID_1_" gradientUnits="userSpaceOnUse" x1="61.3711" y1="82.4287" x2="18.6289" y2="8.3971">
	<stop  offset="0" style="stop-color:#56002F"/>
	<stop  offset="1" style="stop-color:#C40075"/>
</linearGradient>
<rect x="0.6" y="18.8" fill="url(#SVGID_1_)" width="78.8" height="53.2"/>
<ellipse fill="#AAAAAA" stroke="#FFFFFF" stroke-width="3" stroke-linecap="round" stroke-linejoin="round" stroke-miterlimit="10" cx="40" cy="45.5" rx="16" ry="14.8"/>
<path fill="#999999" d="M79.4,72.6H0.6C0.3,72.6,0,72.3,0,72V18.8c0-0.3,0.3-0.6,0.6-0.6h78.8c0.3,0,0.6,0.3,0.6,0.6V72
	C80,72.3,79.7,72.6,79.4,72.6z M1.2,71.4h77.6v-52H1.2V71.4z"/>
<rect x="7.5" y="11" fill="#FFFFFF" width="21.6" height="14.8"/>
<path fill="#999999" d="M29.1,26.4H7.5c-0.3,0-0.6-0.3-0.6-0.6V11c0-0.3,0.3-0.6,0.6-0.6h21.6c0.3,0,0.6,0.3,0.6,0.6v14.8
	C29.7,26.2,29.4,26.4,29.1,26.4z M8.1,25.2h20.4V11.6H8.1V25.2z"/>
</svg>
