<?xml version="1.0" encoding="utf-8"?>
<!-- Generator: Adobe Illustrator 16.0.0, SVG Export Plug-In . SVG Version: 6.00 Build 0)  -->
<!DOCTYPE svg PUBLIC "-//W3C//DTD SVG 1.1//EN" "http://www.w3.org/Graphics/SVG/1.1/DTD/svg11.dtd">
<svg version="1.1" id="Layer_1" xmlns="http://www.w3.org/2000/svg" xmlns:xlink="http://www.w3.org/1999/xlink" x="0px" y="0px"
	 width="80px" height="80px" viewBox="0 0 80 80" enable-background="new 0 0 80 80" xml:space="preserve">
<linearGradient id="SVGID_1_" gradientUnits="userSpaceOnUse" x1="65.8564" y1="84.7861" x2="14.1426" y2="-4.7849">
	<stop  offset="0" style="stop-color:#443D54"/>
	<stop  offset="1" style="stop-color:#80729D"/>
</linearGradient>
<path fill-rule="evenodd" clip-rule="evenodd" fill="url(#SVGID_1_)" d="M80,72c0,4.4-3.6,8-8,8H8c-4.4,0-8-3.6-8-8V8
	c0-4.4,3.6-8,8-8h64c4.4,0,8,3.6,8,8V72z"/>
<rect x="21" y="49.2" fill-rule="evenodd" clip-rule="evenodd" fill="#461D7C" width="37.5" height="11.5"/>
<rect x="32.2" y="61.2" fill-rule="evenodd" clip-rule="evenodd" fill="#461D7C" width="16" height="11.5"/>
<g>
	<g>
		<path fill-rule="evenodd" clip-rule="evenodd" fill="#FFFFFF" d="M18,28.9c3.5,1,6.5,2.7,9.3,5.1c3.8-2.8,8-4.2,12.7-4.2
			c4.6,0,8.8,1.4,12.7,4.2c2.7-2.4,5.8-4.1,9.3-5.1c0,0.3,0,0.5,0,0.8c0,7.4,0.1,14.9,0,22.3c-0.2,9-4,15.8-11.5,20.1
			c-8.6,5-19.4,3.3-26.3-4.1c-3.9-4.2-6.1-9.3-6.2-15.2c-0.1-7.8-0.1-15.7-0.1-23.5C17.9,29.2,18,29.1,18,28.9z M56.7,51.5
			c-0.1,0-0.2-0.1-0.3-0.1c-3.1,0.1-6.2,0.2-9.3,0.4c-1.4,0.1-2.6,0.8-3.5,2c-1.2,1.6-1.7,3.5-2.1,5.5c0.1,0,0.1,0.1,0.1,0.1
			c3-0.1,6,0,8.9-0.3C54.4,58.7,56.8,55.5,56.7,51.5z M23.3,51.5c0,0.1,0,0.1,0,0.2c0,4,2.6,7,6.4,7.4c1.6,0.1,3.2,0.2,4.7,0.2
			c1.3,0,2.7,0,4,0c-0.4-1.9-0.9-3.7-2-5.3c-0.8-1.2-2-2-3.4-2.1c-2.2-0.2-4.4-0.3-6.6-0.4C25.4,51.5,24.4,51.5,23.3,51.5z
			 M39.7,72.1c2.1,0,3.9-0.4,5.5-1.2c1.4-0.7,1.5-1.1,0.5-2.4c0-0.1-0.1-0.1-0.2-0.2c-0.3-0.3-0.5-0.4-0.9-0.3
			c-2.9,0.8-5.9,0.8-8.9,0.1c-1.1-0.3-1.3-0.2-1.9,0.9c-0.1,0.2-0.2,0.5-0.3,0.7c-0.2,0.4,0,0.5,0.3,0.7
			C35.8,71.6,37.8,72.1,39.7,72.1z M33.2,62.4c1.5,1.5,3.2,2.6,4.9,3.6c1.3,0.7,2.4,0.8,3.7,0c0.3-0.2,0.6-0.3,0.9-0.5
			c1.4-0.8,2.8-1.8,4-3.1C42.2,62.4,37.8,62.4,33.2,62.4z"/>
	</g>
	<path fill-rule="evenodd" clip-rule="evenodd" fill="#FFFFFF" d="M9.8,35.1c-1-9.2,2.9-18.4,11.7-24.5C27.1,6.7,33.5,5,40.8,5
		c13.9,0.1,32,11.8,29.6,30c0.5,0,1.1,0.1,1.6,0.1c3.1,0.1,5.1,1.7,5.2,4.3c0.1,4.9,0.1,9.7,0,14.6c-0.1,3.1-3,5.4-6.5,5.3
		c-3.6-0.1-6.2-2.4-6.3-5.5c0-7.9,0-15.7,0-23.6c0-9.5-8.8-17.4-20.1-19.1c-15.9-2.4-28.8,8-28.8,18.2c0,8.1,0.1,16.1,0,24.2
		c0,4.2-4.2,6.8-8.6,5.3c-2.5-0.8-4-2.4-4.1-4.7c-0.1-4.9-0.1-9.8,0-14.8c0-2.4,1.9-3.9,4.8-4.2C8.2,35.1,8.9,35.1,9.8,35.1z"/>
</g>
</svg>
