<?xml version="1.0" encoding="utf-8"?>
<!-- Generator: Adobe Illustrator 16.0.0, SVG Export Plug-In . SVG Version: 6.00 Build 0)  -->
<!DOCTYPE svg PUBLIC "-//W3C//DTD SVG 1.1//EN" "http://www.w3.org/Graphics/SVG/1.1/DTD/svg11.dtd">
<svg version="1.1" id="Layer_1" xmlns="http://www.w3.org/2000/svg" xmlns:xlink="http://www.w3.org/1999/xlink" x="0px" y="0px"
	 width="80px" height="80px" viewBox="0 0 80 80" enable-background="new 0 0 80 80" xml:space="preserve">
<linearGradient id="SVGID_1_" gradientUnits="userSpaceOnUse" x1="268.3506" y1="-276.3501" x2="343.6512" y2="-351.6508" gradientTransform="matrix(1 0 0 -1 -266 -274)">
	<stop  offset="0" style="stop-color:#80729D"/>
	<stop  offset="1" style="stop-color:#461D7C"/>
</linearGradient>
<path fill="url(#SVGID_1_)" d="M80,72c0,4.4-3.6,8-8,8H8c-4.4,0-8-3.6-8-8V8c0-4.4,3.6-8,8-8h64c4.4,0,8,3.6,8,8V72z"/>
<circle fill="#FFFFFF" cx="40" cy="43" r="25.6"/>
<ellipse fill="#461D7C" stroke="#461D7C" stroke-width="1.8667" cx="31.6" cy="35.1" rx="3.5" ry="5.6"/>
<path fill="none" stroke="#461D7C" stroke-width="0.9333" stroke-linecap="round" stroke-linejoin="round" d="M54.8,46.8
	c0.7,2.5,3,4.3,5.6,4.2"/>
<ellipse fill="#461D7C" stroke="#461D7C" stroke-width="1.8667" cx="48.4" cy="35.1" rx="3.5" ry="5.6"/>
<path fill="none" stroke="#461D7C" stroke-width="0.9333" stroke-linecap="round" stroke-linejoin="round" d="M25.2,46.8
	c-0.7,2.5-3,4.3-5.6,4.2"/>
<path fill="#461D7C" stroke="#461D7C" stroke-width="0.9333" d="M23.2,50C28,59.3,39.4,63,48.7,58.2c3.5-1.8,6.3-4.6,8.1-8.1
	c-3.9,9.3-14.5,13.7-23.8,9.8C28.6,58,25,54.5,23.2,50"/>
<path fill="none" stroke="#FFFFFF" stroke-width="3.6493" stroke-linecap="round" stroke-linejoin="round" stroke-miterlimit="10" d="
	M9.7,42.6c0-16.7,13.6-30.3,30.3-30.3c16.7,0,30.3,13.6,30.3,30.3"/>
<path fill="#FFFFFF" stroke="#FFFFFF" stroke-width="3.9453" stroke-miterlimit="10" d="M12.6,48.9c-4.2,0-7.6-3-7.6-6.7
	c0-3.7,3.4-6.7,7.6-6.7"/>
<path fill="#FFFFFF" stroke="#FFFFFF" stroke-width="3.9457" stroke-miterlimit="10" d="M67.4,48.9c4.2,0,7.6-3,7.6-6.7
	c0-3.7-3.4-6.7-7.6-6.7"/>
</svg>
