<?xml version="1.0" encoding="utf-8"?>
<!-- Generator: Adobe Illustrator 16.0.0, SVG Export Plug-In . SVG Version: 6.00 Build 0)  -->
<!DOCTYPE svg PUBLIC "-//W3C//DTD SVG 1.1//EN" "http://www.w3.org/Graphics/SVG/1.1/DTD/svg11.dtd">
<svg version="1.1" id="Layer_1" xmlns="http://www.w3.org/2000/svg" xmlns:xlink="http://www.w3.org/1999/xlink" x="0px" y="0px"
	 width="24px" height="24px" viewBox="0 0 24 24" enable-background="new 0 0 24 24" xml:space="preserve">
<linearGradient id="shapePath2_1_" gradientUnits="userSpaceOnUse" x1="306.7832" y1="-372.917" x2="314.9707" y2="-360.933" gradientTransform="matrix(1 0 0 -1 -294 -358)">
	<stop  offset="0" style="stop-color:#FFFFFF"/>
	<stop  offset="0.5993" style="stop-color:#EEEEEC"/>
	<stop  offset="0.8276" style="stop-color:#FFFFFF"/>
	<stop  offset="1" style="stop-color:#D3D7CF"/>
</linearGradient>
<path id="shapePath2" fill="url(#shapePath2_1_)" stroke="#888A85" stroke-width="0.5799" stroke-miterlimit="2" d="M6.2,22.8h17
	c0.2,0,0.3-0.1,0.3-0.3v-16c0-1.5-3.9-4.9-5.3-4.9h-12C6,1.5,5.9,1.6,5.9,1.8v20.6C5.9,22.6,6,22.8,6.2,22.8z"/>
<path id="shapePath3" fill-opacity="0.1686" d="M7.3,13h12.5v1.2H7.3V13z"/>
<path id="shapePath4" fill-opacity="0.1686" d="M7.3,15.2h11.9v1.2H7.3V15.2z"/>
<path id="shapePath5" fill-opacity="0.1686" d="M7.4,17.6h10.7v1.2H7.4V17.6z"/>
<path id="shapePath6" fill-opacity="0.1686" d="M7.4,20.1h12.5v1.2H7.4V20.1z"/>
<path id="shapePath3_1_" fill-opacity="0.1686" d="M7.3,3.3h12.5v1.2H7.3V3.3z"/>
<path id="shapePath4_1_" fill-opacity="0.1686" d="M7.3,5.5h11.9v1.2H7.3V5.5z"/>
<path id="shapePath5_1_" fill-opacity="0.1686" d="M7.4,7.9h10.7v1.2H7.4V7.9z"/>
<path id="shapePath6_1_" fill-opacity="0.1686" d="M7.4,10.4h12.5v1.2H7.4V10.4z"/>
<linearGradient id="shapePath7_1_" gradientUnits="userSpaceOnUse" x1="316.0137" y1="-360.7993" x2="314.8578" y2="-362.3" gradientTransform="matrix(1 0 0 -1 -294 -358)">
	<stop  offset="0" style="stop-color:#888A85"/>
	<stop  offset="1" style="stop-color:#BABDB6"/>
</linearGradient>
<path id="shapePath7" fill="url(#shapePath7_1_)" stroke="#888A85" stroke-width="0.5262" stroke-miterlimit="2" d="M18.9,1.5
	c1-0.2,4.8,2.5,4.6,4.7c-0.8-1.4-2.4-0.7-4.4-0.8C19.1,5.4,19.3,1.8,18.9,1.5z"/>
<linearGradient id="shapePath8_1_" gradientUnits="userSpaceOnUse" x1="313.3525" y1="-361.8613" x2="316.6859" y2="-361.8613" gradientTransform="matrix(1 0 0 -1 -294 -358)">
	<stop  offset="0" style="stop-color:#FFFFFF;stop-opacity:0.3686"/>
	<stop  offset="1" style="stop-color:#FFFFFF;stop-opacity:0"/>
</linearGradient>
<path id="shapePath8" fill="none" stroke="url(#shapePath8_1_)" stroke-width="0.5262" stroke-miterlimit="2" d="M19.6,2.7
	c0.7,0.4,2.2,1.2,2.8,2.2c-0.8-0.4-1.5-0.1-2.8-0.1C19.6,4.9,19.7,3.2,19.6,2.7z"/>
<g>
	<path id="shapePath9" fill="#CC0000" stroke="#A40000" stroke-width="0.4674" stroke-miterlimit="2" d="M8,17.5
		c0.1,0.2,2.8-0.9,5.9-1.7c0.6-0.1,1.2-0.2,1.5-0.2c0.2-0.1,0.9,0.3,1.5,0.6c0.7,0.4,3,1,3.4,1.1c0.9,0.1,3,0.3,3.2-1
		c0.2-1.1-1-1.9-2.3-2.2c-1-0.3-2-0.3-2.7-0.3c-1.5,0-2.8,0.1-2.8,0.1S12,11,11.6,9.4c0-0.1,0.6-2,0.6-2.2c0.4-1.4,0.7-3,0.5-4.1
		c-0.1-0.8-0.7-2.6-1.6-2.8C9.6,0.1,9,1.7,9,2.8C8.9,4,8.8,5.4,9.3,6.6c0.3,0.9,0.5,1.7,0.4,2.2c-0.1,0.7-0.5,1.7-1,2.9
		C7.7,14.1,6,16.8,6,16.8S3,18,1.5,19.8c-1.7,2-0.7,3.2-0.7,3.2s0.7,1.4,2.7,0.2c1-0.6,2.5-2.2,3.3-3.6C7.3,18.4,8,17.6,8,17.5
		 M4.7,19.1c0,0-1.3,1-1.8,1.4c-0.6,0.5-0.8,1-0.5,1.4c0.2,0.3,0.8-0.5,1.3-1.2C4.2,19.9,4.7,19.1,4.7,19.1 M9.1,15.3
		c0.2-0.5,0.4-0.8,0.9-1.9c0.3-0.7,0.5-1.2,0.8-1.7c0.4,0.3,0.5,0.4,1.2,1.2c0.6,0.5,1.1,0.9,1.4,1.3c-0.2,0.2-1.1,0.5-2,0.7
		C9.6,15.2,9.8,15.1,9.1,15.3 M10.6,5.1c0,0-0.1-0.8-0.1-1.6c0-0.5-0.1-1,0.2-1.3C11.4,1.5,10.7,5.1,10.6,5.1 M19,15.4
		c0,0,2.7-0.1,2.5,0.3C21.3,16.2,19,15.4,19,15.4"/>
	<path id="shapePath10" fill="none" stroke="#A40000" stroke-width="0.4674" stroke-miterlimit="2" d="M13.3,14.1l2.4,1.6L13.3,14.1
		z"/>
	<path id="shapePath11" fill="none" stroke="#A40000" stroke-width="0.4595" stroke-miterlimit="2" d="M15.7,13.9l3.3,1.5L15.7,13.9
		z"/>
	<path id="shapePath12" fill="none" stroke="#A40000" stroke-width="0.4674" stroke-miterlimit="2" d="M6.1,16.7l-1.5,2.7L6.1,16.7z
		"/>
	<path id="shapePath13" fill="none" stroke="#A40000" stroke-width="0.4674" stroke-miterlimit="2" d="M9,15.4l-1.2,2.3L9,15.4z"/>
	<path id="shapePath14" fill="none" stroke="#A40000" stroke-width="0.4685" stroke-miterlimit="2" d="M10.7,4.8L9.4,10L10.7,4.8z"
		/>
	<path id="shapePath15" fill="none" stroke="#A40000" stroke-width="0.489" stroke-miterlimit="2" d="M11.5,9.4l-0.9,2.5L11.5,9.4z"
		/>
	
		<linearGradient id="shapePath16_1_" gradientUnits="userSpaceOnUse" x1="295.3955" y1="-370.1445" x2="305.606" y2="-370.1445" gradientTransform="matrix(1 0 0 -1 -294 -358)">
		<stop  offset="0" style="stop-color:#EEEEEC;stop-opacity:0"/>
		<stop  offset="0.548" style="stop-color:#EEEEEC;stop-opacity:0.7529"/>
		<stop  offset="1" style="stop-color:#EEEEEC;stop-opacity:0"/>
	</linearGradient>
	
		<path id="shapePath16" fill="none" stroke="url(#shapePath16_1_)" stroke-width="0.4006" stroke-linecap="round" stroke-miterlimit="2" d="
		M10.3,5.3c0,0-0.9-3.5,0.4-3.5c1.3,0,0.5,2.7,0.5,2.7L9.9,9.7c0,0-0.5,0.9-0.8,2.1C8.9,12.5,5.9,18,5.9,18l-1.4,2.5
		c0,0-0.8,1.4-1.7,2.1c-0.4,0.3-1.1-1.1-0.6-1.7C3.1,19.6,4.4,19,4.4,19"/>
	
		<radialGradient id="shapePath17_1_" cx="310.6748" cy="-371.2583" r="3.4856" gradientTransform="matrix(1 0 0 -1 -294 -358)" gradientUnits="userSpaceOnUse">
		<stop  offset="0" style="stop-color:#EEEEEC;stop-opacity:0"/>
		<stop  offset="0.5617" style="stop-color:#EEEEEC;stop-opacity:0.4824"/>
		<stop  offset="1" style="stop-color:#EEEEEC;stop-opacity:0"/>
	</radialGradient>
	<path id="shapePath17" fill="none" stroke="url(#shapePath17_1_)" stroke-width="0.4006" stroke-miterlimit="2" d="M11.5,10.3
		c0,0,1.6,2.3,3.5,3.6c1.3,0.9,2.3,1.4,4.1,2c1.9,0.7,2.8,0.2,2.9-0.2c0-0.7-2-0.8-2.9-0.7"/>
	
		<radialGradient id="shapePath18_1_" cx="305.5508" cy="-374.1323" r="2.3938" gradientTransform="matrix(1 0 0 -1 -294 -358)" gradientUnits="userSpaceOnUse">
		<stop  offset="0" style="stop-color:#EEEEEC;stop-opacity:0.8353"/>
		<stop  offset="1" style="stop-color:#EEEEEC;stop-opacity:0"/>
	</radialGradient>
	<path id="shapePath18" fill="none" stroke="url(#shapePath18_1_)" stroke-width="0.4588" stroke-miterlimit="2" d="M8.1,17.1
		c0,0,3.5-1.4,7-2"/>
	
		<radialGradient id="shapePath19_1_" cx="314.3018" cy="-373.0449" r="1.9205" gradientTransform="matrix(1 0 0 -1 -294 -358)" gradientUnits="userSpaceOnUse">
		<stop  offset="0" style="stop-color:#EEEEEC;stop-opacity:0.8863"/>
		<stop  offset="1" style="stop-color:#EEEEEC;stop-opacity:0"/>
	</radialGradient>
	<path id="shapePath19" fill="none" stroke="url(#shapePath19_1_)" stroke-width="0.4006" stroke-miterlimit="2" d="M17.5,14.2
		c0,0,2.4-0.2,3.6,0.3c1.2,0.4,2,1.1,2,1.5"/>
</g>
</svg>
