<?xml version="1.0" encoding="utf-8"?>
<!-- Generator: Adobe Illustrator 16.0.0, SVG Export Plug-In . SVG Version: 6.00 Build 0)  -->
<!DOCTYPE svg PUBLIC "-//W3C//DTD SVG 1.1//EN" "http://www.w3.org/Graphics/SVG/1.1/DTD/svg11.dtd">
<svg version="1.1" id="Layer_1" xmlns="http://www.w3.org/2000/svg" xmlns:xlink="http://www.w3.org/1999/xlink" x="0px" y="0px"
	 width="24px" height="24px" viewBox="0 0 24 24" enable-background="new 0 0 24 24" xml:space="preserve">
<g>
	
		<path id="path4463" fill="#F91D0A" stroke="#F91D0A" stroke-width="0.327" stroke-linecap="round" stroke-linejoin="round" stroke-miterlimit="2" d="
		M7.9,14c0.7-1.4,1.5-3.1,2.2-4.7l0,0l0.3-0.6C9.4,5.3,8.9,2.7,9.4,1l0,0c0.1-0.4,0.6-0.7,1.2-0.7l0,0l0.3,0H11c0.7,0,1.1,1,1.1,1.3
		l0,0c0.1,0.6-0.2,1.7-0.2,1.7l0,0c0-0.4,0-1.1-0.2-1.7l0,0c-0.3-0.7-0.6-1.1-0.9-1.2l0,0c-0.1,0.1-0.3,0.3-0.3,0.6l0,0
		c-0.1,0.5-0.1,1.1-0.1,1.5l0,0c0,1.2,0.2,2.7,0.7,4.3l0,0c0.1-0.2,0.2-0.5,0.2-0.7l0,0c0.1-0.3,0.7-2.7,0.7-2.7l0,0
		c0,0-0.1,3.1-0.3,4l0,0c0,0.2-0.1,0.4-0.1,0.6l0,0c0.7,2.1,1.9,3.9,3.3,5.3l0,0c0.5,0.5,1.2,1,1.9,1.3l0,0c1.4-0.2,2.8-0.3,3.9-0.3
		l0,0c1.5,0,2.5,0.2,3,0.7l0,0c0.2,0.2,0.3,0.5,0.3,0.8l0,0c0,0.1,0,0.4-0.1,0.4l0,0c0-0.1,0-0.5-1.2-0.9l0,0
		c-0.9-0.3-2.7-0.3-4.7-0.1l0,0c2.4,1.2,4.7,1.8,5.5,1.4l0,0c0.2-0.1,0.4-0.4,0.4-0.4l0,0c0,0-0.1,0.6-0.2,0.8l0,0
		c-0.1,0.2-0.4,0.3-0.6,0.4l0,0c-1.2,0.3-4.2-0.4-6.9-2l0,0c-3,0.4-6.2,1.3-8.9,2.2l0,0c-2.6,4.6-4.5,6.7-6.1,5.9l0,0l-0.6-0.3
		c-0.2-0.1-0.3-0.5-0.2-0.7l0,0c0.2-0.9,1.3-2.3,3.6-3.7l0,0c0.2-0.2,1.3-0.7,1.3-0.7l0,0c0,0-0.8,0.8-1,1l0,0
		c-1.8,1.5-3.1,3.4-3.1,4.2l0,0l0,0.1C2.6,23.1,4.9,19.9,7.9,14 M8.8,14.5c-0.5,0.9-1,1.8-1.4,2.6l0,0c2.5-1.1,5.1-1.7,7.6-2.2l0,0
		c-0.3-0.2-0.7-0.5-1-0.8l0,0c-1.4-1.2-2.4-2.7-3.2-4.3l0,0C10.3,11.2,9.8,12.6,8.8,14.5"/>
</g>
</svg>
