<?xml version="1.0" encoding="utf-8"?>
<!-- Generator: Adobe Illustrator 16.0.0, SVG Export Plug-In . SVG Version: 6.00 Build 0)  -->
<!DOCTYPE svg PUBLIC "-//W3C//DTD SVG 1.1//EN" "http://www.w3.org/Graphics/SVG/1.1/DTD/svg11.dtd">
<svg version="1.1" id="Layer_1" xmlns="http://www.w3.org/2000/svg" xmlns:xlink="http://www.w3.org/1999/xlink" x="0px" y="0px"
	 width="80px" height="80px" viewBox="0 0 80 80" enable-background="new 0 0 80 80" xml:space="preserve">
<g>
	
		<path id="path4463" fill="#F91D0A" stroke="#F91D0A" stroke-width="1.0992" stroke-linecap="round" stroke-linejoin="round" stroke-miterlimit="2" d="
		M26.1,46.6c2.4-4.8,5.1-10.3,7.3-15.7l0,0l0.9-2.2c-2.9-11.1-4.6-20.1-3-25.8l0,0c0.4-1.5,2.1-2.4,3.9-2.4l0,0l1.1,0h0.2
		c2.5,0,3.7,3.2,3.8,4.5l0,0c0.2,2.1-0.7,5.7-0.7,5.7l0,0c0-1.4,0.1-3.8-0.8-5.8l0,0c-1-2.3-2-3.7-2.9-3.9l0,0
		c-0.4,0.3-0.9,0.9-1,2.1l0,0c-0.3,1.7-0.4,3.9-0.4,5l0,0c0,3.9,0.8,9.1,2.2,14.4l0,0c0.3-0.8,0.5-1.6,0.7-2.4l0,0
		c0.3-1.2,2.2-8.9,2.2-8.9l0,0c0,0-0.5,10.3-1.2,13.4l0,0c-0.1,0.7-0.3,1.3-0.5,2l0,0c2.4,7,6.4,13.2,11.1,17.7l0,0
		c1.8,1.8,4.2,3.2,6.4,4.5l0,0c4.8-0.7,9.3-1,13-1l0,0c4.9,0.1,8.5,0.8,10,2.3l0,0c0.7,0.7,1,1.6,1.1,2.6l0,0c0,0.4-0.2,1.3-0.2,1.5
		l0,0c0.1-0.3,0.1-1.6-3.9-2.9l0,0c-3.1-1-8.9-1-15.9-0.2l0,0c8.1,4,16,6.1,18.4,4.8l0,0c0.6-0.3,1.4-1.3,1.4-1.3l0,0
		c0,0-0.4,2-0.8,2.6l0,0c-0.4,0.6-1.2,1.2-1.9,1.4l0,0c-3.9,1.1-14.2-1.4-23.1-6.6l0,0c-10,1.5-21,4.3-29.8,7.2l0,0
		C15,74.5,8.5,81.6,3.2,78.9l0,0l-1.9-1c-0.8-0.5-0.9-1.6-0.7-2.5l0,0c0.6-3.1,4.4-7.7,12-12.4l0,0c0.8-0.5,4.5-2.5,4.5-2.5l0,0
		c0,0-2.7,2.7-3.3,3.2l0,0c-6.1,5.1-10.5,11.5-10.4,14l0,0l0,0.2C8.4,77.2,16.2,66.5,26.1,46.6 M29.2,48.3c-1.7,3.2-3.3,6.2-4.8,8.9
		l0,0c8.3-3.5,17.2-5.8,25.7-7.4l0,0c-1.1-0.8-2.3-1.7-3.3-2.6l0,0c-4.7-4-8.2-9.1-10.8-14.4l0,0C34.4,37.3,32.5,42,29.2,48.3"/>
</g>
</svg>
