<?xml version="1.0" encoding="utf-8"?>
<!-- Generator: Adobe Illustrator 16.0.0, SVG Export Plug-In . SVG Version: 6.00 Build 0)  -->
<!DOCTYPE svg PUBLIC "-//W3C//DTD SVG 1.1//EN" "http://www.w3.org/Graphics/SVG/1.1/DTD/svg11.dtd">
<svg version="1.1" id="Layer_1" xmlns="http://www.w3.org/2000/svg" xmlns:xlink="http://www.w3.org/1999/xlink" x="0px" y="0px"
	 width="24px" height="24px" viewBox="0 0 24 24" enable-background="new 0 0 24 24" xml:space="preserve">
<g>
	<g id="Shape1">
		
			<desc  transform="matrix(1,0,0,1,44.0122,43)" text="" type="0" locked="0" basicInfo-polygonSides="6" basicInfo-roundedRectRadius="12" basicInfo-starPoints="5" basicInfo-basicType="0" strokeStyle="0" shadowOpacity="160" font-alignment="1" font-bold="0" markerStart="0" shadowBlur="4" shadowOffsetX="0" blurEnabled="0" font-familyName="" blurRadius="4" markerEnd="0" font-pixelSize="20" bounding="rect(-44.0122,-43,88.0244,86)" pers-start="0,0" font-underline="0" pers-size="0,0" pers-end="0,0" pers-center="0,0" shadowEnabled="0" flag="" shadowOffsetY="2" mesh="">
			</desc>
		<path id="shapePath1" fill="#D24625" d="M12.6,0h1.5c0,0.8,0,1.7,0,2.5c2.9,0,5.8,0,8.7,0C23.5,2.5,24,3,24,3.6
			c0,5.2,0,10.4,0,15.6c0,0.6,0.1,1.2-0.3,1.7c-0.4,0.3-0.9,0.3-1.4,0.3c-2.7,0-5.5,0-8.2,0c0,0.9,0,1.9,0,2.8h-1.7
			C8.3,23.2,4.2,22.5,0,21.8c0-6.5,0-13,0-19.5C4.2,1.5,8.4,0.7,12.6,0z"/>
	</g>
	<g id="Shape2">
		
			<desc  transform="matrix(1,0,0,1,68.4794,42.5)" text="" type="0" locked="0" basicInfo-polygonSides="6" basicInfo-roundedRectRadius="12" basicInfo-starPoints="5" basicInfo-basicType="0" strokeStyle="0" shadowOpacity="160" font-alignment="1" font-bold="0" markerStart="0" shadowBlur="4" shadowOffsetX="0" blurEnabled="0" font-familyName="" blurRadius="4" markerEnd="0" font-pixelSize="20" bounding="rect(-16.505,-30.5,33.01,61)" pers-start="0,0" font-underline="0" pers-size="0,0" pers-end="0,0" pers-center="0,0" shadowEnabled="0" flag="" shadowOffsetY="2" mesh="">
			</desc>
		<path id="shapePath2" fill="#FFFFFF" d="M14.2,3.3c3,0,6,0,9,0c0,5.7,0,11.3,0,17c-3,0-6,0-9,0c0-0.7,0-1.5,0-2.2
			c2.2,0,4.4,0,6.5,0c0-0.4,0-0.7,0-1.1c-2.2,0-4.4,0-6.5,0c0-0.5,0-0.9,0-1.4c2.2,0,4.4,0,6.5,0c0-0.4,0-0.7,0-1.1
			c-2.2,0-4.4,0-6.5,0c0-0.5,0-1.1,0-1.6c1.1,0.3,2.3,0.3,3.3-0.3c1-0.6,1.6-1.8,1.7-3c-1.2,0-2.4,0-3.6,0c0-1.2,0-2.4,0-3.6
			c-0.4,0.1-0.9,0.2-1.3,0.3C14.2,5.2,14.2,4.3,14.2,3.3z"/>
	</g>
	<g id="Shape3">
		
			<desc  transform="matrix(1,0,0,1,65.5682,25.437)" text="" type="0" locked="0" basicInfo-polygonSides="6" basicInfo-roundedRectRadius="12" basicInfo-starPoints="5" basicInfo-basicType="0" strokeStyle="0" shadowOpacity="160" font-alignment="1" font-bold="0" markerStart="0" shadowBlur="4" shadowOffsetX="0" blurEnabled="0" font-familyName="" blurRadius="4" markerEnd="0" font-pixelSize="20" bounding="rect(-6.58625,-6.56697,13.1725,13.1339)" pers-start="0,0" font-underline="0" pers-size="0,0" pers-end="0,0" pers-center="0,0" shadowEnabled="0" flag="" shadowOffsetY="2" mesh="">
			</desc>
		<path id="shapePath3" fill="#D24625" d="M16.1,5.3C18,5.4,19.6,7,19.7,8.9c-1.2,0-2.4,0-3.6,0C16.1,7.7,16.1,6.5,16.1,5.3z"/>
	</g>
	<g>
		<g>
			<g id="Shape4_3_">
				
					<desc  transform="matrix(1,0,0,1,25.542,42.4578)" text="" type="0" locked="0" basicInfo-polygonSides="6" basicInfo-roundedRectRadius="12" basicInfo-starPoints="5" basicInfo-basicType="0" strokeStyle="0" shadowOpacity="160" font-alignment="1" font-bold="0" markerStart="0" shadowBlur="4" shadowOffsetX="0" blurEnabled="0" font-familyName="" blurRadius="4" markerEnd="0" font-pixelSize="20" bounding="rect(-9.58132,-16.5122,19.1626,33.0244)" pers-start="0,0" font-underline="0" pers-size="0,0" pers-end="0,0" pers-center="0,0" shadowEnabled="0" flag="" shadowOffsetY="2" mesh="">
					</desc>
				<path id="shapePath4_3_" fill="#FFFFFF" d="M2.6,5c2.5-0.3,5.6-2.1,7.6-0.3c2,2.4,1.5,7.7-1.5,9.1c-1.1,0.5-2.3,0.4-3.4,0.3
					c0,1.8,0,3.6,0,5.4c-0.9-0.2-1.8-0.5-2.8-0.7C2.5,14.1,2.5,9.6,2.6,5z"/>
			</g>
			<g id="Shape5_3_">
				
					<desc  transform="matrix(1,0,0,1,25.2697,36.8159)" text="" type="0" locked="0" basicInfo-polygonSides="6" basicInfo-roundedRectRadius="12" basicInfo-starPoints="5" basicInfo-basicType="0" strokeStyle="0" shadowOpacity="160" font-alignment="1" font-bold="0" markerStart="0" shadowBlur="4" shadowOffsetX="0" blurEnabled="0" font-familyName="" blurRadius="4" markerEnd="0" font-pixelSize="20" bounding="rect(-3.30375,-5.07409,6.6075,10.1482)" pers-start="0,0" font-underline="0" pers-size="0,0" pers-end="0,0" pers-center="0,0" shadowEnabled="0" flag="" shadowOffsetY="2" mesh="">
					</desc>
				<path id="shapePath5_3_" fill="#D24625" d="M5.3,7c0.9-0.1,2-0.5,2.7,0.4C8.5,8.3,8.5,9.6,8,10.6c-0.5,1-1.7,0.9-2.6,1
					C5.3,10.1,5.3,8.5,5.3,7z"/>
			</g>
		</g>
	</g>
</g>
</svg>
