<?xml version="1.0" encoding="utf-8"?>
<!-- Generator: Adobe Illustrator 16.0.0, SVG Export Plug-In . SVG Version: 6.00 Build 0)  -->
<!DOCTYPE svg PUBLIC "-//W3C//DTD SVG 1.1//EN" "http://www.w3.org/Graphics/SVG/1.1/DTD/svg11.dtd">
<svg version="1.1" id="Layer_1" xmlns="http://www.w3.org/2000/svg" xmlns:xlink="http://www.w3.org/1999/xlink" x="0px" y="0px"
	 width="80px" height="80px" viewBox="0 0 80 80" enable-background="new 0 0 80 80" xml:space="preserve">
<g id="Shape1">
	
		<desc  transform="matrix(1,0,0,1,44.0122,43)" text="" type="0" locked="0" basicInfo-polygonSides="6" basicInfo-roundedRectRadius="12" basicInfo-starPoints="5" basicInfo-basicType="0" strokeStyle="0" shadowOpacity="160" font-alignment="1" font-bold="0" markerStart="0" shadowBlur="4" shadowOffsetX="0" blurEnabled="0" font-familyName="" blurRadius="4" markerEnd="0" font-pixelSize="20" bounding="rect(-44.0122,-43,88.0244,86)" pers-start="0,0" font-underline="0" pers-size="0,0" pers-end="0,0" pers-center="0,0" shadowEnabled="0" flag="" shadowOffsetY="2" mesh="">
		</desc>
	<path id="shapePath1" fill="#D24625" d="M42.1,0h5.2c0,2.8,0,5.6,0,8.4c9.7,0.1,19.4-0.1,29.1,0c2.1-0.2,3.7,1.5,3.5,3.6
		c0.2,17.4,0,34.8,0.1,52.1c-0.1,1.9,0.2,4-0.9,5.6c-1.3,1-3.1,0.9-4.6,0.9c-9.1,0-18.2,0-27.3,0c0,3.1,0,6.2,0,9.3h-5.7
		C27.7,77.4,13.9,75.1,0,72.6C0,50.9,0,29.2,0,7.5C14,5,28.1,2.4,42.1,0z"/>
</g>
<g id="Shape2">
	
		<desc  transform="matrix(1,0,0,1,68.4794,42.5)" text="" type="0" locked="0" basicInfo-polygonSides="6" basicInfo-roundedRectRadius="12" basicInfo-starPoints="5" basicInfo-basicType="0" strokeStyle="0" shadowOpacity="160" font-alignment="1" font-bold="0" markerStart="0" shadowBlur="4" shadowOffsetX="0" blurEnabled="0" font-familyName="" blurRadius="4" markerEnd="0" font-pixelSize="20" bounding="rect(-16.505,-30.5,33.01,61)" pers-start="0,0" font-underline="0" pers-size="0,0" pers-end="0,0" pers-center="0,0" shadowEnabled="0" flag="" shadowOffsetY="2" mesh="">
		</desc>
	<path id="shapePath2" fill="#FFFFFF" d="M47.2,11.2c10,0,20,0,30,0c0,18.9,0,37.8,0,56.7c-10,0-20,0-30,0c0-2.5,0-5,0-7.4
		c7.3,0,14.5,0,21.8,0c0-1.2,0-2.5,0-3.7c-7.3,0-14.5,0-21.8,0c0-1.6,0-3.1,0-4.7c7.3,0,14.5,0,21.8,0c0-1.2,0-2.5,0-3.7
		c-7.3,0-14.5,0-21.8,0c0-1.8,0-3.6,0-5.5c3.6,1.1,7.7,1.1,10.9-1.1c3.5-2.1,5.3-6.1,5.6-10.2c-4,0-8,0-12,0c0-4,0-8.1-0.1-12.1
		c-1.5,0.3-3,0.6-4.5,0.9C47.2,17.3,47.2,14.3,47.2,11.2z"/>
</g>
<g id="Shape3">
	
		<desc  transform="matrix(1,0,0,1,65.5682,25.437)" text="" type="0" locked="0" basicInfo-polygonSides="6" basicInfo-roundedRectRadius="12" basicInfo-starPoints="5" basicInfo-basicType="0" strokeStyle="0" shadowOpacity="160" font-alignment="1" font-bold="0" markerStart="0" shadowBlur="4" shadowOffsetX="0" blurEnabled="0" font-familyName="" blurRadius="4" markerEnd="0" font-pixelSize="20" bounding="rect(-6.58625,-6.56697,13.1725,13.1339)" pers-start="0,0" font-underline="0" pers-size="0,0" pers-end="0,0" pers-center="0,0" shadowEnabled="0" flag="" shadowOffsetY="2" mesh="">
		</desc>
	<path id="shapePath3" fill="#D24625" d="M53.6,17.6c6.3,0.3,11.6,5.7,12,12.2c-4,0-8,0-12,0C53.6,25.7,53.6,21.6,53.6,17.6z"/>
</g>
<g>
	<g>
		<g id="Shape4_2_">
			
				<desc  transform="matrix(1,0,0,1,25.542,42.4578)" text="" type="0" locked="0" basicInfo-polygonSides="6" basicInfo-roundedRectRadius="12" basicInfo-starPoints="5" basicInfo-basicType="0" strokeStyle="0" shadowOpacity="160" font-alignment="1" font-bold="0" markerStart="0" shadowBlur="4" shadowOffsetX="0" blurEnabled="0" font-familyName="" blurRadius="4" markerEnd="0" font-pixelSize="20" bounding="rect(-9.58132,-16.5122,19.1626,33.0244)" pers-start="0,0" font-underline="0" pers-size="0,0" pers-end="0,0" pers-center="0,0" shadowEnabled="0" flag="" shadowOffsetY="2" mesh="">
				</desc>
			<path id="shapePath4_2_" fill="#FFFFFF" d="M8.5,16.7c8.4-1.1,18.5-7,25.5-1.1c6.6,8.9,5.3,24.5-5,30.3
				c-3.5,1.8-7.5,1.2-11.3,0.9c0,6,0,11.9,0,17.8c-3.1-0.8-6.1-1.6-9.2-2.3C8.4,47.1,8.4,31.9,8.5,16.7z"/>
		</g>
		<g id="Shape5_2_">
			
				<desc  transform="matrix(1,0,0,1,25.2697,36.8159)" text="" type="0" locked="0" basicInfo-polygonSides="6" basicInfo-roundedRectRadius="12" basicInfo-starPoints="5" basicInfo-basicType="0" strokeStyle="0" shadowOpacity="160" font-alignment="1" font-bold="0" markerStart="0" shadowBlur="4" shadowOffsetX="0" blurEnabled="0" font-familyName="" blurRadius="4" markerEnd="0" font-pixelSize="20" bounding="rect(-3.30375,-5.07409,6.6075,10.1482)" pers-start="0,0" font-underline="0" pers-size="0,0" pers-end="0,0" pers-center="0,0" shadowEnabled="0" flag="" shadowOffsetY="2" mesh="">
				</desc>
			<path id="shapePath5_2_" fill="#D24625" d="M17.7,23.3c3-0.5,6.8-1.5,8.9,1.3c1.8,3,1.7,7.3,0.2,10.6C25,38.6,21,38.2,18,38.6
				C17.6,33.5,17.7,28.4,17.7,23.3z"/>
		</g>
	</g>
</g>
</svg>
