<?xml version="1.0" encoding="utf-8"?>
<!-- Generator: Adobe Illustrator 16.0.0, SVG Export Plug-In . SVG Version: 6.00 Build 0)  -->
<!DOCTYPE svg PUBLIC "-//W3C//DTD SVG 1.1//EN" "http://www.w3.org/Graphics/SVG/1.1/DTD/svg11.dtd">
<svg version="1.1" id="Layer_1" xmlns="http://www.w3.org/2000/svg" xmlns:xlink="http://www.w3.org/1999/xlink" x="0px" y="0px"
	 width="80px" height="80px" viewBox="0 0 80 80" enable-background="new 0 0 80 80" xml:space="preserve">
<g>
	<path fill-rule="evenodd" clip-rule="evenodd" fill="#99CCFF" stroke="#99CCFF" stroke-width="1.6742" d="M41.1,65.1
		c-13.4,0-23.8-8.7-26-20.7c-2.5-13.6,6.5-26.6,20.1-29.2c13.9-2.7,27.3,6.7,29.6,20.7c0.8,5.2,0.1,10.2-2.1,14.9
		c-0.3,0.7-0.5,0.8-1.1,0.2c-5.3-5.4-10.7-10.7-16.1-16.1c-4.2-4.2-11-2.8-12.6,2.8c-0.8,2.9,0,5.4,2.1,7.5
		c5.4,5.4,10.8,10.8,16.3,16.2c0.6,0.6,0.6,0.8-0.2,1.1C47.5,64.2,43.8,65.1,41.1,65.1z"/>
	<path fill-rule="evenodd" clip-rule="evenodd" fill="#336699" d="M39.5,0c19.5,0,36,13.5,39.7,32.1c2.1,10.6,0.2,20.6-5.7,29.8
		c-0.4,0.6-0.3,0.8,0.1,1.3c2,1.9,3.9,3.9,5.9,5.8c0.4,0.4,0.6,0.7,0.6,1.3c0,3.1,0,4.9,0,8c0,0.9-0.9,1.7-1.7,1.7c-3,0-4.7,0-7.9,0
		c-0.5,0-0.8-0.3-1.1-0.6c-2-2-4-3.9-5.9-5.9C62.9,73,62.6,73,62,73.4C42,86.5,15.3,79.5,4.3,58.1c-7.7-15-4.9-33.7,6.8-45.8
		C18,5.3,26.3,1.3,36.1,0.2C37.4,0.1,38.7,0,39.5,0z M41.1,65.1c2.7,0,6.4-0.9,10-2.6c0.7-0.4,0.7-0.6,0.2-1.1
		C45.8,56,40.4,50.6,35,45.2c-2.1-2.1-2.9-4.6-2.1-7.5c1.6-5.6,8.4-7.1,12.6-2.8c5.3,5.4,10.7,10.7,16.1,16.1
		c0.6,0.6,0.8,0.5,1.1-0.2c2.2-4.8,3-9.7,2.1-14.9c-2.3-14-15.6-23.4-29.6-20.7c-13.6,2.6-22.6,15.7-20.1,29.2
		C17.3,56.4,27.7,65.1,41.1,65.1z"/>
</g>
</svg>
