<?xml version="1.0" encoding="utf-8"?>
<!-- Generator: Adobe Illustrator 16.0.0, SVG Export Plug-In . SVG Version: 6.00 Build 0)  -->
<!DOCTYPE svg PUBLIC "-//W3C//DTD SVG 1.1//EN" "http://www.w3.org/Graphics/SVG/1.1/DTD/svg11.dtd">
<svg version="1.1" id="Layer_1" xmlns="http://www.w3.org/2000/svg" xmlns:xlink="http://www.w3.org/1999/xlink" x="0px" y="0px"
	 width="24px" height="24px" viewBox="0 0 24 24" enable-background="new 0 0 24 24" xml:space="preserve">
<path id="shapePath1" fill="#207245" d="M12.6,0h1.6c0,0.7,0,1.5,0,2.2c2.7,0,5.5,0,8.2,0c0.5,0,1,0,1.4,0.3C24,2.9,24,3.4,24,3.9
	c0,4.8,0,9.7,0,14.5c0,0.8,0.1,1.6-0.1,2.4c-0.1,0.6-0.8,0.6-1.2,0.6c-2.8,0-5.7,0-8.5,0c0,0.8,0,1.7,0,2.5h-1.7
	C8.3,23.2,4.2,22.5,0,21.8c0-6.5,0-13,0-19.5C4.2,1.5,8.4,0.8,12.6,0z"/>
<path id="shapePath2" fill="#FFFFFF" d="M14.2,3.1c3,0,6,0,9,0c0,5.9,0,11.7,0,17.6c-3,0-6,0-9,0c0-0.6,0-1.1,0-1.7
	c0.7,0,1.5,0,2.2,0c0-0.7,0-1.3,0-2c-0.7,0-1.5,0-2.2,0c0-0.4,0-0.7,0-1.1c0.7,0,1.5,0,2.2,0c0-0.6,0-1.3,0-2c-0.7,0-1.5,0-2.2,0
	c0-0.4,0-0.7,0-1.1c0.7,0,1.5,0,2.2,0c0-0.7,0-1.3,0-2c-0.7,0-1.5,0-2.2,0c0-0.4,0-0.7,0-1.1c0.7,0,1.5,0,2.2,0c0-0.7,0-1.3,0-2
	c-0.7,0-1.5,0-2.2,0c0-0.4,0-0.7,0-1.1c0.7,0,1.5,0,2.2,0c0-0.7,0-1.3,0-2c-0.7,0-1.5,0-2.2,0C14.2,4.2,14.2,3.6,14.2,3.1z"/>
<path id="shapePath3" fill="#207245" d="M17.4,4.7c1.3,0,2.5,0,3.8,0c0,0.7,0,1.3,0,2c-1.3,0-2.5,0-3.8,0C17.4,6,17.4,5.4,17.4,4.7z
	"/>
<g>
	<path id="shapePath4_2_" fill="#FFFFFF" d="M8.8,3.9c0.9-0.2,1.9-0.4,2.9-0.5C10.5,5.9,9.3,9,8.1,11.8c1.1,2.9,2.2,6.1,3.7,8.8
		c-1.3-0.3-2.4-0.5-3.4-0.8c-0.7-1.9-1.5-4-1.9-6.2c-0.6,2-1.4,3.7-2,5.3c-0.9-0.1-1.7-0.3-2.7-0.5c1.1-2,2.1-4.2,3.2-6.6
		C4.1,9.5,3.1,7.3,2.1,5.3C3.1,5,4,4.8,4.9,4.6C5.5,6.3,6.1,8,6.6,10C7.2,7.8,8,5.8,8.8,3.9z"/>
</g>
<path id="shapePath5" fill="#207245" d="M17.4,7.8c1.3,0,2.5,0,3.8,0c0,0.7,0,1.3,0,2c-1.3,0-2.5,0-3.8,0
	C17.4,9.1,17.4,8.5,17.4,7.8z"/>
<path id="shapePath6" fill="#207245" d="M17.4,10.9c1.3,0,2.5,0,3.8,0c0,0.7,0,1.3,0,2c-1.3,0-2.5,0-3.8,0
	C17.4,12.2,17.4,11.5,17.4,10.9z"/>
<path id="shapePath7" fill="#207245" d="M17.4,14c1.3,0,2.5,0,3.8,0c0,0.7,0,1.3,0,2c-1.3,0-2.5,0-3.8,0
	C17.4,15.3,17.4,14.6,17.4,14z"/>
<path id="shapePath8" fill="#207245" d="M17.4,17c1.3,0,2.5,0,3.8,0c0,0.7,0,1.3,0,2c-1.3,0-2.5,0-3.8,0
	C17.4,18.3,17.4,17.7,17.4,17z"/>
</svg>
