<?xml version="1.0" encoding="utf-8"?>
<!-- Generator: Adobe Illustrator 16.0.0, SVG Export Plug-In . SVG Version: 6.00 Build 0)  -->
<!DOCTYPE svg PUBLIC "-//W3C//DTD SVG 1.1//EN" "http://www.w3.org/Graphics/SVG/1.1/DTD/svg11.dtd">
<svg version="1.1" id="Layer_1" xmlns="http://www.w3.org/2000/svg" xmlns:xlink="http://www.w3.org/1999/xlink" x="0px" y="0px"
	 width="80px" height="80px" viewBox="0 0 80 80" enable-background="new 0 0 80 80" xml:space="preserve">
<path id="shapePath1" fill="#207245" d="M42,0h5.3c0,2.3,0,5,0,7.4c9,0,18.3,0,27.3,0c1.7,0,3.3,0,4.7,1c0.7,1.3,0.7,3,0.7,4.7
	c0,16.1,0,32.5,0,48.5c0,2.7,0.3,5.4-0.3,8c-0.3,2-2.7,2-4,2c-9.3,0-19,0-28.3,0c0,2.7,0,5.7,0,8.4h-5.7C27.6,77.7,14,75.3,0,73
	C0,51.2,0,29.5,0,7.7C14,5,28,2.7,42,0z"/>
<path id="shapePath2" fill="#FFFFFF" d="M47.3,10.4c10,0,20,0,30,0c0,19.7,0,39.2,0,58.9c-10,0-20,0-30,0c0-2,0-3.7,0-5.7
	c2.3,0,5,0,7.3,0c0-2.3,0-4.4,0-6.7c-2.3,0-5,0-7.3,0c0-1.3,0-2.3,0-3.7c2.3,0,5,0,7.3,0c0-2,0-4.4,0-6.7c-2.3,0-5,0-7.3,0
	c0-1.3,0-2.3,0-3.7c2.3,0,5,0,7.3,0c0-2.3,0-4.4,0-6.7c-2.3,0-5,0-7.3,0c0-1.3,0-2.3,0-3.7c2.3,0,5,0,7.3,0c0-2.3,0-4.4,0-6.7
	c-2.3,0-5,0-7.3,0c0-1.3,0-2.3,0-3.7c2.3,0,5,0,7.3,0c0-2.3,0-4.4,0-6.7c-2.3,0-5,0-7.3,0C47.3,14.1,47.3,12.1,47.3,10.4z"/>
<path id="shapePath3" fill="#207245" d="M57.9,15.7c4.3,0,8.3,0,12.7,0c0,2.3,0,4.4,0,6.7c-4.3,0-8.3,0-12.7,0
	C57.9,20.1,57.9,18.1,57.9,15.7z"/>
<g>
	<path id="shapePath4_2_" fill="#FFFFFF" d="M29.3,13.1c3-0.7,6.3-1.3,9.7-1.7c-4,8.4-8,18.7-12,28.1c3.7,9.7,7.3,20.4,12.3,29.5
		c-4.3-1-8-1.7-11.3-2.7c-2.3-6.4-5-13.4-6.3-20.8c-2,6.7-4.7,12.4-6.7,17.7c-3-0.3-5.7-1-9-1.7c3.7-6.7,7-14.1,10.7-22.1
		c-3-7.7-6.3-15.1-9.7-21.8c3.3-1,6.3-1.7,9.3-2.3c2,5.7,4,11.4,5.7,18.1C24,26.1,26.6,19.4,29.3,13.1z"/>
</g>
<path id="shapePath5" fill="#207245" d="M57.9,26.1c4.3,0,8.3,0,12.7,0c0,2.3,0,4.4,0,6.7c-4.3,0-8.3,0-12.7,0
	C57.9,30.5,57.9,28.5,57.9,26.1z"/>
<path id="shapePath6" fill="#207245" d="M57.9,36.5c4.3,0,8.3,0,12.7,0c0,2.3,0,4.4,0,6.7c-4.3,0-8.3,0-12.7,0
	C57.9,40.8,57.9,38.5,57.9,36.5z"/>
<path id="shapePath7" fill="#207245" d="M57.9,46.9c4.3,0,8.3,0,12.7,0c0,2.3,0,4.4,0,6.7c-4.3,0-8.3,0-12.7,0
	C57.9,51.2,57.9,48.9,57.9,46.9z"/>
<path id="shapePath8" fill="#207245" d="M57.9,56.9c4.3,0,8.3,0,12.7,0c0,2.3,0,4.4,0,6.7c-4.3,0-8.3,0-12.7,0
	C57.9,61.3,57.9,59.2,57.9,56.9z"/>
</svg>
