<?xml version="1.0" encoding="utf-8"?>
<!-- Generator: Adobe Illustrator 16.0.0, SVG Export Plug-In . SVG Version: 6.00 Build 0)  -->
<!DOCTYPE svg PUBLIC "-//W3C//DTD SVG 1.1//EN" "http://www.w3.org/Graphics/SVG/1.1/DTD/svg11.dtd">
<svg version="1.1" id="Layer_1" xmlns="http://www.w3.org/2000/svg" xmlns:xlink="http://www.w3.org/1999/xlink" x="0px" y="0px"
	 width="80px" height="80px" viewBox="0 0 80 80" enable-background="new 0 0 80 80" xml:space="preserve">
<g>
	<path fill="#FFFFFF" d="M80,72c0,4.4-3.6,8-8,8H8c-4.4,0-8-3.6-8-8V8c0-4.4,3.6-8,8-8h64c4.4,0,8,3.6,8,8V72z"/>
	<linearGradient id="SVGID_1_" gradientUnits="userSpaceOnUse" x1="65.8564" y1="84.7871" x2="14.1421" y2="-4.7848">
		<stop  offset="0.14" style="stop-color:#472600"/>
		<stop  offset="1" style="stop-color:#B06400"/>
	</linearGradient>
	<path fill="url(#SVGID_1_)" d="M72,4c2.2,0,4,1.8,4,4v64c0,2.2-1.8,4-4,4H8c-2.2,0-4-1.8-4-4V8c0-2.2,1.8-4,4-4H72 M72,0H8
		C3.6,0,0,3.6,0,8v64c0,4.4,3.6,8,8,8h64c4.4,0,8-3.6,8-8V8C80,3.6,76.4,0,72,0L72,0z"/>
</g>
<line fill="none" stroke="#6EA7DB" stroke-width="1.5" stroke-linecap="round" stroke-linejoin="round" stroke-miterlimit="10" x1="15" y1="31.7" x2="65" y2="31.7"/>
<line fill="none" stroke="#6EA7DB" stroke-width="1.5" stroke-linecap="round" stroke-linejoin="round" stroke-miterlimit="10" x1="15" y1="15" x2="65" y2="15"/>
<line fill="none" stroke="#6EA7DB" stroke-width="1.5" stroke-linecap="round" stroke-linejoin="round" stroke-miterlimit="10" x1="15" y1="42.8" x2="65" y2="42.8"/>
<line fill="none" stroke="#6EA7DB" stroke-width="1.5" stroke-linecap="round" stroke-linejoin="round" stroke-miterlimit="10" x1="15" y1="53.9" x2="65" y2="53.9"/>
<line fill="none" stroke="#6EA7DB" stroke-width="1.5" stroke-linecap="round" stroke-linejoin="round" stroke-miterlimit="10" x1="15" y1="65" x2="65" y2="65"/>
<line fill="none" stroke="#6EA7DB" stroke-width="1.5" stroke-linecap="round" stroke-linejoin="round" stroke-miterlimit="10" x1="15" y1="26.1" x2="65" y2="26.1"/>
<line fill="none" stroke="#6EA7DB" stroke-width="1.5" stroke-linecap="round" stroke-linejoin="round" stroke-miterlimit="10" x1="15" y1="20.6" x2="65" y2="20.6"/>
<line fill="none" stroke="#6EA7DB" stroke-width="1.5" stroke-linecap="round" stroke-linejoin="round" stroke-miterlimit="10" x1="15" y1="37.2" x2="65" y2="37.2"/>
<line fill="none" stroke="#6EA7DB" stroke-width="1.5" stroke-linecap="round" stroke-linejoin="round" stroke-miterlimit="10" x1="15" y1="48.3" x2="65" y2="48.3"/>
<line fill="none" stroke="#6EA7DB" stroke-width="1.5" stroke-linecap="round" stroke-linejoin="round" stroke-miterlimit="10" x1="15" y1="59.4" x2="65" y2="59.4"/>
</svg>
