<?xml version="1.0" encoding="utf-8"?>
<!-- Generator: Adobe Illustrator 16.0.0, SVG Export Plug-In . SVG Version: 6.00 Build 0)  -->
<!DOCTYPE svg PUBLIC "-//W3C//DTD SVG 1.1//EN" "http://www.w3.org/Graphics/SVG/1.1/DTD/svg11.dtd">
<svg version="1.1" id="Layer_1" xmlns="http://www.w3.org/2000/svg" xmlns:xlink="http://www.w3.org/1999/xlink" x="0px" y="0px"
	 width="80px" height="80px" viewBox="0 0 80 80" enable-background="new 0 0 80 80" xml:space="preserve">
<g>
	<linearGradient id="SVGID_1_" gradientUnits="userSpaceOnUse" x1="43.665" y1="81.8936" x2="36.3347" y2="-1.8928">
		<stop  offset="0" style="stop-color:#A68917"/>
		<stop  offset="1" style="stop-color:#FDD023"/>
	</linearGradient>
	<path fill="url(#SVGID_1_)" d="M70.4,74.7c0,2.9-2.4,5.3-5.3,5.3H14.9c-2.9,0-5.3-2.4-5.3-5.3V5.3C9.6,2.4,12,0,14.9,0h50.1
		c2.9,0,5.3,2.4,5.3,5.3V74.7z"/>
	<g>
		<path fill="#FFFFFF" d="M17.6,9.3c0,1.5-1.2,2.7-2.7,2.7l0,0c-1.5,0-2.7-1.2-2.7-2.7V6.1c0-1.5,1.2-2.7,2.7-2.7l0,0
			c1.5,0,2.7,1.2,2.7,2.7V9.3z"/>
		<path fill="#FFFFFF" d="M17.6,34.9c0,1.5-1.2,2.7-2.7,2.7l0,0c-1.5,0-2.7-1.2-2.7-2.7v-3.2c0-1.5,1.2-2.7,2.7-2.7l0,0
			c1.5,0,2.7,1.2,2.7,2.7V34.9z"/>
		<path fill="#FFFFFF" d="M17.6,22.1c0,1.5-1.2,2.7-2.7,2.7l0,0c-1.5,0-2.7-1.2-2.7-2.7v-3.2c0-1.5,1.2-2.7,2.7-2.7l0,0
			c1.5,0,2.7,1.2,2.7,2.7V22.1z"/>
		<path fill="#FFFFFF" d="M67.8,9.3c0,1.5-1.2,2.7-2.7,2.7l0,0c-1.5,0-2.7-1.2-2.7-2.7V6.1c0-1.5,1.2-2.7,2.7-2.7l0,0
			c1.5,0,2.7,1.2,2.7,2.7V9.3z"/>
		<path fill="#FFFFFF" d="M67.8,34.9c0,1.5-1.2,2.7-2.7,2.7l0,0c-1.5,0-2.7-1.2-2.7-2.7v-3.2c0-1.5,1.2-2.7,2.7-2.7l0,0
			c1.5,0,2.7,1.2,2.7,2.7V34.9z"/>
		<path fill="#FFFFFF" d="M67.8,22.1c0,1.5-1.2,2.7-2.7,2.7l0,0c-1.5,0-2.7-1.2-2.7-2.7v-3.2c0-1.5,1.2-2.7,2.7-2.7l0,0
			c1.5,0,2.7,1.2,2.7,2.7V22.1z"/>
	</g>
	<g>
		<path fill="#FFFFFF" d="M17.6,48.7c0,1.5-1.2,2.7-2.7,2.7l0,0c-1.5,0-2.7-1.2-2.7-2.7v-3.2c0-1.5,1.2-2.7,2.7-2.7l0,0
			c1.5,0,2.7,1.2,2.7,2.7V48.7z"/>
		<path fill="#FFFFFF" d="M17.6,74.3c0,1.5-1.2,2.7-2.7,2.7l0,0c-1.5,0-2.7-1.2-2.7-2.7v-3.2c0-1.5,1.2-2.7,2.7-2.7l0,0
			c1.5,0,2.7,1.2,2.7,2.7V74.3z"/>
		<path fill="#FFFFFF" d="M17.6,61.5c0,1.5-1.2,2.7-2.7,2.7l0,0c-1.5,0-2.7-1.2-2.7-2.7v-3.2c0-1.5,1.2-2.7,2.7-2.7l0,0
			c1.5,0,2.7,1.2,2.7,2.7V61.5z"/>
		<path fill="#FFFFFF" d="M67.8,48.7c0,1.5-1.2,2.7-2.7,2.7l0,0c-1.5,0-2.7-1.2-2.7-2.7v-3.2c0-1.5,1.2-2.7,2.7-2.7l0,0
			c1.5,0,2.7,1.2,2.7,2.7V48.7z"/>
		<path fill="#FFFFFF" d="M67.8,74.3c0,1.5-1.2,2.7-2.7,2.7l0,0c-1.5,0-2.7-1.2-2.7-2.7v-3.2c0-1.5,1.2-2.7,2.7-2.7l0,0
			c1.5,0,2.7,1.2,2.7,2.7V74.3z"/>
		<path fill="#FFFFFF" d="M67.8,61.5c0,1.5-1.2,2.7-2.7,2.7l0,0c-1.5,0-2.7-1.2-2.7-2.7v-3.2c0-1.5,1.2-2.7,2.7-2.7l0,0
			c1.5,0,2.7,1.2,2.7,2.7V61.5z"/>
	</g>
	<rect x="20.8" y="6.4" fill="#FFFFFF" width="38.4" height="29.9"/>
	<rect x="20.8" y="43.2" fill="#FFFFFF" width="38.4" height="29.9"/>
</g>
</svg>
