<?xml version="1.0" encoding="utf-8"?>
<!-- Generator: Adobe Illustrator 16.0.0, SVG Export Plug-In . SVG Version: 6.00 Build 0)  -->
<!DOCTYPE svg PUBLIC "-//W3C//DTD SVG 1.1//EN" "http://www.w3.org/Graphics/SVG/1.1/DTD/svg11.dtd">
<svg version="1.1" id="Layer_1" xmlns="http://www.w3.org/2000/svg" xmlns:xlink="http://www.w3.org/1999/xlink" x="0px" y="0px"
	 width="80px" height="80px" viewBox="0 0 80 80" enable-background="new 0 0 80 80" xml:space="preserve">
<g>
	<path fill="#FFFFFF" d="M40,79.3C18.3,79.3,0.7,61.7,0.7,40S18.3,0.7,40,0.7S79.3,18.3,79.3,40S61.7,79.3,40,79.3z"/>
	<path d="M40,1.3c21.3,0,38.7,17.3,38.7,38.7c0,21.3-17.3,38.7-38.7,38.7C18.7,78.7,1.3,61.3,1.3,40S18.7,1.3,40,1.3 M40,0
		C17.9,0,0,17.9,0,40c0,22.1,17.9,40,40,40c22.1,0,40-17.9,40-40C80,17.9,62.1,0,40,0L40,0z"/>
</g>
<g>
	<g>
		<path fill="#CD6833" d="M0.7,39.8c0.1-21.4,17.6-38.9,39-39v39H0.7z"/>
		<path d="M39.5,1v38.5H1C1.3,18.4,18.4,1.3,39.5,1 M40,0.5C18.2,0.5,0.5,18.2,0.5,40H40V0.5L40,0.5z"/>
	</g>
</g>
<g>
	<g>
		<path fill="#8CB811" d="M40.2,39.8v-39c21.5,0.1,38.9,17.6,39,39H40.2z"/>
		<path d="M40.5,1C61.6,1.3,78.7,18.4,79,39.5H40.5V1 M40,0.5V40h39.5C79.5,18.2,61.8,0.5,40,0.5L40,0.5z"/>
	</g>
</g>
<g>
	<g>
		<path fill="#E9B200" d="M40.2,40.2h39c-0.1,21.5-17.6,38.9-39,39V40.2z"/>
		<path d="M79,40.5C78.7,61.6,61.6,78.7,40.5,79V40.5H79 M79.5,40H40v39.5C61.8,79.5,79.5,61.8,79.5,40L79.5,40z"/>
	</g>
</g>
<g>
	<g>
		<path fill="#80729D" d="M39.8,79.3c-21.4-0.1-38.9-17.6-39-39h39V79.3z"/>
		<path d="M39.5,40.5V79C18.4,78.7,1.3,61.6,1,40.5H39.5 M40,40H0.5c0,21.8,17.7,39.5,39.5,39.5V40L40,40z"/>
	</g>
</g>
<path fill="#EEEEEE" d="M40,69.1C23.9,69.1,10.9,56,10.9,40C10.9,23.9,24,10.9,40,10.9C56.1,10.9,69.1,24,69.1,40
	C69.1,56.1,56.1,69.1,40,69.1z"/>
<path d="M40,11.4c15.8,0,28.6,12.8,28.6,28.6S55.8,68.6,40,68.6S11.4,55.8,11.4,40S24.2,11.4,40,11.4 M40,10.4
	c-16.4,0-29.6,13.3-29.6,29.6c0,16.4,13.3,29.6,29.6,29.6c16.4,0,29.6-13.3,29.6-29.6C69.6,23.6,56.4,10.4,40,10.4L40,10.4z"/>
<path fill="#5261A3" stroke="#000000" d="M28.3,22.5c-0.4,0-0.9,0.1-1.3,0.3c-0.8,0.4-1.2,1.3-1.2,2.1v30c0,0.9,0.5,1.7,1.2,2.1
	c0.4,0.2,0.8,0.3,1.3,0.3c0.4,0,0.8-0.1,1.2-0.3L57,42c0.8-0.4,1.3-1.3,1.3-2.2c0-0.9-0.5-1.7-1.3-2.2l-27.5-15
	C29.1,22.6,28.7,22.5,28.3,22.5L28.3,22.5z"/>
</svg>
