<?xml version="1.0" encoding="utf-8"?>
<!-- Generator: Adobe Illustrator 16.0.0, SVG Export Plug-In . SVG Version: 6.00 Build 0)  -->
<!DOCTYPE svg PUBLIC "-//W3C//DTD SVG 1.1//EN" "http://www.w3.org/Graphics/SVG/1.1/DTD/svg11.dtd">
<svg version="1.1" id="Layer_1" xmlns="http://www.w3.org/2000/svg" xmlns:xlink="http://www.w3.org/1999/xlink" x="0px" y="0px"
	 width="80px" height="80px" viewBox="0 0 80 80" enable-background="new 0 0 80 80" xml:space="preserve">
<path id="path5" fill="#FFFFFF" stroke="#888A85" stroke-width="2.2148" stroke-linecap="round" stroke-linejoin="round" stroke-miterlimit="10" d="
	M62.3,1c9.1,0,16.4,6.8,16.4,15.2s-10,18.3-22.6,14.2c-4.6,2.3-13.4,4.7-13.4,4.7s7.2-7.6,7.4-8.6c-2.7-2.7-4.3-6.3-4.3-10.2
	C45.9,7.8,53.3,1,62.3,1"/>
<linearGradient id="path4370_1_" gradientUnits="userSpaceOnUse" x1="-252.4902" y1="660.3672" x2="-255.1042" y2="659.0364" gradientTransform="matrix(-1.3085 0.2812 0.2812 1.3085 -491.4921 -733.4807)">
	<stop  offset="0" style="stop-color:#000000"/>
	<stop  offset="1" style="stop-color:#000000;stop-opacity:0"/>
</linearGradient>
<path id="path4370" opacity="0.2278" fill="url(#path4370_1_)" enable-background="new    " d="M27,71.7c3.1-1.6,4.6-5.4,4.6-5.4
	c-2.5-10.9-10.1-18.5-10.1-18.5S27.8,64.9,27,71.7z"/>
<linearGradient id="rect4173_1_" gradientUnits="userSpaceOnUse" x1="13855.0137" y1="22548.875" x2="13855.0137" y2="23038.8438" gradientTransform="matrix(4.004650e-02 0 0 3.343137e-02 -526.8701 -692.2405)">
	<stop  offset="0" style="stop-color:#000000;stop-opacity:0"/>
	<stop  offset="0.5" style="stop-color:#000000"/>
	<stop  offset="1" style="stop-color:#000000;stop-opacity:0"/>
</linearGradient>
<rect id="rect4173" x="9.5" y="61.6" opacity="0.4021" fill="url(#rect4173_1_)" enable-background="new    " width="36.9" height="16.4"/>
<radialGradient id="path5058_1_" cx="14344.7188" cy="22791.1777" r="236.3917" gradientTransform="matrix(3.784774e-02 0 0 3.343137e-02 -496.3103 -692.2405)" gradientUnits="userSpaceOnUse">
	<stop  offset="0" style="stop-color:#000000"/>
	<stop  offset="1" style="stop-color:#000000;stop-opacity:0"/>
</radialGradient>
<path id="path5058" opacity="0.4021" fill="url(#path5058_1_)" enable-background="new    " d="M46.4,61.6V78c4,0,9.5-3.7,9.5-8.2
	C55.9,65.3,51.5,61.6,46.4,61.6z"/>
<radialGradient id="path5018_1_" cx="-12632.8477" cy="22791.1777" r="236.3327" gradientTransform="matrix(-3.784774e-02 0 0 3.343137e-02 -468.8533 -692.2405)" gradientUnits="userSpaceOnUse">
	<stop  offset="0" style="stop-color:#000000"/>
	<stop  offset="1" style="stop-color:#000000;stop-opacity:0"/>
</radialGradient>
<path id="path5018" opacity="0.4021" fill="url(#path5018_1_)" enable-background="new    " d="M9.5,61.6V78c-4,0-9.5-3.7-9.5-8.2
	S4.3,61.6,9.5,61.6z"/>
<radialGradient id="path4308_1_" cx="542.2354" cy="748.4717" r="36.2912" gradientTransform="matrix(0.9888 0 0 1.0178 -508.8728 -713.2581)" gradientUnits="userSpaceOnUse">
	<stop  offset="0" style="stop-color:#FFFFFF"/>
	<stop  offset="1" style="stop-color:#D6D6D2"/>
</radialGradient>
<path id="path4308" fill="url(#path4308_1_)" stroke="#888A85" stroke-width="1.9612" stroke-linecap="round" stroke-linejoin="round" d="
	M17.5,73.7h20.9c6,0,11.8-2.2,13.9-8.5c2.1-6,0.4-17.4-12.9-26.7H14.6C1.4,47-0.2,58.7,2.8,65.5C6,72.5,11.2,73.7,17.5,73.7z"/>
<linearGradient id="path4364_1_" gradientUnits="userSpaceOnUse" x1="-347.5352" y1="856.123" x2="-350.1497" y2="854.792" gradientTransform="matrix(-0.999 0.2149 0.2147 1 -486.2633 -720.377)">
	<stop  offset="0" style="stop-color:#000000"/>
	<stop  offset="1" style="stop-color:#000000;stop-opacity:0"/>
</linearGradient>
<path id="path4364" opacity="0.2912" fill="url(#path4364_1_)" enable-background="new    " d="M46.6,70.3c2.4-1.2,3.5-4.1,3.5-4.1
	c-1.9-8.3-7.8-14.1-7.8-14.1S47.2,65.1,46.6,70.3z"/>
<linearGradient id="path4354_1_" gradientUnits="userSpaceOnUse" x1="663.5371" y1="652.8291" x2="667.4171" y2="653.6185" gradientTransform="matrix(1.0048 0.1857 -0.1855 1.0058 -540.2855 -719.174)">
	<stop  offset="0" style="stop-color:#000000"/>
	<stop  offset="1" style="stop-color:#000000;stop-opacity:0"/>
</linearGradient>
<path id="path4354" opacity="0.5495" fill="url(#path4354_1_)" enable-background="new    " d="M8.1,71.7c-2.5-1.1-3.5-3.8-3.5-3.8
	c1.6-8.4,7.3-14.5,7.3-14.5S7.5,66.6,8.1,71.7z"/>
<path id="path4314" opacity="0.6429" fill="none" stroke="#FFFFFF" stroke-width="1.9612" stroke-linecap="round" stroke-linejoin="round" enable-background="new    " d="
	M17.4,71.7h20.8c5.2,0,10.4-2,12.4-7.6c1.8-5.3-0.2-15.5-11.9-23.7l-22.9-0.5C4.1,47.5,1.8,57.8,4.5,64.4
	C7.3,70.9,11.2,71.6,17.4,71.7z"/>
<radialGradient id="path4318_1_" cx="560.7822" cy="730.2031" r="17.4961" gradientTransform="matrix(0.9657 0 0 1.0228 -514.5322 -712.351)" gradientUnits="userSpaceOnUse">
	<stop  offset="0" style="stop-color:#000000"/>
	<stop  offset="1" style="stop-color:#000000;stop-opacity:0"/>
</radialGradient>
<path id="path4318" fill="url(#path4318_1_)" d="M43.9,34.5c0,9.9-7.6,17.9-16.8,17.9c-9.4,0-16.9-8-16.9-17.9l0,0
	c0-9.9,7.6-17.9,16.8-17.9S43.9,24.6,43.9,34.5L43.9,34.5z"/>
<radialGradient id="path4320_1_" cx="1017.3232" cy="1319.9395" r="36.2849" gradientTransform="matrix(0.5179 0 0 0.5528 -498.7497 -710.5908)" gradientUnits="userSpaceOnUse">
	<stop  offset="0" style="stop-color:#FFFFFF"/>
	<stop  offset="1" style="stop-color:#D6D6D2"/>
</radialGradient>
<path id="path4320" fill="url(#path4320_1_)" stroke="#888A85" stroke-width="1.9987" stroke-linecap="round" stroke-linejoin="round" d="
	M43.5,28.3c0,9.5-7.3,17.2-16.2,17.2c-9,0-16.3-7.7-16.3-17.1l0,0c0-9.5,7.3-17.2,16.2-17.2C36.2,11.2,43.5,18.8,43.5,28.3
	L43.5,28.3z"/>
<path id="path4322" opacity="0.5257" fill="none" stroke="#FFFFFF" stroke-width="2.2651" stroke-linecap="round" stroke-linejoin="round" enable-background="new    " d="
	M41.6,28.3c0,8.4-6.4,15.1-14.3,15.1c-7.9,0-14.3-6.8-14.3-15.1l0,0c0-8.4,6.4-15.1,14.3-15.1S41.6,19.9,41.6,28.3L41.6,28.3z"/>
<line fill="none" stroke="#72BBE8" stroke-linecap="round" stroke-linejoin="round" stroke-miterlimit="10" x1="55" y1="11.5" x2="70" y2="11.5"/>
<line fill="none" stroke="#72BBE8" stroke-linecap="round" stroke-linejoin="round" stroke-miterlimit="10" x1="55" y1="14.5" x2="66" y2="14.5"/>
<line fill="none" stroke="#72BBE8" stroke-linecap="round" stroke-linejoin="round" stroke-miterlimit="10" x1="55" y1="17.5" x2="69" y2="17.5"/>
<line fill="none" stroke="#72BBE8" stroke-linecap="round" stroke-linejoin="round" stroke-miterlimit="10" x1="55" y1="20.5" x2="71" y2="20.5"/>
<line fill="none" stroke="#72BBE8" stroke-linecap="round" stroke-linejoin="round" stroke-miterlimit="10" x1="55" y1="23.5" x2="67" y2="23.5"/>
<line fill="none" stroke="#72BBE8" stroke-linecap="round" stroke-linejoin="round" stroke-miterlimit="10" x1="55" y1="8.5" x2="67" y2="8.5"/>
</svg>
