<?xml version="1.0" encoding="utf-8"?>
<!-- Generator: Adobe Illustrator 16.0.0, SVG Export Plug-In . SVG Version: 6.00 Build 0)  -->
<!DOCTYPE svg PUBLIC "-//W3C//DTD SVG 1.1//EN" "http://www.w3.org/Graphics/SVG/1.1/DTD/svg11.dtd">
<svg version="1.1" id="Layer_1" xmlns="http://www.w3.org/2000/svg" xmlns:xlink="http://www.w3.org/1999/xlink" x="0px" y="0px"
	 width="24px" height="24px" viewBox="0 0 24 24" style="enable-background:new 0 0 24 24;" xml:space="preserve">
<style type="text/css">
<![CDATA[
	.st0{fill:url(#SVGID_1_);}
	.st1{fill:url(#SVGID_2_);}
	.st2{fill:url(#SVGID_3_);}
	.st3{fill:url(#SVGID_4_);}
	.st4{fill:url(#SVGID_5_);}
	.st5{fill:url(#SVGID_6_);}
	.st6{fill-rule:evenodd;clip-rule:evenodd;fill:#FCB932;}
	.st7{fill-rule:evenodd;clip-rule:evenodd;fill:#FFFFFF;}
]]>
</style>
<linearGradient id="SVGID_1_" gradientUnits="userSpaceOnUse" x1="304" y1="-355" x2="304" y2="-375.0005" gradientTransform="matrix(1 0 0 -1 -290 -355)">
	<stop  offset="0" style="stop-color:#95BFF8"/>
	<stop  offset="0.5569" style="stop-color:#84ADEF"/>
	<stop  offset="1" style="stop-color:#7CA4EB"/>
</linearGradient>
<polygon class="st0" points="22,0 15.4,0 6.7,0 6,0 6,20 6.7,20 21.7,20 22,20 22,6.6 "/>
<linearGradient id="SVGID_2_" gradientUnits="userSpaceOnUse" x1="304" y1="-356" x2="304" y2="-374.0005" gradientTransform="matrix(1 0 0 -1 -290 -355)">
	<stop  offset="0" style="stop-color:#E7F4FC"/>
	<stop  offset="1" style="stop-color:#DEEFFC"/>
</linearGradient>
<polygon class="st1" points="7,19 7,1 21,1 21,6.9 21,19 "/>
<linearGradient id="SVGID_3_" gradientUnits="userSpaceOnUse" x1="304" y1="-357" x2="304" y2="-373.0005" gradientTransform="matrix(1 0 0 -1 -290 -355)">
	<stop  offset="0" style="stop-color:#CEE9F9"/>
	<stop  offset="1" style="stop-color:#BBDFF8"/>
</linearGradient>
<polygon class="st2" points="8,18 8,2 15.4,2 20,7.3 20,18 "/>
<linearGradient id="SVGID_4_" gradientUnits="userSpaceOnUse" x1="301.9531" y1="-367.168" x2="301.9531" y2="-378.8867" gradientTransform="matrix(1 0 0 -1 -290 -355)">
	<stop  offset="0" style="stop-color:#DDA976"/>
	<stop  offset="1" style="stop-color:#9F6B37"/>
</linearGradient>
<path class="st3" d="M10,18.9c-0.3-2.2,9.4,0.5,9.3-1.4c0-0.8-8.4-3.4-11.4-4.1c-0.9-0.2-6.5-1.2-6.5-1.2c-0.2,0.1-1.3,3.3-1.4,5.2
	c0.5,0.3,7.3,6.7,10,6.5c2.7-0.2,14.2-3.6,13.9-4.7C23.3,17.1,10.3,21.3,10,18.9z"/>
<linearGradient id="SVGID_5_" gradientUnits="userSpaceOnUse" x1="301.4512" y1="-368.2817" x2="301.4512" y2="-377.9345" gradientTransform="matrix(1 0 0 -1 -290 -355)">
	<stop  offset="0" style="stop-color:#FFDDAA"/>
	<stop  offset="1" style="stop-color:#E3B17E"/>
</linearGradient>
<path class="st4" d="M1.7,17.4C1.4,17.2,1.2,17,1,16.9c0.1-1.2,0.6-2.8,0.9-3.6c1.8,0.3,5.1,0.9,5.7,1c2.6,0.6,9.4,2.3,9.7,3
	c0.5,1.1-8.3-1.9-8.1,1.7c0.2,3.5,12.4-0.6,12.7,0.5c0.2,0.7-10.1,3.6-12,3.5C7.9,22.8,3.3,18.8,1.7,17.4z"/>
<linearGradient id="SVGID_6_" gradientUnits="userSpaceOnUse" x1="297.6992" y1="-369.4155" x2="297.6992" y2="-376.935" gradientTransform="matrix(1 0 0 -1 -290 -355)">
	<stop  offset="0" style="stop-color:#F1C592"/>
	<stop  offset="1" style="stop-color:#E1AF7C"/>
</linearGradient>
<path class="st5" d="M10.1,21.9c-0.8-0.1-2.8-1-7.6-5.2l-0.3-0.3c0.1-0.7,0.3-1.4,0.5-2.1c2.1,0.4,4.3,0.8,4.7,0.9
	c1.5,0.4,2.7,0.7,3.8,0.9c-1,0.1-1.8,0.4-2.3,1C8.6,17.4,8.2,18,8.3,19c0.1,1.1,0.8,2.4,4,2.4c0.3,0,0.6,0,0.9,0
	C11.8,21.7,10.7,21.9,10.1,21.9L10.1,21.9z"/>
<path class="st6" d="M14,14.32c-0.67-1.12-1.3-2.18-1.93-3.26c-0.1-0.18-0.21-0.23-0.41-0.22c-1.06,0.01-2.11,0-3.17,0
	c-0.53,0-0.82-0.3-0.82-0.83c0-2.5,0-5,0-7.5c0-0.52,0.3-0.84,0.82-0.84c3.67,0,7.33,0,11,0c0.51,0,0.83,0.31,0.83,0.82
	c0,2.51,0,5.03,0,7.55c0,0.51-0.31,0.8-0.83,0.81c-1.07,0-2.15,0-3.22,0c-0.18,0-0.27,0.06-0.36,0.21
	c-0.56,0.97-1.13,1.92-1.69,2.89C14.16,14.05,14.09,14.17,14,14.32z"/>
<path class="st7" d="M19.42,2.58c0,2.47,0,4.94,0,7.5c-1.12-1.23-2.19-2.41-3.27-3.58c-0.13,0.1-0.08,0.23-0.08,0.33
	c0,0.94-0.01,1.88,0,2.82c0,0.25-0.06,0.34-0.28,0.34c-2.32-0.01-4.64-0.01-6.96,0c-0.23,0-0.27-0.1-0.26-0.34c0-2.24,0-4.49,0-6.73
	c0-0.26,0.06-0.33,0.28-0.33c2.32,0.01,4.64,0.01,6.96,0c0.22,0,0.27,0.09,0.27,0.34c-0.01,1.13,0,2.26,0,3.41
	c1.09-1.3,2.16-2.58,3.24-3.86C19.35,2.52,19.39,2.55,19.42,2.58z"/>
</svg>
