<?xml version="1.0" encoding="utf-8"?>
<!-- Generator: Adobe Illustrator 16.0.0, SVG Export Plug-In . SVG Version: 6.00 Build 0)  -->
<!DOCTYPE svg PUBLIC "-//W3C//DTD SVG 1.1//EN" "http://www.w3.org/Graphics/SVG/1.1/DTD/svg11.dtd">
<svg version="1.1" id="Layer_1" xmlns="http://www.w3.org/2000/svg" xmlns:xlink="http://www.w3.org/1999/xlink" x="0px" y="0px"
	 width="24px" height="24px" viewBox="0 0 24 24" enable-background="new 0 0 24 24" xml:space="preserve">
<linearGradient id="SVGID_1_" gradientUnits="userSpaceOnUse" x1="598" y1="775.1992" x2="598" y2="783" gradientTransform="matrix(1 0 0 1 -584 -763)">
	<stop  offset="0" style="stop-color:#95BFF8"/>
	<stop  offset="0.5569" style="stop-color:#84ADEF"/>
	<stop  offset="1" style="stop-color:#7CA4EB"/>
</linearGradient>
<polygon fill="url(#SVGID_1_)" points="22,12.2 15.4,12.2 6.7,12.2 6,12.2 6,20 6.7,20 21.7,20 22,20 22,14.774 "/>
<linearGradient id="SVGID_2_" gradientUnits="userSpaceOnUse" x1="598" y1="776.2998" x2="598" y2="782" gradientTransform="matrix(1 0 0 1 -584 -763)">
	<stop  offset="0" style="stop-color:#E7F4FC"/>
	<stop  offset="1" style="stop-color:#DEEFFC"/>
</linearGradient>
<polygon fill="url(#SVGID_2_)" points="7,19 7,13.3 21,13.3 21,15.168 21,19 "/>
<linearGradient id="SVGID_3_" gradientUnits="userSpaceOnUse" x1="595.9531" y1="775.168" x2="595.9531" y2="786.8876" gradientTransform="matrix(1 0 0 1 -584 -763)">
	<stop  offset="0" style="stop-color:#DDA976"/>
	<stop  offset="1" style="stop-color:#9F6B37"/>
</linearGradient>
<path fill="url(#SVGID_3_)" d="M10,18.9c-0.3-2.2,9.4,0.5,9.3-1.4c0-0.8-8.4-3.4-11.4-4.1c-0.9-0.2-6.5-1.2-6.5-1.2
	c-0.2,0.1-1.3,3.3-1.4,5.2c0.5,0.3,7.3,6.699,10,6.5c2.7-0.2,14.2-3.601,13.9-4.7C23.3,17.1,10.3,21.3,10,18.9z"/>
<linearGradient id="SVGID_4_" gradientUnits="userSpaceOnUse" x1="595.4521" y1="776.2822" x2="595.4521" y2="785.9341" gradientTransform="matrix(1 0 0 1 -584 -763)">
	<stop  offset="0" style="stop-color:#FFDDAA"/>
	<stop  offset="1" style="stop-color:#E3B17E"/>
</linearGradient>
<path fill="url(#SVGID_4_)" d="M1.7,17.4C1.4,17.2,1.2,17,1,16.9C1.1,15.7,1.6,14.1,1.9,13.3c1.8,0.3,5.1,0.9,5.7,1
	c2.6,0.601,9.4,2.3,9.7,3C17.8,18.4,9,15.4,9.2,19c0.2,3.5,12.399-0.6,12.7,0.5C22.1,20.2,11.8,23.1,9.9,23
	C7.9,22.8,3.3,18.8,1.7,17.4z"/>
<linearGradient id="SVGID_5_" gradientUnits="userSpaceOnUse" x1="591.7012" y1="777.416" x2="591.7012" y2="784.9355" gradientTransform="matrix(1 0 0 1 -584 -763)">
	<stop  offset="0" style="stop-color:#F1C592"/>
	<stop  offset="1" style="stop-color:#E1AF7C"/>
</linearGradient>
<path fill="url(#SVGID_5_)" d="M10.1,21.9c-0.8-0.101-2.8-1-7.6-5.2l-0.3-0.3C2.3,15.7,2.5,15,2.7,14.3c2.1,0.4,4.3,0.8,4.7,0.9
	c1.5,0.399,2.7,0.7,3.8,0.899c-1,0.101-1.8,0.4-2.3,1C8.6,17.4,8.2,18,8.3,19c0.1,1.1,0.8,2.4,4,2.4c0.3,0,0.601,0,0.9,0
	C11.8,21.7,10.7,21.9,10.1,21.9L10.1,21.9z"/>
<g>
	<path fill="#FFFFFF" d="M6.067,0.9C7.862,0.906,9.616,0.91,11.37,0.91c1.762,0,3.523-0.003,5.285-0.011
		C16.647,2.046,16.65,3.2,16.653,4.362l0.003,1.822c0,0.065,0.01,0.13,0.028,0.19c-0.08,0.229-0.058,0.442-0.047,0.549l0.001,1.529
		c-0.004,0.952-0.008,1.905,0.002,2.857c-1.785-0.006-3.544-0.01-5.302-0.01c-1.757,0-3.514,0.003-5.271,0.011L6.067,0.9z
		 M21.96,10.396c-1.286-1.415-2.54-2.794-3.803-4.163c0,0,2.854-3.408,3.803-4.535V10.396z"/>
	<path fill="#666666" d="M6.737,1.57c1.544,0.006,3.089,0.008,4.633,0.008c1.539,0,3.078-0.002,4.613-0.008
		c-0.004,0.929-0.001,1.858,0.001,2.793l0.004,1.821c0,0.062,0.004,0.123,0.013,0.183c-0.038,0.184-0.051,0.393-0.027,0.63
		c0,0.484-0.002,0.968-0.004,1.453c-0.003,0.728-0.006,1.456-0.003,2.19c-1.543-0.006-3.086-0.008-4.628-0.008
		c-1.535,0-3.07,0.002-4.602,0.008L6.737,1.57 M21.292,3.533v5.134c-0.753-0.827-1.498-1.643-2.245-2.455l0.579-0.692
		C20.183,4.855,20.737,4.193,21.292,3.533 M22.472,0.054c-1.717,2.032-3.416,4.066-5.146,6.13c0-1.827-0.015-3.621,0-5.416
		c0-0.396-0.08-0.54-0.428-0.54c-1.843,0.008-3.685,0.012-5.527,0.012c-1.842,0-3.685-0.004-5.527-0.012
		c-0.35,0-0.444,0.112-0.444,0.524c0,3.558,0,7.13,0,10.688c-0.016,0.382,0.048,0.541,0.413,0.541
		c1.842-0.008,3.685-0.012,5.527-0.012s3.684,0.004,5.526,0.012c0.35,0,0.446-0.144,0.446-0.541c-0.017-1.493,0-2.985,0-4.478
		c0-0.159-0.082-0.365,0.126-0.524c1.717,1.858,3.414,3.732,5.192,5.686c0-4.066,0-7.989,0-11.911
		C22.582,0.165,22.518,0.118,22.472,0.054L22.472,0.054z"/>
</g>
</svg>
