<?xml version="1.0" encoding="utf-8"?>
<!-- Generator: Adobe Illustrator 16.0.0, SVG Export Plug-In . SVG Version: 6.00 Build 0)  -->
<!DOCTYPE svg PUBLIC "-//W3C//DTD SVG 1.1//EN" "http://www.w3.org/Graphics/SVG/1.1/DTD/svg11.dtd">
<svg version="1.1" id="Layer_1" xmlns="http://www.w3.org/2000/svg" xmlns:xlink="http://www.w3.org/1999/xlink" x="0px" y="0px"
	 width="16px" height="16px" viewBox="388.492 298.229 16 16" enable-background="new 388.492 298.229 16 16" xml:space="preserve">
<g>
	<rect x="389.25" y="299.746" fill="#FFFFFF" width="5" height="5"/>
	<path fill="#888A85" d="M393.75,300.246v4h-4v-4H393.75 M394.75,299.246h-6v6h6V299.246L394.75,299.246z"/>
</g>
<g>
	<rect x="389.25" y="307.729" fill="#FFFFFF" width="5" height="5"/>
	<path fill="#888A85" d="M393.75,308.229v4h-4v-4H393.75 M394.75,307.229h-6v6h6V307.229L394.75,307.229z"/>
</g>
<path d="M392.229,304.139c-0.002,0-0.002,0-0.004,0c-0.178-0.001-0.35-0.074-0.473-0.203l-2.035-2.119
	c-0.252-0.262-0.244-0.681,0.018-0.934c0.264-0.252,0.682-0.244,0.936,0.018l1.564,1.629l2.854-2.9
	c0.254-0.261,0.674-0.264,0.932-0.008c0.262,0.255,0.266,0.674,0.01,0.934l-3.33,3.383
	C392.574,304.069,392.404,304.139,392.229,304.139z"/>
<g>
	<rect x="397.266" y="307.729" fill="#FFFFFF" width="5" height="5"/>
	<path fill="#888A85" d="M401.766,308.229v4h-4v-4H401.766 M402.766,307.229h-6v6h6V307.229L402.766,307.229z"/>
</g>
<path d="M400.244,312.122c-0.002,0-0.004,0-0.004,0c-0.18-0.002-0.35-0.074-0.473-0.203l-2.035-2.119
	c-0.252-0.262-0.244-0.68,0.02-0.934c0.262-0.252,0.68-0.244,0.934,0.02l1.564,1.629l2.854-2.899
	c0.254-0.261,0.674-0.265,0.932-0.008c0.262,0.256,0.266,0.674,0.01,0.934l-3.328,3.384
	C400.59,312.052,400.42,312.122,400.244,312.122z"/>
<g>
	<rect x="397.266" y="299.747" fill="#FFFFFF" width="5" height="5"/>
	<path fill="#888A85" d="M401.766,300.247v4h-4v-4H401.766 M402.766,299.247h-6v6h6V299.247L402.766,299.247z"/>
</g>
</svg>
