<?xml version="1.0" encoding="utf-8"?>
<!-- Generator: Adobe Illustrator 16.0.0, SVG Export Plug-In . SVG Version: 6.00 Build 0)  -->
<!DOCTYPE svg PUBLIC "-//W3C//DTD SVG 1.1//EN" "http://www.w3.org/Graphics/SVG/1.1/DTD/svg11.dtd">
<svg version="1.1" id="Layer_1" xmlns="http://www.w3.org/2000/svg" xmlns:xlink="http://www.w3.org/1999/xlink" x="0px" y="0px"
	 width="16px" height="16px" viewBox="388.028 298.011 16 16" enable-background="new 388.028 298.011 16 16" xml:space="preserve">
<g>
	<path fill="#DCE8F3" d="M400.905,312.801c-2.702-1.561-3.65-2.861-3.661-2.877l-0.125-0.177l-1.687-0.001
		c-1.006,0-1.823-0.818-1.823-1.824v-4.196c0-1.006,0.817-1.824,1.823-1.824h6.347c1.006,0,1.823,0.818,1.823,1.824v4.196
		c0,1.006-0.817,1.824-1.823,1.824h-0.817l-0.115,0.232C400.839,309.995,400.225,311.271,400.905,312.801z"/>
	<g>
		<path fill="#3F608E" d="M401.779,302.32c0.774,0,1.404,0.631,1.404,1.406v4.196c0,0.775-0.63,1.405-1.404,1.405h-0.559h-0.519
			l-0.231,0.465c-0.028,0.06-0.441,0.917-0.277,2.081c-1.9-1.236-2.6-2.18-2.605-2.188l-0.25-0.357h-0.436h-1.47
			c-0.774,0-1.404-0.63-1.404-1.405v-4.196c0-0.775,0.63-1.406,1.404-1.406L401.779,302.32 M401.779,301.483h-6.347
			c-1.238,0-2.242,1.004-2.242,2.243v4.196c0,1.238,1.004,2.243,2.242,2.243h1.47c0,0,1.309,1.867,5.419,3.856
			c-2.068-1.912-1.101-3.856-1.101-3.856h0.559c1.238,0,2.243-1.005,2.243-2.243v-4.196
			C404.022,302.487,403.019,301.483,401.779,301.483L401.779,301.483z"/>
	</g>
</g>
<g>
	<path fill="#E7F9D4" d="M391.755,311.511c0.812-1.825,0.08-3.349,0.07-3.368l-0.138-0.276h-0.976c-1.201,0-2.178-0.978-2.178-2.179
		v-5.008c0-1.201,0.977-2.178,2.178-2.178h7.576c1.2,0,2.178,0.977,2.178,2.178v5.008c0,1.202-0.978,2.179-2.178,2.179h-2.012
		l-0.15,0.212C396.113,308.096,394.981,309.648,391.755,311.511z"/>
	<g>
		<path fill="#4F910E" d="M398.288,299c0.925,0,1.678,0.753,1.678,1.678v5.008c0,0.925-0.753,1.679-1.678,1.679h-1.754h-0.521
			l-0.298,0.426c-0.01,0.016-0.845,1.141-3.109,2.613c0.195-1.391-0.298-2.413-0.333-2.484l-0.276-0.555h-0.619h-0.666
			c-0.925,0-1.678-0.754-1.678-1.679v-5.008c0-0.925,0.753-1.678,1.678-1.678H398.288 M398.288,298h-7.576
			c-1.479,0-2.678,1.199-2.678,2.678v5.008c0,1.479,1.199,2.679,2.678,2.679h0.666c0,0,1.156,2.322-1.312,4.604
			c4.905-2.375,6.469-4.604,6.469-4.604h1.754c1.479,0,2.678-1.2,2.678-2.679v-5.008C400.966,299.199,399.767,298,398.288,298
			L398.288,298z"/>
	</g>
</g>
<path fill="#C2F095" d="M399.475,305.462c0,0.594-0.48,1.075-1.074,1.075h-7.469c-0.593,0-1.074-0.48-1.074-1.075v-4.381
	c0-0.594,0.48-1.075,1.074-1.075h7.469c0.594,0,1.074,0.481,1.074,1.075V305.462z"/>
<rect x="394" y="304.984" fill="#63A326" width="1" height="1"/>
<rect x="398" y="302.995" fill="#63A326" width="1" height="1"/>
<rect x="391.016" y="301" fill="#63A326" width="1" height="1"/>
<rect x="393" y="301" fill="#63A326" width="2" height="1"/>
<rect x="396" y="304.984" fill="#63A326" width="2.938" height="1"/>
<rect x="391.016" y="302.995" fill="#63A326" width="2.938" height="1"/>
<rect x="396" y="301" fill="#63A326" width="2.938" height="1"/>
<rect x="395" y="302.995" fill="#63A326" width="1.984" height="1"/>
<rect x="391.016" y="305" fill="#63A326" width="1.984" height="1"/>
</svg>
