<?xml version="1.0" encoding="utf-8"?>
<!-- Generator: Adobe Illustrator 16.0.0, SVG Export Plug-In . SVG Version: 6.00 Build 0)  -->
<!DOCTYPE svg PUBLIC "-//W3C//DTD SVG 1.1//EN" "http://www.w3.org/Graphics/SVG/1.1/DTD/svg11.dtd">
<svg version="1.1" id="Layer_1" xmlns="http://www.w3.org/2000/svg" xmlns:xlink="http://www.w3.org/1999/xlink" x="0px" y="0px"
	 width="80px" height="80px" viewBox="0 0 80 80" enable-background="new 0 0 80 80" xml:space="preserve">
<g>
	<linearGradient id="SVGID_1_" gradientUnits="userSpaceOnUse" x1="58.7461" y1="72.4697" x2="21.2534" y2="7.5305">
		<stop  offset="0" style="stop-color:#FDD023"/>
		<stop  offset="1" style="stop-color:#FFF5CC"/>
	</linearGradient>
	<path fill-rule="evenodd" clip-rule="evenodd" fill="url(#SVGID_1_)" d="M40,77.5C19.3,77.5,2.5,60.7,2.5,40S19.3,2.5,40,2.5
		S77.5,19.3,77.5,40S60.7,77.5,40,77.5z"/>
	<path fill="#020202" d="M40,5c19.3,0,35,15.7,35,35S59.3,75,40,75S5,59.3,5,40S20.7,5,40,5 M40,0C17.9,0,0,17.9,0,40s17.9,40,40,40
		c22.1,0,40-17.9,40-40S62.1,0,40,0L40,0z"/>
</g>
<g>
	<path fill-rule="evenodd" clip-rule="evenodd" d="M50.3,67.3c-0.5,0-11.2-0.2-15.8-0.5c-4.1-0.3-7.3-2.5-8.9-6.1l0-0.1l-0.5-1.4
		c-1.2-4-0.4-7.1,0.5-10.4c0.1-0.5,0.3-0.9,0.4-1.4c1.3-5,4-14.3,5-17.7H20.4l24.3-17.5l13.8,17.5h-9.7l-0.3,1
		c0,0.1-4.5,15.3-6.5,22.9c-0.9,3.4-0.8,5.6,0.1,6.8c1,1.3,3.1,2,6.8,2.1c0.5,0,1.7,0.1,1.7,0.1l1.1,0.1l-0.6,4.5L50.3,67.3z"/>
	<path fill="#555555" d="M44.5,13.7l12,15.2h-8.3l-0.6,1.7c0,0-4.5,15.3-6.5,23c-1.9,7.4,0.2,9.9,7.8,10.2c0.5,0,1.7,0.1,1.7,0.1
		l-0.4,2.6c0,0-11.1-0.2-15.7-0.5c-3.9-0.3-6.6-2.3-8.1-5.5L26.1,59c-1.3-4.2-0.1-7.3,0.9-11.2c1.6-6.2,5.4-18.9,5.4-18.9h-8.8
		L44.5,13.7 M44.9,10.9L43.4,12l-21,15.2l-5,3.6h6.2h6.1c-1.2,4.1-3.5,11.9-4.6,16.4c-0.1,0.5-0.2,1-0.4,1.4
		c-0.9,3.4-1.8,6.7-0.5,10.9l0,0l0,0l0.5,1.4l0,0.1l0,0.1c1.8,3.9,5.2,6.3,9.7,6.6c4.6,0.4,15.4,0.5,15.8,0.5l1.8,0l0.2-1.7l0.4-2.6
		l0.3-2.1l-2.1-0.2c0,0-1.2-0.1-1.8-0.1c-3.3-0.1-5.3-0.7-6-1.7c-0.7-1-0.7-2.9,0.1-6c1.9-7.6,6.4-22.7,6.5-22.9l0.1-0.3h6.9h4.1
		l-2.6-3.2l-12-15.2L44.9,10.9L44.9,10.9z"/>
</g>
</svg>
