<?xml version="1.0" encoding="utf-8"?>
<!-- Generator: Adobe Illustrator 16.0.0, SVG Export Plug-In . SVG Version: 6.00 Build 0)  -->
<!DOCTYPE svg PUBLIC "-//W3C//DTD SVG 1.1//EN" "http://www.w3.org/Graphics/SVG/1.1/DTD/svg11.dtd">
<svg version="1.1" id="Layer_1" xmlns="http://www.w3.org/2000/svg" xmlns:xlink="http://www.w3.org/1999/xlink" x="0px" y="0px"
	 width="24px" height="24px" viewBox="0 0 24 24" enable-background="new 0 0 24 24" xml:space="preserve">
<g>
	<path fill="#FFFFFF" d="M24,21c0,1.7-1.3,3-3,3H3c-1.7,0-3-1.3-3-3V3c0-1.7,1.3-3,3-3h18c1.7,0,3,1.3,3,3V21z"/>
</g>
<g>
	<path fill="#F03135" d="M16.1,2.9C14.8,2.3,13.4,2,12,2c-1.2,0-2.4,0.2-3.5,0.7l7.6,6.9V2.9z"/>
	<path fill="#275F9D" d="M6.9,20.5v-8.6l-4.1,3.8C3.5,17.7,5,19.4,6.9,20.5z"/>
	<path fill="#9963A3" d="M2,12c0,0.9,0.1,1.7,0.4,2.6l8.9-8.1L7.4,3.1C4.1,4.8,2,8.2,2,12z"/>
	<path fill="#2B9333" d="M7.9,16.3v4.8C9.2,21.7,10.6,22,12,22c3.8,0,7.3-2.2,9-5.7H7.9z"/>
	<path fill="#F37E16" d="M17.2,3.5v11.8h4.3c0.4-1.1,0.6-2.2,0.6-3.3C22,8.5,20.2,5.3,17.2,3.5z"/>
</g>
<linearGradient id="SVGID_1_" gradientUnits="userSpaceOnUse" x1="574.5" y1="-1120.0674" x2="574.5" y2="-1133.1018" gradientTransform="matrix(1 0 0 -1 -562.5 -1120)">
	<stop  offset="0" style="stop-color:#FFFFFF;stop-opacity:0.85"/>
	<stop  offset="0.66" style="stop-color:#FFFFFF;stop-opacity:0"/>
</linearGradient>
<path fill="url(#SVGID_1_)" d="M20.2,0H3.6C1.6,0,0,1.6,0,3.6v7.1C3.7,12.2,7.7,13,11.9,13c4.3,0,8.4-0.9,12.1-2.4v-7
	C23.8,1.6,22.2,0,20.2,0z"/>
<g>
	<path fill="#CCCCCC" d="M21,0.5c1.4,0,2.5,1.1,2.5,2.5v18c0,1.4-1.1,2.5-2.5,2.5H3c-1.4,0-2.5-1.1-2.5-2.5V3c0-1.4,1.1-2.5,2.5-2.5
		H21 M21,0H3C1.3,0,0,1.3,0,3v18c0,1.7,1.3,3,3,3h18c1.7,0,3-1.3,3-3V3C24,1.3,22.7,0,21,0L21,0z"/>
</g>
</svg>
