<?xml version="1.0" encoding="utf-8"?>
<!-- Generator: Adobe Illustrator 16.0.0, SVG Export Plug-In . SVG Version: 6.00 Build 0)  -->
<!DOCTYPE svg PUBLIC "-//W3C//DTD SVG 1.1//EN" "http://www.w3.org/Graphics/SVG/1.1/DTD/svg11.dtd">
<svg version="1.1" id="Layer_1" xmlns="http://www.w3.org/2000/svg" xmlns:xlink="http://www.w3.org/1999/xlink" x="0px" y="0px"
	 width="16px" height="16px" viewBox="0 0 16 16" enable-background="new 0 0 16 16" xml:space="preserve">
<path fill="#BEE2B0" d="M12.877,14.79c-2.702-1.561-3.65-2.861-3.661-2.877l-0.125-0.177l-1.688-0.001
	c-1.006,0-1.822-0.818-1.822-1.824V5.716c0-1.007,0.816-1.824,1.822-1.824h6.348c1.006,0,1.822,0.817,1.822,1.824v4.195
	c0,1.006-0.816,1.824-1.822,1.824h-0.817l-0.115,0.232C12.811,11.984,12.196,13.261,12.877,14.79z"/>
<g>
	<path fill="#196A00" d="M13.751,4.31c0.773,0,1.403,0.631,1.403,1.406v4.195c0,0.775-0.63,1.405-1.403,1.405h-0.56h-0.519
		l-0.231,0.465c-0.027,0.06-0.44,0.917-0.276,2.081c-1.9-1.236-2.601-2.18-2.605-2.188l-0.25-0.357H8.874H7.403
		C6.63,11.317,6,10.688,6,9.912V5.716C6,4.941,6.63,4.31,7.403,4.31H13.751 M13.751,3.472H7.403c-1.237,0-2.241,1.004-2.241,2.244
		v4.195c0,1.238,1.004,2.243,2.241,2.243h1.471c0,0,1.309,1.867,5.419,3.856c-2.068-1.912-1.102-3.856-1.102-3.856h0.56
		c1.237,0,2.243-1.005,2.243-2.243V5.716C15.994,4.476,14.99,3.472,13.751,3.472L13.751,3.472z"/>
</g>
<path fill="#F7F5D5" d="M3.727,13.5c0.812-1.825,0.08-3.349,0.07-3.368L3.659,9.856H2.683c-1.201,0-2.178-0.979-2.178-2.18V2.669
	c0-1.201,0.977-2.178,2.178-2.178h7.576c1.2,0,2.178,0.977,2.178,2.178v5.008c0,1.203-0.978,2.18-2.178,2.18H8.247l-0.15,0.212
	C8.085,10.085,6.953,11.638,3.727,13.5z"/>
<g>
	<path fill="#D8C800" d="M10.26,0.989c0.925,0,1.678,0.753,1.678,1.678v5.008c0,0.926-0.753,1.68-1.678,1.68H8.506H7.984L7.687,9.78
		c-0.01,0.016-0.845,1.141-3.108,2.613c0.194-1.391-0.299-2.413-0.333-2.484L3.969,9.354H3.35H2.684
		c-0.925,0-1.678-0.754-1.678-1.68V2.667c0-0.925,0.753-1.678,1.678-1.678H10.26 M10.26-0.011H2.684
		c-1.479,0-2.678,1.199-2.678,2.678v5.008c0,1.479,1.199,2.68,2.678,2.68H3.35c0,0,1.156,2.322-1.312,4.604
		c4.904-2.375,6.469-4.604,6.469-4.604h1.754c1.479,0,2.678-1.2,2.678-2.68V2.667C12.938,1.188,11.738-0.011,10.26-0.011
		L10.26-0.011z"/>
</g>
<path fill="#DDD38C" d="M11.28,7.362c0,0.595-0.48,1.075-1.074,1.075h-7.47c-0.593,0-1.073-0.48-1.073-1.075V2.981
	c0-0.595,0.479-1.075,1.073-1.075h7.47c0.594,0,1.074,0.48,1.074,1.075V7.362z"/>
<g>
	<rect x="5.464" y="6.656" fill="#A0A0A0" width="1" height="1"/>
	<rect x="9.464" y="4.667" fill="#A0A0A0" width="1" height="1"/>
	<rect x="2.479" y="2.672" fill="#686868" width="1" height="1"/>
	<rect x="4.464" y="2.672" fill="#A0A0A0" width="2" height="1"/>
	<rect x="7.464" y="6.656" fill="#686868" width="2.938" height="1"/>
	<rect x="2.479" y="4.667" fill="#A0A0A0" width="2.938" height="1"/>
	<rect x="7.464" y="2.672" fill="#A0A0A0" width="2.938" height="1"/>
	<rect x="6.464" y="4.667" fill="#686868" width="1.984" height="1"/>
	<rect x="2.479" y="6.672" fill="#A0A0A0" width="1.984" height="1"/>
</g>
<g>
	
		<line fill="none" stroke="#FF0000" stroke-linecap="round" stroke-linejoin="round" stroke-miterlimit="10" x1="9.084" y1="8.5" x2="13.994" y2="8.5"/>
	
		<line fill="none" stroke="#FF0000" stroke-linecap="round" stroke-linejoin="round" stroke-miterlimit="10" x1="11.539" y1="10.955" x2="11.539" y2="6.045"/>
</g>
</svg>
