<?xml version="1.0" encoding="utf-8"?>
<!-- Generator: Adobe Illustrator 16.0.0, SVG Export Plug-In . SVG Version: 6.00 Build 0)  -->
<!DOCTYPE svg PUBLIC "-//W3C//DTD SVG 1.1//EN" "http://www.w3.org/Graphics/SVG/1.1/DTD/svg11.dtd">
<svg version="1.1" id="Layer_1" xmlns="http://www.w3.org/2000/svg" xmlns:xlink="http://www.w3.org/1999/xlink" x="0px" y="0px"
	 width="24px" height="24px" viewBox="0 0 24 24" enable-background="new 0 0 24 24" xml:space="preserve">
<rect fill="#1A74B0" width="24" height="24"/>
<path fill="#096191" d="M12.8,17c-1.5,0-2.9-0.8-3.7-2.1C8.3,16.2,7,17,5.5,17c-1.1,0-2.2-0.4-3-1.2c-0.8-0.8-1.3-1.8-1.3-3
	c0,0,0,0,0,0V5.9c0,0,0,0,0,0c0-0.5,0.4-0.9,1-0.9c0.5,0,1,0.4,1,0.9c0,0,0,0,0,0v3.2c0.7-0.5,1.5-0.7,2.4-0.7
	c1.5,0,2.9,0.8,3.7,2.1c0.8-1.3,2.2-2.1,3.7-2.1c2.4,0,4.3,1.9,4.3,4.3C17.1,15.1,15.2,17,12.8,17L12.8,17z M12.8,10.4
	c-1.3,0-2.4,1.1-2.4,2.4s1.1,2.4,2.4,2.4c1.3,0,2.4-1.1,2.4-2.4S14.1,10.4,12.8,10.4L12.8,10.4z M5.5,10.4c-1.3,0-2.4,1.1-2.4,2.4
	s1.1,2.4,2.4,2.4s2.4-1.1,2.4-2.4S6.8,10.4,5.5,10.4L5.5,10.4z"/>
<linearGradient id="SVGID_1_" gradientUnits="userSpaceOnUse" x1="9.1274" y1="16.835" x2="9.1274" y2="8.5749">
	<stop  offset="0" style="stop-color:#A0C6E0"/>
	<stop  offset="0.4969" style="stop-color:#C3DDEE"/>
	<stop  offset="0.5031" style="stop-color:#DBEAF5"/>
	<stop  offset="1" style="stop-color:#FFFFFF"/>
</linearGradient>
<path fill="url(#SVGID_1_)" d="M12.8,8.6c-1.6,0-3,0.9-3.7,2.2C8.4,9.5,7,8.6,5.5,8.6C4.5,8.6,3.7,8.9,3,9.4V5.9h0
	c0-0.5-0.4-0.8-0.8-0.8c-0.5,0-0.8,0.4-0.8,0.8h0v6.9h0c0,2.3,1.9,4.1,4.2,4.1c1.6,0,3-0.9,3.7-2.2c0.7,1.3,2.1,2.2,3.7,2.2
	c2.3,0,4.2-1.9,4.2-4.2C17,10.4,15.1,8.6,12.8,8.6z M5.5,15.2c-1.4,0-2.5-1.1-2.5-2.5c0-1.4,1.1-2.5,2.5-2.5s2.5,1.1,2.5,2.5
	C7.9,14.1,6.8,15.2,5.5,15.2z M12.8,15.2c-1.4,0-2.5-1.1-2.5-2.5c0-1.4,1.1-2.5,2.5-2.5c1.4,0,2.5,1.1,2.5,2.5
	C15.3,14.1,14.2,15.2,12.8,15.2z"/>
<path fill="#096191" d="M21.9,17c-0.3,0-0.6-0.1-0.8-0.4c0,0,0,0,0,0l-1.7-2.3l-1.7,2.3c0,0,0,0,0,0c-0.2,0.2-0.5,0.4-0.8,0.4
	c-0.2,0-0.4-0.1-0.6-0.2c-0.4-0.3-0.5-0.9-0.2-1.3c0,0,0,0,0,0l2.1-2.8L16.1,10c0,0,0,0,0,0c-0.3-0.4-0.2-1,0.2-1.3
	c0.2-0.1,0.4-0.2,0.6-0.2c0.3,0,0.6,0.1,0.8,0.4c0,0,0,0,0,0l1.7,2.3l1.7-2.3c0,0,0,0,0,0c0.2-0.2,0.5-0.4,0.8-0.4
	c0.2,0,0.4,0.1,0.6,0.2c0.4,0.3,0.5,0.9,0.2,1.3c0,0,0,0,0,0l-2.1,2.8l2.1,2.8c0,0,0,0,0,0c0.3,0.4,0.2,1-0.2,1.3
	C22.3,17,22.1,17,21.9,17L21.9,17z"/>
<linearGradient id="SVGID_2_" gradientUnits="userSpaceOnUse" x1="19.3828" y1="16.8359" x2="19.3828" y2="8.5754">
	<stop  offset="0" style="stop-color:#A0C6E0"/>
	<stop  offset="0.4969" style="stop-color:#C3DDEE"/>
	<stop  offset="0.5031" style="stop-color:#DBEAF5"/>
	<stop  offset="1" style="stop-color:#FFFFFF"/>
</linearGradient>
<path fill="url(#SVGID_2_)" d="M22.6,15.6l-2.1-2.8l2.1-2.8v0c0.3-0.4,0.2-0.9-0.2-1.2c-0.4-0.3-0.9-0.2-1.2,0.2v0l-1.8,2.5
	l-1.8-2.5v0c-0.3-0.4-0.8-0.4-1.2-0.2C16,9,16,9.5,16.2,9.9v0l2.1,2.8l-2.1,2.8l0,0c-0.3,0.4-0.2,0.9,0.2,1.2
	c0.4,0.3,0.9,0.2,1.2-0.2l0,0l1.8-2.5l1.8,2.5l0,0c0.3,0.4,0.8,0.4,1.2,0.2C22.7,16.5,22.8,15.9,22.6,15.6L22.6,15.6z"/>
</svg>
