<?xml version="1.0" encoding="utf-8"?>
<!-- Generator: Adobe Illustrator 16.0.0, SVG Export Plug-In . SVG Version: 6.00 Build 0)  -->
<!DOCTYPE svg PUBLIC "-//W3C//DTD SVG 1.1//EN" "http://www.w3.org/Graphics/SVG/1.1/DTD/svg11.dtd">
<svg version="1.1" id="Layer_1" xmlns="http://www.w3.org/2000/svg" xmlns:xlink="http://www.w3.org/1999/xlink" x="0px" y="0px"
	 width="12px" height="12px" viewBox="0 0 12 12" enable-background="new 0 0 12 12" xml:space="preserve">
<path fill="#B01516" d="M8.283,5.947l3.397-3.398c0.426-0.425,0.426-1.062,0-1.487l-0.743-0.744c-0.424-0.424-1.062-0.424-1.485,0
	L5.947,3.717L2.549,0.318c-0.425-0.424-1.062-0.424-1.487,0L0.318,1.062c-0.424,0.425-0.424,1.062,0,1.487l3.398,3.398L0.318,9.452
	c-0.424,0.424-0.424,1.062,0,1.485l0.744,0.743c0.425,0.426,1.062,0.426,1.487,0l3.398-3.397l3.505,3.397
	c0.424,0.426,1.062,0.426,1.485,0l0.743-0.743c0.426-0.424,0.426-1.062,0-1.485L8.283,5.947z"/>
</svg>
